<svg id="Layer_1" data-name="Layer 1" xmlns="http://www.w3.org/2000/svg" viewBox="0 0 500 500"><defs><style>.cls-1{fill:#f5ec47;}.cls-2{fill:#020202;}</style></defs><circle class="cls-1" cx="250.21" cy="249.83" r="244.5"/><path class="cls-2" d="M229.9,288.75a13.38,13.38,0,0,1-7.91-2.56,4.67,4.67,0,0,1,5.44-7.58c3.58,2.56,8-1.53,9.3-2.83,4-4.14,5.35-9.16,4.28-10.56-2-2.65-3.35-4.37-17.9,5.63-8.79,6-16,3.58-19.9-.7-5.35-5.95-5.3-15.95.09-22.27,7.49-8.79,15.9-9.2,19.67-8.09a4.66,4.66,0,1,1-2.56,9c-.37-.09-4.83-.88-10,5.16-2.65,3.12-2.28,7.77-.28,10s5.35.88,7.77-.74c14.78-10.14,23.1-13.3,30.54-3.63,4.88,6.37,1.07,16.41-5,22.69C239.24,286.51,234.45,288.75,229.9,288.75Z"/><path class="cls-2" d="M249,289.49a4.64,4.64,0,0,1-3-1.12l-8-6.78a4.65,4.65,0,0,1,6-7.07l8,6.79a4.64,4.64,0,0,1-3,8.18Zm-41.1-35.1a4.64,4.64,0,0,1-3-1.12l-5.3-4.51a4.65,4.65,0,1,1,6-7.06l5.3,4.51a4.64,4.64,0,0,1-3,8.18Z"/><path class="cls-2" d="M195.77,360.71a50.79,50.79,0,0,1-14.32-1.81,4.19,4.19,0,0,1-1.95-1.25L111.25,284.7a4.63,4.63,0,0,1-.51-5.67,4.7,4.7,0,0,1,5.35-1.95c1.76.56,43.42,13,66.48-43.15,25.66-62.53,76.85-75.5,79-76.06a4.62,4.62,0,0,1,4.14,1l74.48,65.46a4.55,4.55,0,0,1,1.49,4.37,4.64,4.64,0,0,1-3,3.48c-.56.19-55.33,19.95-79.27,78.2C241.75,353.56,213,360.71,195.77,360.71Zm-10.36-10.32c6.92,1.77,44.16,8.37,65.41-43.47C271.32,257,312,234,328.46,226.45l-66.9-58.81c-9.81,3.2-49.52,19.06-70.39,69.87-17.95,43.66-47,50.4-64.34,50.21Z"/><path class="cls-2" d="M192.8,380a53.68,53.68,0,0,1-8.05-.47,4.75,4.75,0,0,1-2.65-1.39l-68.29-73a4.62,4.62,0,0,1-.51-5.67,4.53,4.53,0,0,1,5.34-1.91,46.22,46.22,0,0,0,16,1.21,4.37,4.37,0,0,1,1.35.09,4.68,4.68,0,0,1,3.67,5.49,4.56,4.56,0,0,1-4.46,3.72c-2,.18-4,.23-5.72.23l58.26,62.25c9.06.93,54.2,2.7,75.59-49.33,1.12-2.65,2.23-5.2,3.44-7.71a4.65,4.65,0,1,1,8.42,4c-1.12,2.37-2.19,4.79-3.26,7.3C251.47,374.43,210.23,380,192.8,380Zm93.82-86.15a4.66,4.66,0,0,1-3.72-7.44c17.71-23.62,37.47-34.91,48-39.66l-10.42-9.15a4.65,4.65,0,0,1,6.14-7l16.18,14.23a4.62,4.62,0,0,1-1.77,7.95c-.28.09-27.52,8.37-50.67,39.24A4.68,4.68,0,0,1,286.62,293.86Zm-106.47-39.7a4.64,4.64,0,0,1-4.55-5.77c.6-2.46.32-2-1.45-4.23s-7.29-6.41-22.78-7.2c-36.12-1.86-38.12-26.55-38.12-26.83a4.61,4.61,0,0,1,1.4-3.63,4.78,4.78,0,0,1,3.67-1.3l4.18.37c-5.62-4.74-9.34-10.18-11.06-16.18-3.86-13.48,4-24.54,4.32-25a4.66,4.66,0,0,1,6-1.35l3.2,1.77a36.21,36.21,0,0,1-3-15.57c.61-16.88,13.39-27.9,14-28.36a4.66,4.66,0,0,1,5.16-.56,4.81,4.81,0,0,1,2.42,4.56c-.84,9.48,12.22,19.43,24.82,29,15.62,12,31.8,24.27,26.22,39.71-7,19.48.56,25.33.89,25.57a4.7,4.7,0,0,1,1.11,6.41,4.6,4.6,0,0,1-6.27,1.3c-.56-.37-14.14-9.57-4.47-36.45,3.26-9.06-10.13-19.29-23.1-29.19-10.83-8.28-22-16.79-26.46-26.55a29.3,29.3,0,0,0-5,14.92c-.28,8.7,4,17.44,12.79,26a4.62,4.62,0,0,1,.46,6.09,4.69,4.69,0,0,1-6,1.31l-17.11-9.54a20.38,20.38,0,0,0-1,13.44c2.42,8.23,10.65,15.25,24.41,20.83a4.69,4.69,0,0,1,2.79,5.39,4.75,4.75,0,0,1-4.93,3.54l-18.09-1.63c2.93,5,10,11.67,27.34,12.55,15,.74,25.06,4.51,29.94,11.16a14.46,14.46,0,0,1,2.79,11.81,4.6,4.6,0,0,1-4.51,3.58Z"/><path class="cls-2" d="M309.07,361.46c-7.72,0-23.2-3.35-33-27.94-5.62-14.18-11.29-18-14.18-19a6.58,6.58,0,0,0-5.2.14,4.7,4.7,0,0,1-6.33-1.58,4.6,4.6,0,0,1,1.4-6.27,15.29,15.29,0,0,1,12.74-1.21c7.95,2.55,14.73,10.78,20.17,24.5,6.42,16.08,15,20.69,20.69,21.85L298,335.33a4.65,4.65,0,0,1,7.76-4.93c9.76,11.3,18.92,16.83,27.71,16.41a20.76,20.76,0,0,0,12.32-5.25L331.25,328.4a4.64,4.64,0,0,1,5.25-7.57c10.93,5.57,20.6,6.83,28.73,3.76a29.18,29.18,0,0,0,12.51-9.53c-10.69-1.12-22.32-8.93-33.66-16.55C330.55,289.4,316.56,280,309,286c-18.14,14.42-35.8,5.86-42.64-.65a4.64,4.64,0,1,1,6.42-6.69h0c1.44,1.35,14.5,12.83,30.4.09,12.84-10.23,29.71,1.12,46,12.09,13.16,8.83,26.78,18,35.47,14.18a4.73,4.73,0,0,1,5.12.88,4.66,4.66,0,0,1,1.11,5.07c-.28.65-6.6,16.32-22.36,22.31a35.71,35.71,0,0,1-15.76,2.14l2.7,2.47a4.59,4.59,0,0,1,.65,6.13c-.33.47-8.28,11.44-22.27,12.14-6.23.28-12.55-1.49-18.88-5.3l1.72,3.81a4.68,4.68,0,0,1,0,3.86,4.73,4.73,0,0,1-3,2.51,23.88,23.88,0,0,1-4.65.42ZM262.86,185.68a49,49,0,0,1-27.29-8.42,4.65,4.65,0,1,1,5.53-7.48c.7.51,16.92,12,36.87,3.44a4.63,4.63,0,1,1,3.67,8.5A47.06,47.06,0,0,1,262.86,185.68Zm49.61,59.6a4.7,4.7,0,0,1-4.14-2.51c-8.28-16,.32-30.22,6-35.57a4.59,4.59,0,0,1,6.49.17l.06.06a4.63,4.63,0,0,1-.19,6.56c-.46.46-11.15,10.92-4.13,24.5a4.69,4.69,0,0,1-2,6.28A4.12,4.12,0,0,1,312.47,245.28ZM217,356.67a4.64,4.64,0,0,1-3-1.12c-18.78-16.17-43.14-10.92-43.42-10.83a4.65,4.65,0,1,1-2.09-9.06c1.16-.28,29.15-6.47,51.55,12.87a4.63,4.63,0,0,1-3,8.14ZM135.8,308.83a4.65,4.65,0,0,1-.61-9.25c19.9-2.7,18.88-24.73,18.83-25.66a4.65,4.65,0,0,1,4.37-4.89h0a4.56,4.56,0,0,1,4.88,4.2.91.91,0,0,0,0,.17c.6,10.93-4.24,32.36-26.88,35.43a2.4,2.4,0,0,0-.6,0Zm117.39-66.16a13.58,13.58,0,0,1-7.81-24.73,13.61,13.61,0,1,1,7.81,24.73Zm0-17.94a4.31,4.31,0,0,0-4.23,3.58,4.3,4.3,0,1,0,5-3.49A2.09,2.09,0,0,0,253.19,224.73ZM195.63,311a13.59,13.59,0,0,1-7.81-24.74A13.61,13.61,0,1,1,195.63,311Zm0-17.95a4.34,4.34,0,0,0-.75,8.6,4.17,4.17,0,0,0,3.21-.7,4.34,4.34,0,0,0-1.72-7.81A2,2,0,0,0,195.59,293.07Z"/></svg>