<svg id="Layer_1" data-name="Layer 1" xmlns="http://www.w3.org/2000/svg" viewBox="0 0 500 500"><defs><style>.cls-1{fill:#f5ec47;}.cls-2{fill:none;stroke-width:7px;}.cls-2,.cls-3{stroke:#000;stroke-miterlimit:10;}.cls-3{stroke-width:0.25px;}</style></defs><circle class="cls-1" cx="250.21" cy="249.83" r="244.5"/><path class="cls-2" d="M319.16,149.39a121.75,121.75,0,0,0-155,14.26h0A121.73,121.73,0,0,0,152.29,322l-9.37,35,35-9.37a121.73,121.73,0,0,0,158.37-11.85h0a121.73,121.73,0,0,0,14.25-155"/><path class="cls-2" d="M217.18,217.87a10.61,10.61,0,0,1-10.26-13.81,44.66,44.66,0,1,1,62.49,53.83,16.84,16.84,0,0,0-9.42,15h0a10.61,10.61,0,0,1-10.61,10.61h0a10.61,10.61,0,0,1-10.61-10.61h0a38,38,0,0,1,21.13-34,23.44,23.44,0,0,0,12.86-22c-.52-11.33-10.91-21.72-22.24-22.24a23.44,23.44,0,0,0-23.27,15.82A10.74,10.74,0,0,1,217.18,217.87Z"/><path class="cls-2" d="M260,315.43a10.63,10.63,0,1,1-10.63-10.63A10.63,10.63,0,0,1,260,315.43Z"/><circle class="cls-3" cx="337.06" cy="164" r="5.68"/></svg>