<svg id="Layer_1" data-name="Layer 1" xmlns="http://www.w3.org/2000/svg" viewBox="0 0 500 500"><defs><style>.cls-1{fill:#f5ec47;}.cls-2{fill:#222221;}</style></defs><circle class="cls-1" cx="250" cy="250" r="244.5"/><path class="cls-2" d="M253.84,258.5c31.38-2.64,116.19,50.89,75.52,85.44-16.72,14.2-42.94,9.63-61.6,1.92-9.79-4.06-19-10.11-27.51-16.32-2.7-2-27.37-20.31-26.41-22.18-10,19.58,12.27,52.13,25.12,65.27,3.86,3.93,10,10.17,15.73,11.19,2.18.4,8.6-2.34,9.71-1.55,4.06,2.86-1.16,9.14-4.24,10.66-5.8,2.87-13.92-.65-19.07-3.34-23.68-12.4-40.12-37.7-45.34-63.39a52.72,52.72,0,0,1-.13-22.71c1-4.93,3.79-10.14,2.57-15.19-1.36-5.58-7.53-11.8-10.44-16.79a141.41,141.41,0,0,1-9.59-19.39c-9.55-24.33-12-55.58,5.49-77.15,9-11.11,22.06-18.64,35.8-22.19,5-1.29,29.28-1.28,30.82-5.27,1.25-3.24-53.85-27.62-27.34-39.87,11.25-5.2,29.41,11.83,37.86,17.22,8.18,5.23,26.74,10.77,27.75,22,.6,6.62-4.61,11.25-7.53,16.71a126.68,126.68,0,0,0-7.2,17.56c-4.05,11.43-5.52,32.45-15.73,40.18-15.17,11.49-13.32-11.53-12.25-20,1.41-11.08,2-24.15,6.77-34.41-12.8-.7-36.88,12-45.38,21.3-7.82,8.56-9.85,19.07-9.43,30.14.6,15.62,6.49,28.87,14.07,42.51,4.93,8.87,4.63,8,12.49,4.23a60.79,60.79,0,0,1,29.49-6.54C259.94,258,242.94,258.07,253.84,258.5ZM318.53,323c4.24-13.82-28-33.91-37.93-38.25-7.66-3.33-17.06-6.39-25.45-6.54-4.35-.07-24.35,1.68-25.17,6.69-1.78,10.79,34.58,32.78,42,36.74,5,2.66,50.48,19.25,46.51,1.36C319.62,319.47,319.27,326.35,318.53,323Z"/></svg>