<svg id="Layer_1" data-name="Layer 1" xmlns="http://www.w3.org/2000/svg" viewBox="0 0 500 500"><defs><style>.cls-1{fill:#f5ec47;}.cls-2{fill:#020202;}</style></defs><circle class="cls-1" cx="250.21" cy="249.83" r="244.5"/><path class="cls-2" d="M125.24,224.79c-13.87-17.74-18-32.67-11.91-43.18l7-12.13,12.24-21.19c6.5-11.27,23.84-14.95,48.8-10.37,23.61,4.32,51.79,15.47,79.36,31.39a314.9,314.9,0,0,1,36.6,24.58l-4.95,6.31a306.36,306.36,0,0,0-35.66-23.95c-26.79-15.47-54.06-26.29-76.79-30.45-21.07-3.86-35.81-1.49-40.42,6.5-8.83,15.31,19.62,54.17,76.07,87.63l-4.09,6.89C184.8,231,161.94,212.49,147.1,194.7c-8.43-10.1-13.82-19.51-16-27.78q-1.89,3.29-3.79,6.57l-7,12.13c-3.46,6-1.23,15.57,6.07,26.93L132.41,202l6.94,4-7.89,13.68.1.13a166.42,166.42,0,0,0,20.24,21.21l6.87-11.9,6.94,4L158,246.39a287.75,287.75,0,0,0,28.53,20.8l-4.33,6.75c-24-15.39-44.18-32.84-56.94-49.15Zm62.05-58.61c17.11,5.09,38.29,14.69,59.65,27,8.88,5.13,17.39,10.5,25.28,16l4.55-6.59C268.71,197,260,191.5,251,186.26c-21.89-12.64-43.68-22.49-61.37-27.76-19.91-5.93-32.1-5.32-36.21,1.81s1.44,18,16.54,32.26c13.4,12.68,32.84,26.63,54.73,39.28l4.28,2.43,3.94-7q-2.12-1.19-4.22-2.4c-21.36-12.34-40.26-25.89-53.23-38.16-14.35-13.58-16.16-20.6-15.1-22.42s8-3.78,27,1.86Zm198.25,116.3c-15.56,18.29-39.3,37.12-66.86,53s-55.77,27.06-79.38,31.39a107.15,107.15,0,0,1-19.12,1.92c-14.71,0-25-4.18-29.68-12.3L177,333.2l-5.77-10c-6.51-11.26-1-28.12,15.41-47.46,15.56-18.29,39.31-37.13,66.88-53s55.74-27.06,79.36-31.38c25-4.58,42.31-.9,48.81,10.36L401,235C407.45,246.29,402,263.14,385.54,282.48ZM178.2,319.21h0c4.61,8,19.35,10.36,40.42,6.5,22.73-4.17,50-15,76.81-30.45s49.8-33.69,64.77-51.3c13.88-16.32,19.2-30.26,14.58-38.26h0c-4.61-8-19.35-10.35-40.42-6.49-22.74,4.16-50,15-76.81,30.44s-49.8,33.69-64.77,51.3c-13.88,16.32-19.2,30.26-14.58,38.26ZM394,239l-10.78-18.7c-2.3,8.54-8,18.31-16.92,28.81-15.56,18.29-39.31,37.13-66.87,53s-55.77,27.06-79.38,31.39a107.15,107.15,0,0,1-19.12,1.92,55.46,55.46,0,0,1-14.29-1.67q5.4,9.35,10.79,18.69c3.5,6.07,12.85,8.89,26.36,8.21l-6.07-10.53,7-4,7.88,13.68c1.72-.24,3.48-.52,5.3-.85A178.48,178.48,0,0,0,261.22,353L254.33,341l6.94-4,7.65,13.24A276.81,276.81,0,0,0,295.09,339l-7-12.23,6.94-4,7.28,12.61q12.54-6.54,24.51-14.15l-7.29-12.61,6.94-4,7.06,12.23a281,281,0,0,0,22.82-17l-7.64-13.25,6.95-4,6.87,11.93a178.33,178.33,0,0,0,16.95-17.2q1.74-2,3.39-4.16l-7.89-13.67,6.94-4L387.94,266c7.34-11.37,9.57-20.87,6.07-26.93ZM192.06,311.19c-4.11-7.12,1.45-18,16.54-32.26,13.41-12.69,32.85-26.64,54.73-39.27S307,217.17,324.7,211.9c19.91-5.92,32.09-5.31,36.21,1.81s-1.45,18-16.54,32.27c-13.41,12.69-32.84,26.63-54.73,39.27S246,307.74,228.27,313c-9,2.69-16.48,4-22.3,4-7,0-11.66-2-13.91-5.85Zm6.94-4c1.05,1.82,8,3.77,27-1.87,17.11-5.09,38.29-14.68,59.65-27s40.27-25.87,53.23-38.14C353.22,226.58,355,219.54,354,217.72s-8.05-3.77-27,1.87c-17.1,5.09-38.29,14.68-59.65,27s-40.25,25.88-53.22,38.15C199.76,298.34,198,305.37,199,307.19Zm-57.43-30.74h-8v10.16H123.4v8h10.16v10.16h8V294.62h10.16v-8H141.57ZM312.5,183.68h8V173.52h10.14v-8H320.52V155.36h-8v10.15H302.35v8H312.5v10.16Z"/></svg>