<svg id="OBJECTS" xmlns="http://www.w3.org/2000/svg" xmlns:xlink="http://www.w3.org/1999/xlink" viewBox="0 0 809.78 545.81"><defs><style>.cls-1{fill:none;}.cls-2{fill:#f5ec47;}.cls-2,.cls-3{stroke:#ff6363;stroke-miterlimit:10;stroke-width:0.2px;}.cls-4{clip-path:url(#clip-path);}.cls-5{fill:#ff6363;}.cls-6{fill:#fffdf8;}.cls-7{fill:url(#Degradado_sin_nombre_3);}.cls-8{fill:url(#Degradado_sin_nombre_3-2);}.cls-9{fill:url(#Degradado_sin_nombre_3-3);}.cls-10{fill:url(#Degradado_sin_nombre_3-4);}.cls-11{fill:url(#Degradado_sin_nombre_3-5);}.cls-12{fill:url(#Degradado_sin_nombre_3-6);}.cls-13{fill:url(#Degradado_sin_nombre_3-7);}.cls-14{fill:url(#Degradado_sin_nombre_3-8);}.cls-15{fill:url(#Degradado_sin_nombre_3-9);}.cls-16{fill:url(#Degradado_sin_nombre_3-10);}.cls-17{fill:url(#Degradado_sin_nombre_3-11);}.cls-18{fill:url(#Degradado_sin_nombre_3-12);}.cls-19{fill:url(#Degradado_sin_nombre_3-13);}.cls-20{fill:url(#Degradado_sin_nombre_3-14);}.cls-21{fill:url(#Degradado_sin_nombre_3-15);}.cls-22{fill:url(#Degradado_sin_nombre_3-16);}.cls-23{fill:url(#Degradado_sin_nombre_3-17);}.cls-24{fill:url(#Degradado_sin_nombre_3-18);}.cls-25{fill:url(#Degradado_sin_nombre_3-19);}.cls-26{fill:url(#Degradado_sin_nombre_3-20);}.cls-27{fill:url(#Degradado_sin_nombre_3-21);}.cls-28{fill:url(#Degradado_sin_nombre_3-22);}.cls-29{fill:url(#Degradado_sin_nombre_3-23);}.cls-30{fill:url(#Degradado_sin_nombre_3-24);}.cls-31{fill:url(#Degradado_sin_nombre_3-25);}.cls-32{fill:url(#Degradado_sin_nombre_3-26);}.cls-33{fill:url(#Degradado_sin_nombre_3-27);}.cls-34{fill:url(#Degradado_sin_nombre_3-28);}.cls-35{fill:url(#Degradado_sin_nombre_3-29);}.cls-36{fill:url(#Degradado_sin_nombre_3-30);}.cls-37{fill:url(#Degradado_sin_nombre_3-31);}.cls-38{fill:url(#Degradado_sin_nombre_3-32);}.cls-39{fill:url(#Degradado_sin_nombre_3-33);}.cls-40{fill:url(#Degradado_sin_nombre_3-34);}.cls-41{fill:url(#Degradado_sin_nombre_3-35);}.cls-42{fill:url(#Degradado_sin_nombre_3-36);}.cls-43{fill:url(#Degradado_sin_nombre_3-37);}.cls-44{fill:url(#Degradado_sin_nombre_3-38);}.cls-45{fill:url(#Degradado_sin_nombre_3-39);}.cls-46{fill:url(#Degradado_sin_nombre_3-40);}.cls-47{fill:url(#Degradado_sin_nombre_3-41);}.cls-48{fill:url(#Degradado_sin_nombre_3-42);}.cls-49{fill:url(#Degradado_sin_nombre_3-43);}.cls-50{fill:url(#Degradado_sin_nombre_3-44);}.cls-51{fill:url(#Degradado_sin_nombre_3-45);}.cls-52{fill:url(#Degradado_sin_nombre_3-46);}.cls-53{fill:url(#Degradado_sin_nombre_3-47);}.cls-54{fill:url(#Degradado_sin_nombre_3-48);}.cls-55{fill:url(#Degradado_sin_nombre_3-49);}.cls-56{fill:url(#Degradado_sin_nombre_3-50);}.cls-57{fill:url(#Degradado_sin_nombre_3-51);}.cls-58{fill:url(#Degradado_sin_nombre_3-52);}.cls-59{fill:url(#Degradado_sin_nombre_3-53);}.cls-60{fill:url(#Degradado_sin_nombre_3-54);}.cls-61{fill:url(#Degradado_sin_nombre_3-55);}.cls-62{fill:url(#Degradado_sin_nombre_3-56);}.cls-63{fill:url(#Degradado_sin_nombre_3-57);}.cls-64{fill:url(#Degradado_sin_nombre_3-58);}.cls-65{fill:url(#Degradado_sin_nombre_3-59);}.cls-66{fill:url(#Degradado_sin_nombre_3-60);}.cls-67{fill:url(#Degradado_sin_nombre_3-61);}.cls-68{fill:url(#Degradado_sin_nombre_3-62);}.cls-69{fill:url(#Degradado_sin_nombre_3-63);}.cls-70{fill:url(#Degradado_sin_nombre_3-64);}.cls-71{fill:url(#Degradado_sin_nombre_3-65);}.cls-72{fill:url(#Degradado_sin_nombre_3-66);}.cls-73{fill:url(#Degradado_sin_nombre_3-67);}.cls-74{fill:url(#Degradado_sin_nombre_3-68);}.cls-75{fill:url(#Degradado_sin_nombre_3-69);}.cls-76{fill:url(#Degradado_sin_nombre_3-70);}.cls-77{fill:url(#Degradado_sin_nombre_3-71);}.cls-78{fill:url(#Degradado_sin_nombre_3-72);}.cls-79{fill:url(#Degradado_sin_nombre_3-73);}.cls-80{fill:url(#Degradado_sin_nombre_3-74);}.cls-81{fill:url(#Degradado_sin_nombre_3-75);}.cls-82{fill:url(#Degradado_sin_nombre_3-76);}.cls-83{fill:url(#Degradado_sin_nombre_3-77);}.cls-84{fill:url(#Degradado_sin_nombre_3-78);}.cls-85{fill:url(#Degradado_sin_nombre_3-79);}.cls-86{fill:url(#Degradado_sin_nombre_3-80);}.cls-87{fill:url(#Degradado_sin_nombre_3-81);}.cls-88{fill:url(#Degradado_sin_nombre_3-82);}.cls-89{fill:url(#Degradado_sin_nombre_3-83);}.cls-90{fill:url(#Degradado_sin_nombre_3-84);}.cls-91{fill:url(#Degradado_sin_nombre_3-85);}.cls-92{fill:url(#Degradado_sin_nombre_3-86);}.cls-93{fill:url(#Degradado_sin_nombre_3-87);}.cls-94{fill:url(#Degradado_sin_nombre_3-88);}.cls-95{fill:url(#Degradado_sin_nombre_3-89);}.cls-96{fill:url(#Degradado_sin_nombre_3-90);}.cls-97{fill:url(#Degradado_sin_nombre_3-91);}.cls-98{fill:url(#Degradado_sin_nombre_3-92);}.cls-99{fill:url(#Degradado_sin_nombre_3-93);}.cls-100{fill:url(#Degradado_sin_nombre_3-94);}.cls-101{fill:url(#Degradado_sin_nombre_3-95);}.cls-102{fill:url(#Degradado_sin_nombre_3-96);}.cls-103{fill:url(#Degradado_sin_nombre_3-97);}.cls-104{fill:url(#Degradado_sin_nombre_3-98);}.cls-105{fill:url(#Degradado_sin_nombre_3-99);}.cls-106{fill:url(#Degradado_sin_nombre_3-100);}.cls-107{fill:url(#Degradado_sin_nombre_3-101);}.cls-108{fill:url(#Degradado_sin_nombre_3-102);}.cls-109{fill:url(#Degradado_sin_nombre_3-103);}.cls-110{fill:url(#Degradado_sin_nombre_3-104);}.cls-111{fill:url(#Degradado_sin_nombre_3-105);}.cls-112{fill:url(#Degradado_sin_nombre_3-106);}.cls-113{fill:url(#Degradado_sin_nombre_3-107);}.cls-114{fill:url(#Degradado_sin_nombre_3-108);}.cls-115{fill:url(#Degradado_sin_nombre_3-109);}.cls-116{fill:url(#Degradado_sin_nombre_3-110);}.cls-117{fill:url(#Degradado_sin_nombre_3-111);}.cls-118{fill:url(#Degradado_sin_nombre_3-112);}.cls-119{fill:url(#Degradado_sin_nombre_3-113);}.cls-120{fill:url(#Degradado_sin_nombre_3-114);}.cls-121{fill:url(#Degradado_sin_nombre_3-115);}.cls-122{fill:url(#Degradado_sin_nombre_3-116);}.cls-123{fill:url(#Degradado_sin_nombre_3-117);}.cls-124{fill:url(#Degradado_sin_nombre_3-118);}.cls-125{fill:url(#Degradado_sin_nombre_3-119);}.cls-126{fill:url(#Degradado_sin_nombre_3-120);}.cls-127{fill:url(#Degradado_sin_nombre_3-121);}.cls-128{fill:url(#Degradado_sin_nombre_3-122);}.cls-129{fill:url(#Degradado_sin_nombre_3-123);}.cls-130{fill:url(#Degradado_sin_nombre_3-124);}.cls-131{fill:url(#Degradado_sin_nombre_3-125);}.cls-132{fill:url(#Degradado_sin_nombre_3-126);}.cls-133{fill:#fefefe;}.cls-134{fill:#5fff7d;}</style><clipPath id="clip-path"><rect class="cls-1" x="59.67" y="68.95" width="750.11" height="476.87" rx="75.13"/></clipPath><linearGradient id="Degradado_sin_nombre_3" x1="460.29" y1="227.92" x2="80.36" y2="404.6" gradientUnits="userSpaceOnUse"><stop offset="0" stop-color="#80fcb8"/><stop offset="0.41" stop-color="#4cfbac"/><stop offset="0.75" stop-color="#32f0aa"/><stop offset="0.81" stop-color="#35e5a6"/><stop offset="0.91" stop-color="#3ec99a"/><stop offset="1" stop-color="#48aa8d"/></linearGradient><linearGradient id="Degradado_sin_nombre_3-2" x1="1545.08" y1="-288.37" x2="100.54" y2="383.4" xlink:href="#Degradado_sin_nombre_3"/><linearGradient id="Degradado_sin_nombre_3-3" x1="1570.04" y1="-276.36" x2="125.5" y2="395.42" xlink:href="#Degradado_sin_nombre_3"/><linearGradient id="Degradado_sin_nombre_3-4" x1="631.46" y1="165.24" x2="86.6" y2="418.62" xlink:href="#Degradado_sin_nombre_3"/><linearGradient id="Degradado_sin_nombre_3-5" x1="1518.72" y1="-264.01" x2="74.19" y2="407.76" xlink:href="#Degradado_sin_nombre_3"/><linearGradient id="Degradado_sin_nombre_3-6" x1="1543.67" y1="-242.35" x2="99.14" y2="429.42" xlink:href="#Degradado_sin_nombre_3"/><linearGradient id="Degradado_sin_nombre_3-7" x1="1087.52" y1="-45.3" x2="68.06" y2="428.79" xlink:href="#Degradado_sin_nombre_3"/><linearGradient id="Degradado_sin_nombre_3-8" x1="1484.96" y1="-260.64" x2="40.42" y2="411.14" xlink:href="#Degradado_sin_nombre_3"/><linearGradient id="Degradado_sin_nombre_3-9" x1="1509.91" y1="-211.22" x2="65.38" y2="460.55" xlink:href="#Degradado_sin_nombre_3"/><linearGradient id="Degradado_sin_nombre_3-10" x1="918.1" y1="59.37" x2="79.48" y2="449.37" xlink:href="#Degradado_sin_nombre_3"/><linearGradient id="Degradado_sin_nombre_3-11" x1="1480.61" y1="-227.45" x2="36.07" y2="444.33" xlink:href="#Degradado_sin_nombre_3"/><linearGradient id="Degradado_sin_nombre_3-12" x1="1505.57" y1="-188.61" x2="61.03" y2="483.17" xlink:href="#Degradado_sin_nombre_3"/><linearGradient id="Degradado_sin_nombre_3-13" x1="642.53" y1="166.68" x2="97.67" y2="420.06" xlink:href="#Degradado_sin_nombre_3"/><linearGradient id="Degradado_sin_nombre_3-14" x1="1459.6" y1="-229.94" x2="15.07" y2="441.84" xlink:href="#Degradado_sin_nombre_3"/><linearGradient id="Degradado_sin_nombre_3-15" x1="1484.56" y1="-208.27" x2="40.03" y2="463.5" xlink:href="#Degradado_sin_nombre_3"/><linearGradient id="Degradado_sin_nombre_3-16" x1="862.29" y1="80.39" x2="66.41" y2="450.51" xlink:href="#Degradado_sin_nombre_3"/><linearGradient id="Degradado_sin_nombre_3-17" x1="1423.82" y1="-204.72" x2="-20.71" y2="467.06" xlink:href="#Degradado_sin_nombre_3"/><linearGradient id="Degradado_sin_nombre_3-18" x1="1448.78" y1="-168.38" x2="4.25" y2="503.39" xlink:href="#Degradado_sin_nombre_3"/><linearGradient id="Degradado_sin_nombre_3-19" x1="1019.4" y1="-18.71" x2="27.53" y2="442.55" xlink:href="#Degradado_sin_nombre_3"/><linearGradient id="Degradado_sin_nombre_3-20" x1="1391.89" y1="-221.64" x2="-52.64" y2="450.13" xlink:href="#Degradado_sin_nombre_3"/><linearGradient id="Degradado_sin_nombre_3-21" x1="1416.86" y1="-173.85" x2="-27.68" y2="497.93" xlink:href="#Degradado_sin_nombre_3"/><linearGradient id="Degradado_sin_nombre_3-22" x1="1183.27" y1="-97.77" x2="-16.54" y2="460.2" xlink:href="#Degradado_sin_nombre_3"/><linearGradient id="Degradado_sin_nombre_3-23" x1="1372.62" y1="-221.61" x2="-71.9" y2="450.17" xlink:href="#Degradado_sin_nombre_3"/><linearGradient id="Degradado_sin_nombre_3-24" x1="1397.59" y1="-161.65" x2="-46.95" y2="510.12" xlink:href="#Degradado_sin_nombre_3"/><linearGradient id="Degradado_sin_nombre_3-25" x1="550.4" y1="192.82" x2="121.03" y2="392.49" xlink:href="#Degradado_sin_nombre_3"/><linearGradient id="Degradado_sin_nombre_3-26" x1="1339.03" y1="-187.19" x2="-105.5" y2="484.58" xlink:href="#Degradado_sin_nombre_3"/><linearGradient id="Degradado_sin_nombre_3-27" x1="1363.99" y1="-172.28" x2="-80.55" y2="499.49" xlink:href="#Degradado_sin_nombre_3"/><linearGradient id="Degradado_sin_nombre_3-28" x1="722.8" y1="121.28" x2="76.07" y2="422.04" xlink:href="#Degradado_sin_nombre_3"/><linearGradient id="Degradado_sin_nombre_3-29" x1="1318.96" y1="-175.57" x2="-125.58" y2="496.21" xlink:href="#Degradado_sin_nombre_3"/><linearGradient id="Degradado_sin_nombre_3-30" x1="1343.92" y1="-147.95" x2="-100.62" y2="523.82" xlink:href="#Degradado_sin_nombre_3"/><linearGradient id="Degradado_sin_nombre_3-31" x1="1175.97" y1="-109.67" x2="-89.25" y2="478.72" xlink:href="#Degradado_sin_nombre_3"/><linearGradient id="Degradado_sin_nombre_3-32" x1="1295.11" y1="-202.77" x2="-149.42" y2="469.01" xlink:href="#Degradado_sin_nombre_3"/><linearGradient id="Degradado_sin_nombre_3-33" x1="1320.07" y1="-138.99" x2="-124.46" y2="532.79" xlink:href="#Degradado_sin_nombre_3"/><linearGradient id="Degradado_sin_nombre_3-34" x1="946.02" y1="35.25" x2="4.61" y2="473.05" xlink:href="#Degradado_sin_nombre_3"/><linearGradient id="Degradado_sin_nombre_3-35" x1="1297.44" y1="-156.4" x2="-147.1" y2="515.37" xlink:href="#Degradado_sin_nombre_3"/><linearGradient id="Degradado_sin_nombre_3-36" x1="1322.39" y1="-111.55" x2="-122.14" y2="560.22" xlink:href="#Degradado_sin_nombre_3"/><linearGradient id="Degradado_sin_nombre_3-37" x1="650.04" y1="166.5" x2="114.1" y2="415.74" xlink:href="#Degradado_sin_nombre_3"/><linearGradient id="Degradado_sin_nombre_3-38" x1="1259.82" y1="-133.45" x2="-184.71" y2="538.32" xlink:href="#Degradado_sin_nombre_3"/><linearGradient id="Degradado_sin_nombre_3-39" x1="1284.78" y1="-112.31" x2="-159.75" y2="559.46" xlink:href="#Degradado_sin_nombre_3"/><linearGradient id="Degradado_sin_nombre_3-40" x1="650.52" y1="156.01" x2="110.04" y2="407.36" xlink:href="#Degradado_sin_nombre_3"/><linearGradient id="Degradado_sin_nombre_3-41" x1="1222.92" y1="-126.69" x2="-221.62" y2="545.09" xlink:href="#Degradado_sin_nombre_3"/><linearGradient id="Degradado_sin_nombre_3-42" x1="1247.88" y1="-105.29" x2="-196.66" y2="566.49" xlink:href="#Degradado_sin_nombre_3"/><linearGradient id="Degradado_sin_nombre_3-43" x1="915.04" y1="15.59" x2="-63.42" y2="470.62" xlink:href="#Degradado_sin_nombre_3"/><linearGradient id="Degradado_sin_nombre_3-44" x1="1186.62" y1="-140.02" x2="-257.92" y2="531.76" xlink:href="#Degradado_sin_nombre_3"/><linearGradient id="Degradado_sin_nombre_3-45" x1="1211.57" y1="-93" x2="-232.96" y2="578.77" xlink:href="#Degradado_sin_nombre_3"/><linearGradient id="Degradado_sin_nombre_3-46" x1="770.76" y1="72.99" x2="22.27" y2="421.08" xlink:href="#Degradado_sin_nombre_3"/><linearGradient id="Degradado_sin_nombre_3-47" x1="1162.05" y1="-131.56" x2="-282.48" y2="540.21" xlink:href="#Degradado_sin_nombre_3"/><linearGradient id="Degradado_sin_nombre_3-48" x1="1187.01" y1="-97.99" x2="-257.53" y2="573.78" xlink:href="#Degradado_sin_nombre_3"/><linearGradient id="Degradado_sin_nombre_3-49" x1="607.53" y1="169.08" x2="163.22" y2="375.7" xlink:href="#Degradado_sin_nombre_3"/><linearGradient id="Degradado_sin_nombre_3-50" x1="1164.85" y1="-103.79" x2="-279.69" y2="567.98" xlink:href="#Degradado_sin_nombre_3"/><linearGradient id="Degradado_sin_nombre_3-51" x1="1189.8" y1="-88.01" x2="-254.73" y2="583.76" xlink:href="#Degradado_sin_nombre_3"/><linearGradient id="Degradado_sin_nombre_3-52" x1="628.39" y1="186.01" x2="169.03" y2="399.63" xlink:href="#Degradado_sin_nombre_3"/><linearGradient id="Degradado_sin_nombre_3-53" x1="1165.19" y1="-77.76" x2="-279.35" y2="594.01" xlink:href="#Degradado_sin_nombre_3"/><linearGradient id="Degradado_sin_nombre_3-54" x1="1190.14" y1="-61.1" x2="-254.39" y2="610.67" xlink:href="#Degradado_sin_nombre_3"/><linearGradient id="Degradado_sin_nombre_3-55" x1="649.09" y1="164.68" x2="153.37" y2="395.21" xlink:href="#Degradado_sin_nombre_3"/><linearGradient id="Degradado_sin_nombre_3-56" x1="1132.26" y1="-75.21" x2="-312.27" y2="596.56" xlink:href="#Degradado_sin_nombre_3"/><linearGradient id="Degradado_sin_nombre_3-57" x1="1157.22" y1="-56.42" x2="-287.32" y2="615.35" xlink:href="#Degradado_sin_nombre_3"/><linearGradient id="Degradado_sin_nombre_3-58" x1="953.86" y1="35.12" x2="-123.24" y2="536.02" xlink:href="#Degradado_sin_nombre_3"/><linearGradient id="Degradado_sin_nombre_3-59" x1="1127.6" y1="-77.87" x2="-316.94" y2="593.9" xlink:href="#Degradado_sin_nombre_3"/><linearGradient id="Degradado_sin_nombre_3-60" x1="1152.56" y1="-25.09" x2="-291.98" y2="646.69" xlink:href="#Degradado_sin_nombre_3"/><linearGradient id="Degradado_sin_nombre_3-61" x1="637.19" y1="181.48" x2="191.98" y2="388.52" xlink:href="#Degradado_sin_nombre_3"/><linearGradient id="Degradado_sin_nombre_3-62" x1="1099.08" y1="-47.04" x2="-345.45" y2="624.73" xlink:href="#Degradado_sin_nombre_3"/><linearGradient id="Degradado_sin_nombre_3-63" x1="1124.04" y1="-31.21" x2="-320.49" y2="640.57" xlink:href="#Degradado_sin_nombre_3"/><linearGradient id="Degradado_sin_nombre_3-64" x1="1155.84" y1="3.54" x2="-373.16" y2="714.6" xlink:href="#Degradado_sin_nombre_3"/><linearGradient id="Degradado_sin_nombre_3-65" x1="1104.02" y1="-17.77" x2="-340.52" y2="654.01" xlink:href="#Degradado_sin_nombre_3"/><linearGradient id="Degradado_sin_nombre_3-66" x1="1128.97" y1="61.44" x2="-315.56" y2="733.21" xlink:href="#Degradado_sin_nombre_3"/><linearGradient id="Degradado_sin_nombre_3-67" x1="675.05" y1="228.56" x2="208.25" y2="445.65" xlink:href="#Degradado_sin_nombre_3"/><linearGradient id="Degradado_sin_nombre_3-68" x1="1109.73" y1="12.06" x2="-334.8" y2="683.84" xlink:href="#Degradado_sin_nombre_3"/><linearGradient id="Degradado_sin_nombre_3-69" x1="1134.69" y1="29.16" x2="-309.84" y2="700.93" xlink:href="#Degradado_sin_nombre_3"/><linearGradient id="Degradado_sin_nombre_3-70" x1="917.03" y1="112.19" x2="-98.94" y2="584.66" xlink:href="#Degradado_sin_nombre_3"/><linearGradient id="Degradado_sin_nombre_3-71" x1="1089.15" y1="1.74" x2="-355.39" y2="673.51" xlink:href="#Degradado_sin_nombre_3"/><linearGradient id="Degradado_sin_nombre_3-72" x1="1114.1" y1="50.94" x2="-330.43" y2="722.72" xlink:href="#Degradado_sin_nombre_3"/><linearGradient id="Degradado_sin_nombre_3-73" x1="838.65" y1="134.34" x2="-31.86" y2="539.16" xlink:href="#Degradado_sin_nombre_3"/><linearGradient id="Degradado_sin_nombre_3-74" x1="1051.27" y1="9.3" x2="-393.26" y2="681.08" xlink:href="#Degradado_sin_nombre_3"/><linearGradient id="Degradado_sin_nombre_3-75" x1="1076.23" y1="50" x2="-368.31" y2="721.78" xlink:href="#Degradado_sin_nombre_3"/><linearGradient id="Degradado_sin_nombre_3-76" x1="681.29" y1="191.41" x2="212.21" y2="409.55" xlink:href="#Degradado_sin_nombre_3"/><linearGradient id="Degradado_sin_nombre_3-77" x1="1014.34" y1="22.11" x2="-430.2" y2="693.88" xlink:href="#Degradado_sin_nombre_3"/><linearGradient id="Degradado_sin_nombre_3-78" x1="1039.29" y1="39.34" x2="-405.24" y2="711.11" xlink:href="#Degradado_sin_nombre_3"/><linearGradient id="Degradado_sin_nombre_3-79" x1="911.16" y1="98.3" x2="-261.07" y2="643.44" xlink:href="#Degradado_sin_nombre_3"/><linearGradient id="Degradado_sin_nombre_3-80" x1="986.53" y1="28.27" x2="-458" y2="700.05" xlink:href="#Degradado_sin_nombre_3"/><linearGradient id="Degradado_sin_nombre_3-81" x1="1011.49" y1="86.61" x2="-433.05" y2="758.39" xlink:href="#Degradado_sin_nombre_3"/><linearGradient id="Degradado_sin_nombre_3-82" x1="1053.7" y1="18.77" x2="-553.62" y2="766.24" xlink:href="#Degradado_sin_nombre_3"/><linearGradient id="Degradado_sin_nombre_3-83" x1="990.29" y1="0.56" x2="-454.24" y2="672.33" xlink:href="#Degradado_sin_nombre_3"/><linearGradient id="Degradado_sin_nombre_3-84" x1="1015.25" y1="84.34" x2="-429.29" y2="756.12" xlink:href="#Degradado_sin_nombre_3"/><linearGradient id="Degradado_sin_nombre_3-85" x1="848.26" y1="154.89" x2="-90.72" y2="591.56" xlink:href="#Degradado_sin_nombre_3"/><linearGradient id="Degradado_sin_nombre_3-86" x1="986.34" y1="62.52" x2="-458.2" y2="734.3" xlink:href="#Degradado_sin_nombre_3"/><linearGradient id="Degradado_sin_nombre_3-87" x1="1011.3" y1="107.23" x2="-433.24" y2="779" xlink:href="#Degradado_sin_nombre_3"/><linearGradient id="Degradado_sin_nombre_3-88" x1="710.71" y1="216.64" x2="234.61" y2="438.05" xlink:href="#Degradado_sin_nombre_3"/><linearGradient id="Degradado_sin_nombre_3-89" x1="950.76" y1="90.38" x2="-493.77" y2="762.16" xlink:href="#Degradado_sin_nombre_3"/><linearGradient id="Degradado_sin_nombre_3-90" x1="975.72" y1="108.02" x2="-468.81" y2="779.8" xlink:href="#Degradado_sin_nombre_3"/><linearGradient id="Degradado_sin_nombre_3-91" x1="699.75" y1="223.63" x2="272.96" y2="422.11" xlink:href="#Degradado_sin_nombre_3"/><linearGradient id="Degradado_sin_nombre_3-92" x1="913.57" y1="111.02" x2="-530.97" y2="782.79" xlink:href="#Degradado_sin_nombre_3"/><linearGradient id="Degradado_sin_nombre_3-93" x1="938.53" y1="125.77" x2="-506.01" y2="797.55" xlink:href="#Degradado_sin_nombre_3"/><linearGradient id="Degradado_sin_nombre_3-94" x1="817.48" y1="135.43" x2="-229.97" y2="622.54" xlink:href="#Degradado_sin_nombre_3"/><linearGradient id="Degradado_sin_nombre_3-95" x1="879" y1="75.49" x2="-565.54" y2="747.27" xlink:href="#Degradado_sin_nombre_3"/><linearGradient id="Degradado_sin_nombre_3-96" x1="903.96" y1="126.54" x2="-540.58" y2="798.32" xlink:href="#Degradado_sin_nombre_3"/><linearGradient id="Degradado_sin_nombre_3-97" x1="778.82" y1="192.65" x2="-26.17" y2="567.01" xlink:href="#Degradado_sin_nombre_3"/><linearGradient id="Degradado_sin_nombre_3-98" x1="876.53" y1="122.97" x2="-568" y2="794.75" xlink:href="#Degradado_sin_nombre_3"/><linearGradient id="Degradado_sin_nombre_3-99" x1="901.49" y1="159.84" x2="-543.05" y2="831.62" xlink:href="#Degradado_sin_nombre_3"/><linearGradient id="Degradado_sin_nombre_3-100" x1="841.05" y1="186.22" x2="-371.79" y2="750.25" xlink:href="#Degradado_sin_nombre_3"/><linearGradient id="Degradado_sin_nombre_3-101" x1="863.55" y1="139.6" x2="-580.99" y2="811.38" xlink:href="#Degradado_sin_nombre_3"/><linearGradient id="Degradado_sin_nombre_3-102" x1="888.5" y1="200.32" x2="-556.03" y2="872.1" xlink:href="#Degradado_sin_nombre_3"/><linearGradient id="Degradado_sin_nombre_3-103" x1="730.05" y1="235.43" x2="306.06" y2="432.6" xlink:href="#Degradado_sin_nombre_3"/><linearGradient id="Degradado_sin_nombre_3-104" x1="848.02" y1="167.46" x2="-596.51" y2="839.24" xlink:href="#Degradado_sin_nombre_3"/><linearGradient id="Degradado_sin_nombre_3-105" x1="872.98" y1="182.06" x2="-571.55" y2="853.83" xlink:href="#Degradado_sin_nombre_3"/><linearGradient id="Degradado_sin_nombre_3-106" x1="778.75" y1="179.05" x2="-172.6" y2="621.47" xlink:href="#Degradado_sin_nombre_3"/><linearGradient id="Degradado_sin_nombre_3-107" x1="810.35" y1="135.83" x2="-634.18" y2="807.61" xlink:href="#Degradado_sin_nombre_3"/><linearGradient id="Degradado_sin_nombre_3-108" x1="835.31" y1="181.26" x2="-609.22" y2="853.03" xlink:href="#Degradado_sin_nombre_3"/><linearGradient id="Degradado_sin_nombre_3-109" x1="737.64" y1="214.43" x2="318.35" y2="409.42" xlink:href="#Degradado_sin_nombre_3"/><linearGradient id="Degradado_sin_nombre_3-110" x1="788.93" y1="177.62" x2="-655.6" y2="849.39" xlink:href="#Degradado_sin_nombre_3"/><linearGradient id="Degradado_sin_nombre_3-111" x1="813.89" y1="191.93" x2="-630.64" y2="863.71" xlink:href="#Degradado_sin_nombre_3"/><linearGradient id="Degradado_sin_nombre_3-112" x1="769.85" y1="226.51" x2="-438.58" y2="788.48" xlink:href="#Degradado_sin_nombre_3"/><linearGradient id="Degradado_sin_nombre_3-113" x1="765.27" y1="192.61" x2="-679.27" y2="864.38" xlink:href="#Degradado_sin_nombre_3"/><linearGradient id="Degradado_sin_nombre_3-114" x1="790.23" y1="253.07" x2="-654.31" y2="924.84" xlink:href="#Degradado_sin_nombre_3"/><linearGradient id="Degradado_sin_nombre_3-115" x1="746.27" y1="204" x2="231.71" y2="443.29" xlink:href="#Degradado_sin_nombre_3"/><linearGradient id="Degradado_sin_nombre_3-116" x1="731.98" y1="194.9" x2="-712.56" y2="866.68" xlink:href="#Degradado_sin_nombre_3"/><linearGradient id="Degradado_sin_nombre_3-117" x1="756.93" y1="214.79" x2="-687.6" y2="886.56" xlink:href="#Degradado_sin_nombre_3"/><linearGradient id="Degradado_sin_nombre_3-118" x1="752.96" y1="195.56" x2="356.12" y2="380.1" xlink:href="#Degradado_sin_nombre_3"/><linearGradient id="Degradado_sin_nombre_3-119" x1="708.33" y1="204" x2="-736.2" y2="875.78" xlink:href="#Degradado_sin_nombre_3"/><linearGradient id="Degradado_sin_nombre_3-120" x1="733.29" y1="217.01" x2="-711.25" y2="888.79" xlink:href="#Degradado_sin_nombre_3"/><linearGradient id="Degradado_sin_nombre_3-121" x1="713.11" y1="193.64" x2="-312.06" y2="670.39" xlink:href="#Degradado_sin_nombre_3"/><linearGradient id="Degradado_sin_nombre_3-122" x1="672.05" y1="182.06" x2="-772.48" y2="853.83" xlink:href="#Degradado_sin_nombre_3"/><linearGradient id="Degradado_sin_nombre_3-123" x1="697.01" y1="231.8" x2="-747.53" y2="903.58" xlink:href="#Degradado_sin_nombre_3"/><linearGradient id="Degradado_sin_nombre_3-124" x1="751.37" y1="171.31" x2="267.19" y2="396.48" xlink:href="#Degradado_sin_nombre_3"/><linearGradient id="Degradado_sin_nombre_3-125" x1="640.76" y1="207.89" x2="-803.78" y2="879.67" xlink:href="#Degradado_sin_nombre_3"/><linearGradient id="Degradado_sin_nombre_3-126" x1="665.72" y1="226.01" x2="-778.82" y2="897.78" xlink:href="#Degradado_sin_nombre_3"/></defs><rect class="cls-2" x="10.9" y="16.74" width="750.11" height="476.87" rx="75.13" transform="translate(-11.14 17.71) rotate(-2.59)"/><rect class="cls-3" x="59.67" y="68.95" width="750.11" height="476.87" rx="75.13"/><g class="cls-4"><g id="Grantt_Diagram" data-name="Grantt Diagram"><rect class="cls-5" x="65.33" y="308.97" width="6.77" height="13.05"/><rect class="cls-5" x="68.21" y="293.01" width="1" height="15.96"/><rect class="cls-5" x="68.21" y="322.02" width="1" height="15.96"/><rect class="cls-5" x="83.18" y="310.29" width="6.77" height="33.71"/><rect class="cls-5" x="86.06" y="294.34" width="1" height="15.96"/><rect class="cls-5" x="86.06" y="344" width="1" height="15.96"/><rect class="cls-5" x="102.15" y="306.38" width="6.77" height="9.78"/><rect class="cls-5" x="105.03" y="290.42" width="1" height="15.96"/><rect class="cls-5" x="105.03" y="316.15" width="1" height="15.96"/><rect class="cls-5" x="118.9" y="320.2" width="6.77" height="43.99"/><rect class="cls-5" x="121.78" y="304.24" width="1" height="15.96"/><rect class="cls-5" x="121.78" y="364.19" width="1" height="15.96"/><rect class="cls-5" x="136.75" y="337.98" width="6.77" height="16.47"/><rect class="cls-5" x="139.64" y="322.02" width="1" height="15.96"/><rect class="cls-5" x="139.64" y="354.45" width="1" height="15.96"/><rect class="cls-5" x="155.47" y="318.2" width="6.77" height="31.25"/><rect class="cls-5" x="158.35" y="302.24" width="1" height="15.96"/><rect class="cls-5" x="158.35" y="349.45" width="1" height="15.96"/><rect class="cls-5" x="172.47" y="269.36" width="6.77" height="39.22"/><rect class="cls-5" x="175.35" y="253.4" width="1" height="15.96"/><rect class="cls-5" x="175.35" y="308.58" width="1" height="15.96"/><rect class="cls-5" x="190.33" y="283.1" width="6.77" height="9.75"/><rect class="cls-5" x="193.21" y="267.14" width="1" height="15.96"/><rect class="cls-5" x="193.21" y="292.85" width="1" height="15.96"/><rect class="cls-5" x="208.18" y="267.14" width="6.77" height="39.33"/><rect class="cls-5" x="211.06" y="251.19" width="1" height="15.96"/><rect class="cls-5" x="211.06" y="306.47" width="1" height="15.96"/><rect class="cls-5" x="226.04" y="262.23" width="6.77" height="36.26"/><rect class="cls-5" x="228.92" y="246.27" width="1" height="15.96"/><rect class="cls-5" x="228.92" y="298.49" width="1" height="15.96"/><rect class="cls-5" x="243.9" y="242.13" width="6.77" height="10.07"/><rect class="cls-5" x="246.78" y="226.17" width="1" height="15.96"/><rect class="cls-5" x="246.78" y="252.2" width="1" height="15.96"/><rect class="cls-5" x="261.75" y="293.48" width="6.77" height="23.27"/><rect class="cls-5" x="264.64" y="277.53" width="1" height="15.96"/><rect class="cls-5" x="264.64" y="316.75" width="1" height="15.96"/><rect class="cls-5" x="279.61" y="284.95" width="6.77" height="9.38"/><rect class="cls-5" x="282.49" y="269" width="1" height="15.96"/><rect class="cls-5" x="282.49" y="294.34" width="1" height="15.96"/><rect class="cls-5" x="297.47" y="354.26" width="6.77" height="34.74"/><rect class="cls-5" x="300.35" y="338.3" width="1" height="15.96"/><rect class="cls-5" x="300.35" y="389" width="1" height="15.96"/><rect class="cls-5" x="315.33" y="350.17" width="6.77" height="7.73"/><rect class="cls-5" x="318.21" y="334.22" width="1" height="15.96"/><rect class="cls-5" x="318.21" y="357.9" width="1" height="15.96"/><rect class="cls-5" x="333.18" y="331.24" width="6.77" height="11.99"/><rect class="cls-5" x="336.06" y="315.28" width="1" height="15.96"/><rect class="cls-5" x="336.06" y="343.23" width="1" height="15.96"/><rect class="cls-5" x="351.04" y="347.17" width="6.77" height="12.02"/><rect class="cls-5" x="353.92" y="331.21" width="1" height="15.96"/><rect class="cls-5" x="353.92" y="359.19" width="1" height="15.96"/><rect class="cls-5" x="368.79" y="349.77" width="6.77" height="34.74"/><rect class="cls-5" x="371.68" y="333.82" width="1" height="15.96"/><rect class="cls-5" x="371.68" y="384.51" width="1" height="15.96"/><rect class="cls-5" x="386.75" y="381.7" width="6.77" height="15.29"/><rect class="cls-5" x="389.64" y="365.74" width="1" height="15.96"/><rect class="cls-5" x="389.64" y="396.99" width="1" height="15.96"/><rect class="cls-5" x="404.61" y="400.6" width="6.77" height="13.11"/><rect class="cls-5" x="407.49" y="384.65" width="1" height="15.96"/><rect class="cls-5" x="407.49" y="413.71" width="1" height="15.96"/><rect class="cls-5" x="422.47" y="380.03" width="6.77" height="57.84"/><rect class="cls-5" x="425.35" y="364.07" width="1" height="15.96"/><rect class="cls-5" x="425.35" y="437.87" width="1" height="15.96"/><rect class="cls-5" x="440.69" y="422.78" width="6.77" height="23.27"/><rect class="cls-5" x="443.57" y="406.82" width="1" height="15.96"/><rect class="cls-5" x="443.57" y="446.05" width="1" height="15.96"/><rect class="cls-5" x="458.18" y="390.8" width="6.77" height="34.39"/><rect class="cls-5" x="461.06" y="374.85" width="1" height="15.96"/><rect class="cls-5" x="461.06" y="425.19" width="1" height="15.96"/><rect class="cls-5" x="476.04" y="378.32" width="6.77" height="44.06"/><rect class="cls-5" x="478.92" y="362.36" width="1" height="15.96"/><rect class="cls-5" x="478.92" y="422.38" width="1" height="15.96"/><rect class="cls-5" x="493.99" y="371.78" width="6.77" height="12.41"/><rect class="cls-5" x="496.87" y="355.82" width="1" height="15.96"/><rect class="cls-5" x="496.87" y="384.19" width="1" height="15.96"/><rect class="cls-5" x="511.75" y="368.46" width="6.77" height="38.25"/><rect class="cls-5" x="514.64" y="352.5" width="1" height="15.96"/><rect class="cls-5" x="514.64" y="406.71" width="1" height="15.96"/><rect class="cls-5" x="529.61" y="338.81" width="6.77" height="37.24"/><rect class="cls-5" x="532.49" y="322.85" width="1" height="15.96"/><rect class="cls-5" x="532.49" y="376.05" width="1" height="15.96"/><rect class="cls-5" x="547.47" y="364.9" width="6.77" height="12.98"/><rect class="cls-5" x="550.35" y="348.94" width="1" height="15.96"/><rect class="cls-5" x="550.35" y="377.87" width="1" height="15.96"/><rect class="cls-5" x="565.33" y="377.29" width="6.77" height="11.07"/><rect class="cls-5" x="568.21" y="361.33" width="1" height="15.96"/><rect class="cls-5" x="568.21" y="388.36" width="1" height="15.96"/><rect class="cls-5" x="583.18" y="335.68" width="6.77" height="55.51"/><rect class="cls-5" x="586.06" y="319.73" width="1" height="15.96"/><rect class="cls-5" x="586.06" y="391.19" width="1" height="15.96"/><rect class="cls-5" x="601.56" y="363.57" width="6.77" height="9.76"/><rect class="cls-5" x="604.45" y="347.62" width="1" height="15.96"/><rect class="cls-5" x="604.45" y="373.33" width="1" height="15.96"/><rect class="cls-5" x="618.95" y="349.44" width="6.77" height="9.77"/><rect class="cls-5" x="621.83" y="333.48" width="1" height="15.96"/><rect class="cls-5" x="621.83" y="359.21" width="1" height="15.96"/><rect class="cls-5" x="636.75" y="312.22" width="6.77" height="59.4"/><rect class="cls-5" x="639.64" y="296.27" width="1" height="15.96"/><rect class="cls-5" x="639.64" y="371.63" width="1" height="15.96"/><rect class="cls-5" x="654.61" y="339.55" width="6.77" height="15.74"/><rect class="cls-5" x="657.49" y="323.59" width="1" height="15.96"/><rect class="cls-5" x="657.49" y="355.29" width="1" height="15.96"/><rect class="cls-5" x="672.47" y="359.35" width="6.77" height="17.86"/><rect class="cls-5" x="675.35" y="343.39" width="1" height="15.96"/><rect class="cls-5" x="675.35" y="377.21" width="1" height="15.96"/><rect class="cls-5" x="690.36" y="353.17" width="6.77" height="51.88"/><rect class="cls-5" x="693.24" y="337.21" width="1" height="15.96"/><rect class="cls-5" x="693.24" y="405.05" width="1" height="15.96"/><rect class="cls-5" x="708.18" y="318.06" width="6.77" height="12.76"/><rect class="cls-5" x="711.06" y="302.11" width="1" height="15.96"/><rect class="cls-5" x="711.06" y="330.82" width="1" height="15.96"/><rect class="cls-5" x="726.04" y="305.48" width="6.77" height="25.65"/><rect class="cls-5" x="728.92" y="289.52" width="1" height="15.96"/><rect class="cls-5" x="728.92" y="331.13" width="1" height="15.96"/><rect class="cls-5" x="743.9" y="291.35" width="6.77" height="12.04"/><rect class="cls-5" x="746.78" y="275.4" width="1" height="15.96"/><rect class="cls-5" x="746.78" y="303.39" width="1" height="15.96"/><rect class="cls-5" x="761.75" y="295.68" width="6.77" height="13.38"/><rect class="cls-5" x="764.64" y="279.73" width="1" height="15.96"/><rect class="cls-5" x="764.64" y="309.06" width="1" height="15.96"/><rect class="cls-5" x="779.61" y="247.71" width="6.77" height="48.28"/><rect class="cls-5" x="782.49" y="231.75" width="1" height="15.96"/><rect class="cls-5" x="782.49" y="295.99" width="1" height="15.96"/><rect class="cls-5" x="797.47" y="272.72" width="6.77" height="46.32"/><rect class="cls-5" x="800.35" y="256.76" width="1" height="15.96"/><rect class="cls-5" x="800.35" y="319.04" width="1" height="15.96"/></g><g id="Line_Histogram" data-name="Line Histogram"><path class="cls-6" d="M183.09,450.37c-.68,0-1.36,0-2-.05l0-1c1,.05,2,.07,3,0l0,1Zm4-.21-.1-1c1-.1,1.95-.25,2.9-.43l.19,1C189.11,449.9,188.1,450.05,187.1,450.16Zm-9.06-.09c-1-.12-2-.28-3-.47l.19-1c.95.19,1.94.34,2.92.46ZM193,449l-.27-1c.94-.26,1.88-.57,2.8-.9l.35.94C195,448.44,194,448.75,193,449Zm-20.93-.1c-1-.26-1.94-.56-2.89-.88l.33-1c.92.32,1.87.61,2.82.87Zm-5.71-2q-1.39-.58-2.76-1.26l.45-.9c.88.44,1.79.86,2.69,1.24Zm32.31,0-.41-.91c.88-.41,1.77-.85,2.64-1.32l.48.88C200.52,446.08,199.61,446.53,198.7,447ZM161,444.28c-.86-.49-1.73-1-2.58-1.57l.54-.84c.84.54,1.69,1.06,2.53,1.54Zm43-.22-.53-.84c.82-.52,1.64-1.08,2.45-1.66l.59.81C205.69,443,204.85,443.53,204,444.06ZM155.89,441c-.81-.58-1.62-1.19-2.41-1.82l.62-.78c.78.61,1.57,1.21,2.37,1.79Zm53-.48-.62-.78c.74-.6,1.5-1.25,2.26-1.92l.66.74C210.45,439.26,209.67,439.92,208.91,440.53Zm-57.76-3.25c-.76-.65-1.51-1.32-2.26-2l.68-.73c.73.68,1.48,1.34,2.23,2Zm62.27-.77-.7-.72c.7-.69,1.39-1.4,2.08-2.13l.73.69C214.83,435.09,214.13,435.81,213.42,436.51Zm-66.71-3.32c-.71-.7-1.42-1.42-2.11-2.15l.72-.69c.69.72,1.39,1.43,2.09,2.13Zm70.84-1.08-.75-.66c.64-.74,1.29-1.5,1.92-2.28l.78.64C218.85,430.59,218.21,431.36,217.55,432.11Zm-75-3.28c-.67-.74-1.34-1.49-2-2.26l.76-.65c.66.76,1.32,1.51,2,2.24Zm78.82-1.39-.8-.61c.6-.78,1.2-1.58,1.79-2.39l.81.58C222.57,425.85,222,426.65,221.37,427.44Zm-82.75-3.18q-1-1.15-1.89-2.34l.78-.62c.62.78,1.25,1.56,1.88,2.33Zm86.28-1.7-.82-.56c.56-.82,1.11-1.65,1.67-2.49l.83.55C226,420.91,225.47,421.74,224.9,422.56Zm-90-3-1.8-2.41.81-.59c.59.8,1.19,1.6,1.79,2.39Zm93.33-2-.85-.53q.78-1.26,1.56-2.55l.86.51C229.26,415.82,228.73,416.68,228.21,417.52Zm-96.89-2.83c-.59-.81-1.16-1.63-1.74-2.46l.82-.57c.58.82,1.15,1.64,1.73,2.45Zm100-2.33-.87-.5,1.48-2.6.87.48C232.3,410.62,231.8,411.5,231.31,412.36Zm-103.43-2.61q-.84-1.23-1.68-2.49l.83-.56c.56.84,1.11,1.67,1.67,2.49Zm106.35-2.65-.88-.47c.47-.87.94-1.76,1.4-2.65l.89.46C235.17,405.34,234.71,406.22,234.23,407.1Zm-109.69-2.35-1.63-2.52.84-.55c.54.85,1.09,1.69,1.63,2.52Zm112.47-3-.89-.46c.45-.88.89-1.78,1.33-2.68l.9.44C237.91,400,237.46,400.88,237,401.77Zm-115.72-2.08-1.6-2.54.84-.53,1.61,2.54Zm118.37-3.32-.9-.44c.43-.89.86-1.79,1.28-2.71l.91.43ZM118.09,394.6l-1.59-2.55.85-.53,1.59,2.55Zm124.12-3.68-.91-.42q.62-1.35,1.23-2.73l.91.41Zm-127.29-1.43L113.34,387l.85-.53,1.58,2.55Zm129.73-4.06-.91-.4,1.19-2.76.92.4Zm-132.89-1-1.58-2.54.85-.53,1.58,2.55ZM247,379.9l-.92-.39c.39-.92.77-1.84,1.15-2.77l.93.39C247.79,378.06,247.41,379,247,379.9Zm-138.43-.6c-.54-.85-1.07-1.7-1.61-2.54l.85-.53,1.6,2.54ZM495.28,376l-1.91,0,0-1c1,0,2,0,3,0l0,1Zm4.12-.15-.07-1c1-.07,2-.17,2.94-.3l.13,1C501.42,375.63,500.41,375.74,499.4,375.81Zm-9,0c-1-.07-2-.18-3-.3l.12-1c1,.13,2,.23,3,.31Zm15-.75-.18-1c1-.18,1.94-.4,2.88-.64l.25,1C507.35,374.61,506.36,374.83,505.37,375Zm-21,0c-1-.18-2-.38-2.95-.61l.23-1c1,.23,1.94.43,2.9.61Zm-235-.65-.92-.38c.37-.92.75-1.85,1.12-2.78l.93.37Zm-143.95-.12-1.63-2.51.84-.55,1.63,2.52Zm373.12-.62c-1-.28-1.93-.59-2.87-.92l.33-.94c.93.32,1.87.63,2.82.9Zm32.73-.07-.31-1c.94-.3,1.88-.62,2.79-1l.36.94C513.13,372.91,512.17,373.24,511.22,373.54Zm-38.42-1.93c-.92-.38-1.85-.79-2.75-1.22l.43-.9c.88.42,1.79.82,2.71,1.2Zm44.05-.23-.41-.91c.89-.4,1.79-.84,2.66-1.29l.46.89C518.67,370.53,517.76,371,516.85,371.38Zm-414.76-2.16q-.84-1.26-1.68-2.49l.82-.56c.57.82,1.13,1.65,1.69,2.49Zm365.26-.2c-.87-.47-1.75-1-2.62-1.49l.52-.86c.85.52,1.72,1,2.58,1.47Zm-215.79-.25-.93-.37c.37-.92.74-1.85,1.1-2.79l.93.37C252.3,366.91,251.93,367.84,251.56,368.77Zm270.64-.17-.51-.86c.84-.5,1.69-1,2.51-1.58l.56.83C523.92,367.55,523.06,368.09,522.2,368.6Zm-60-2.69c-.83-.55-1.66-1.14-2.47-1.74l.59-.8c.81.59,1.62,1.16,2.44,1.71Zm65-.65-.6-.8c.79-.58,1.58-1.19,2.35-1.82l.63.78C528.83,364.06,528,364.68,527.23,365.26Zm-428.53-1c-.58-.82-1.15-1.64-1.74-2.44l.81-.59c.59.81,1.17,1.63,1.75,2.45Zm155.05-1.09-.93-.36,1.08-2.8.93.35C254.48,361.31,254.12,362.25,253.75,363.18Zm203.58-.85c-.78-.62-1.55-1.27-2.31-1.93l.66-.76c.75.66,1.51,1.29,2.28,1.91Zm74.59-.86-.67-.75c.74-.65,1.47-1.33,2.19-2l.69.72C533.4,360.12,532.66,360.81,531.92,361.47ZM95.19,359.42q-.91-1.2-1.83-2.37l.79-.62c.61.78,1.22,1.58,1.83,2.39Zm357.59-1.05q-1.08-1-2.16-2.1l.71-.7c.71.71,1.42,1.4,2.14,2.08Zm-196.87-.8-.94-.36,1.06-2.8.94.35Zm280.36-.28-.72-.69c.69-.71,1.36-1.44,2-2.18l.75.67C537.65,355.84,537,356.58,536.27,357.29ZM91.49,354.72c-.64-.78-1.28-1.54-1.93-2.28l.75-.66c.65.75,1.3,1.52,2,2.3Zm357.05-.62c-.68-.73-1.36-1.48-2-2.24l.75-.65c.66.75,1.33,1.49,2,2.21Zm91.77-1.28-.76-.65c.63-.75,1.26-1.52,1.89-2.3l.78.62C541.59,351.28,541,352.06,540.31,352.82ZM258,352l-.94-.35,1-2.8.94.35ZM87.56,350.22c-.68-.74-1.37-1.46-2.06-2.15l.7-.71c.71.7,1.4,1.43,2.1,2.18Zm357-.65c-.63-.77-1.26-1.55-1.89-2.35l.79-.61c.62.78,1.24,1.56,1.87,2.32Zm99.5-1.47-.8-.6c.59-.79,1.18-1.59,1.76-2.41l.82.58C545.25,346.49,544.66,347.31,544.06,348.1Zm-283.95-1.76-.93-.35,1-2.81.93.35ZM83.35,346c-.75-.69-1.5-1.35-2.24-2l.64-.77c.75.63,1.51,1.3,2.28,2Zm357.49-1.17c-.59-.8-1.19-1.61-1.77-2.43l.81-.58c.58.82,1.17,1.62,1.76,2.41Zm106.71-1.64-.83-.56q.84-1.23,1.65-2.49l.84.54C548.66,341.53,548.11,342.37,547.55,343.19Zm-468.77-1c-.81-.6-1.63-1.17-2.44-1.69l.55-.84c.82.53,1.66,1.11,2.48,1.72Zm183.41-1.5-.94-.35,1-2.82.94.35Zm175.15-.78c-.56-.82-1.12-1.66-1.67-2.5l.84-.55c.54.84,1.1,1.67,1.66,2.49ZM73.8,339c-.88-.48-1.77-.91-2.64-1.3l.4-.91c.9.39,1.82.84,2.72,1.33Zm477-.88-.85-.53c.52-.84,1-1.69,1.54-2.56l.86.51C551.85,336.42,551.33,337.28,550.81,338.13Zm-482.4-1.47c-.94-.3-1.89-.56-2.83-.77l.21-1c1,.22,2,.48,2.93.8Zm-5.71-1.24a28.55,28.55,0,0,0-2.92-.15v-1a27.82,27.82,0,0,1,3,.16Zm201.56-.36-.94-.35,1-2.83.94.35ZM434,334.9q-.8-1.26-1.59-2.55l.86-.53c.52.86,1.05,1.71,1.58,2.55Zm119.83-2-.87-.49c.48-.86,1-1.74,1.45-2.62l.87.48C554.84,331.2,554.36,332.07,553.87,332.94Zm-123-3.18c-.51-.86-1-1.72-1.51-2.6l.86-.49c.5.87,1,1.73,1.51,2.59Zm-164.58-.35-.94-.35,1-2.82.94.35Zm290.41-1.76-.89-.46c.46-.88.92-1.77,1.37-2.66l.89.45C557.66,325.88,557.2,326.77,556.74,327.65Zm-128.82-3.11c-.49-.87-1-1.75-1.45-2.63l.88-.48,1.44,2.63Zm-159.53-.77-.93-.34,1-2.82.94.34Zm291.06-1.49-.9-.44c.44-.89.87-1.79,1.3-2.7l.9.43C560.32,320.48,559.89,321.39,559.45,322.28Zm-134.4-3c-.46-.89-.93-1.77-1.39-2.67l.89-.46c.46.89.92,1.78,1.39,2.66Zm-154.58-1.12-.94-.35,1-2.82.94.35ZM562,316.84l-.9-.41,1.23-2.73.91.4C562.85,315,562.44,315.94,562,316.84Zm-139.73-2.92-1.35-2.69.89-.44,1.35,2.68Zm-149.73-1.41-.94-.35,1.06-2.81.93.35Zm291.91-1.16-.92-.4c.4-.91.79-1.83,1.18-2.75l.92.38C565.26,309.51,564.87,310.43,564.47,311.35Zm-144.86-2.81-1.32-2.7.9-.44,1.32,2.7Zm-144.94-1.65-.93-.35,1.06-2.81.94.36Zm292.14-1.08-.93-.38c.38-.92.76-1.85,1.13-2.78l.93.38C567.57,304,567.19,304.89,566.81,305.81ZM417,303.13l-1.29-2.72.91-.42c.43.9.85,1.81,1.28,2.71Zm-140.18-1.84-.93-.36,1.09-2.8.93.36Zm292.24-1.06-.93-.36,1.08-2.8.94.36C569.78,298.37,569.41,299.3,569.05,300.23Zm-154.63-2.54L413.15,295l.9-.42,1.28,2.72ZM279,295.7l-.93-.37c.36-.94.73-1.87,1.1-2.79l.93.37C279.73,293.83,279.36,294.76,279,295.7Zm292.2-1.08-.93-.35c.35-.93.7-1.87,1-2.81l.94.34Q571.74,293.23,571.2,294.62Zm-159.32-2.38-1.26-2.72.91-.42,1.26,2.72Zm-130.66-2.11-.92-.38c.37-.93.75-1.86,1.13-2.78l.93.38ZM573.29,289l-.94-.34,1-2.82.94.33C574,287.1,573.63,288,573.29,289ZM409.36,286.8l-1.26-2.72.91-.43,1.26,2.73Zm-125.85-2.22-.93-.39,1.17-2.77.92.4C284.28,282.73,283.9,283.65,283.51,284.58Zm291.79-1.26-.94-.33c.33-.94.66-1.88,1-2.83l.95.32Zm-168.47-2-1.27-2.72.91-.42,1.27,2.72Zm-121-2.29-.92-.4c.4-.92.8-1.84,1.21-2.75l.91.41Zm291.4-1.42-1-.32c.33-.95.65-1.89,1-2.84l1,.32Zm-173-1.72L403,273.21l.9-.43,1.29,2.71Zm-116-2.34-.91-.41c.41-.92.83-1.83,1.25-2.74l.9.42C289.12,271.76,288.7,272.66,288.29,273.58ZM579.17,272l-.95-.32c.32-.95.63-1.9.94-2.85l1,.31C579.8,270.05,579.49,271,579.17,272ZM401.7,270.51l-1.32-2.7.9-.44q.66,1.33,1.32,2.7Zm-110.89-2.37-.91-.43c.44-.91.87-1.81,1.31-2.71l.9.44C291.67,266.33,291.24,267.23,290.81,268.14ZM581,266.24l-.95-.31.92-2.85,1,.31Zm-182-1.12-1.35-2.67.89-.46,1.35,2.69Zm-105.62-2.37-.89-.44c.45-.91.91-1.8,1.36-2.68l.89.45Zm289.44-2.21-1-.3.91-2.86.95.3Zm-186.55-.75c-.47-.9-.93-1.78-1.4-2.65l.88-.48,1.41,2.66Zm-100.13-2.36-.89-.47q.72-1.33,1.44-2.64l.87.48C297.13,255.67,296.66,256.55,296.19,257.43ZM807.42,257c-1,0-2-.09-3-.16l.07-1c1,.08,2,.13,3,.16Zm-6-.45c-1-.12-2-.27-3-.44l.16-1c1,.16,2,.31,2.94.42Zm-5.94-1c-1-.22-2-.46-2.93-.73l.27-1c.93.26,1.9.5,2.87.71Zm-210.78-.67-.95-.3.89-2.87,1,.3Zm-191.2-.31q-.72-1.32-1.47-2.61l.87-.5c.5.86,1,1.74,1.48,2.62Zm396.17-.62c-.95-.31-1.91-.66-2.84-1l.36-.93c.92.36,1.86.7,2.79,1Zm-490.57-1.7-.87-.49c.51-.88,1-1.75,1.52-2.6l.86.51C300.09,250.46,299.58,251.32,299.08,252.19Zm485-.5c-.9-.42-1.82-.86-2.71-1.33l.46-.88c.88.45,1.78.89,2.67,1.3Zm-393.52-2.38c-.51-.87-1-1.72-1.55-2.56l.85-.53q.78,1.28,1.56,2.58Zm196-.23-1-.3.89-2.88,1,.3Zm192.2-.19c-.85-.5-1.71-1-2.55-1.6l.55-.83c.83.55,1.67,1.08,2.51,1.57Zm-476.53-1.84-.85-.52c.53-.86,1.07-1.71,1.61-2.54l.84.54C303.21,245.36,302.68,246.2,302.15,247.05Zm471.51-1.49c-.8-.58-1.6-1.21-2.39-1.85l.63-.77c.78.63,1.57,1.24,2.35,1.82Zm-386.3-1.34c-.54-.85-1.09-1.68-1.64-2.5l.82-.56c.56.82,1.12,1.66,1.66,2.51Zm200.89-.89-1-.29.88-2.87,1,.29ZM305.41,242l-.83-.56c.58-.84,1.15-1.66,1.73-2.46l.82.58C306.55,240.4,306,241.21,305.41,242ZM769,241.76c-.75-.67-1.49-1.36-2.21-2.07l.69-.71c.72.69,1.45,1.37,2.19,2Zm-385-2.49c-.58-.82-1.17-1.62-1.77-2.41l.8-.6c.6.79,1.19,1.6,1.78,2.42Zm206-1.68-1-.29.89-2.87.95.29Zm174.63,0c-.69-.73-1.37-1.47-2-2.23l.75-.66c.66.75,1.32,1.48,2,2.2ZM308.9,237.2l-.79-.6c.62-.81,1.24-1.6,1.87-2.37l.77.63C310.13,235.62,309.51,236.4,308.9,237.2Zm71.5-2.69c-.63-.78-1.26-1.55-1.91-2.29l.76-.65c.65.75,1.29,1.52,1.93,2.31ZM760.67,233c-.64-.78-1.26-1.56-1.87-2.36l.79-.61c.61.79,1.22,1.57,1.85,2.34Zm-448-.44-.76-.66c.67-.77,1.35-1.51,2-2.24l.72.69C314,231.08,313.33,231.82,312.67,232.58Zm279.11-.73-.95-.29.88-2.87,1,.29ZM376.5,230c-.69-.73-1.39-1.45-2.09-2.13l.7-.71c.71.69,1.42,1.41,2.12,2.15Zm-59.76-1.77-.7-.71c.73-.71,1.47-1.41,2.21-2.06l.66.74C318.19,226.86,317.46,227.54,316.74,228.24Zm440.26,0c-.58-.82-1.16-1.64-1.72-2.47l.82-.57c.56.83,1.13,1.65,1.71,2.45Zm-163.45-2.12-.95-.3.89-2.87,1,.3Zm-221.32-.26c-.75-.66-1.51-1.3-2.27-1.9l.62-.79c.77.61,1.55,1.26,2.32,1.94Zm-51.06-1.56-.62-.78q1.2-1,2.4-1.83l.58.82C322.75,223.06,322,223.67,321.17,224.3Zm432.45-1.05c-.54-.84-1.07-1.69-1.6-2.55l.86-.52c.52.85,1,1.7,1.58,2.53Zm-386-1.06c-.82-.57-1.65-1.11-2.48-1.61l.51-.86c.85.51,1.7,1.07,2.54,1.65ZM326,220.86l-.53-.85c.86-.53,1.74-1,2.61-1.51l.47.89C327.69,219.84,326.83,220.34,326,220.86Zm269.34-.48-1-.29.9-2.87,1,.3Zm-232.81-1.24c-.88-.45-1.79-.86-2.68-1.24l.39-.92c.91.38,1.84.81,2.74,1.27Zm388-1c-.5-.86-1-1.74-1.49-2.62l.88-.48c.48.87,1,1.74,1.48,2.6Zm-419.29,0-.4-.92c.93-.41,1.87-.78,2.81-1.1l.33.94C333,217.34,332.09,217.7,331.19,218.1Zm25.89-1.22c-.93-.31-1.88-.58-2.83-.81l.23-1c1,.23,1.95.51,2.91.83Zm-20.34-.72-.25-1c1-.26,2-.47,3-.64l.17,1C338.65,215.71,337.69,215.92,336.74,216.16Zm14.62-.66c-1-.15-1.95-.26-2.92-.34l.07-1c1,.07,2,.19,3,.34Zm-8.82-.32-.08-1c1-.08,2-.13,3-.13v1C344.51,215.05,343.52,215.1,342.54,215.18Zm254.59-.52-1-.3.9-2.87,1,.3Zm150.43-1.81c-.47-.88-.94-1.77-1.4-2.67l.89-.45c.46.89.92,1.77,1.39,2.65ZM599,208.94l-1-.31.92-2.86,1,.31Zm145.86-1.44c-.45-.9-.88-1.8-1.32-2.71l.9-.43c.44.9.87,1.8,1.32,2.69Zm-144-4.27-.95-.31c.32-1,.63-1.91.94-2.85l1,.31C601.43,201.33,601.12,202.28,600.8,203.23Zm141.41-1.16L741,199.34l.91-.41,1.25,2.72Zm-139.52-4.53-.94-.32,1-2.85.95.32Zm137-.95-1.2-2.75.92-.4c.39.92.79,1.84,1.2,2.75Zm-135.09-4.73-.94-.33,1-2.84.94.33Zm132.7-.78-1.17-2.77.92-.38,1.17,2.76ZM606.62,186.2l-.94-.34c.34-1,.68-1.89,1-2.82l.94.34C607.3,184.31,607,185.25,606.62,186.2ZM735,185.54l-1.15-2.78.93-.39,1.15,2.78Zm-126.31-5-.94-.35,1.06-2.81.94.35C609.39,178.69,609,179.63,608.68,180.57Zm124-.59-1.14-2.77.92-.38,1.14,2.77Zm-121.88-5-.93-.36c.36-.94.73-1.87,1.1-2.8l.93.38C611.55,173.1,611.18,174,610.82,175Zm119.6-.52-1.15-2.78.93-.38,1.14,2.78Zm-117.37-5-.93-.38c.38-.93.77-1.86,1.16-2.78l.92.39C613.81,167.55,613.43,168.47,613.05,169.4Zm115.07-.51c-.39-.92-.77-1.85-1.16-2.76l.92-.39c.39.92.78,1.84,1.16,2.77Zm-112.74-5-.92-.4c.4-.93.81-1.84,1.22-2.75l.91.41C616.18,162,615.78,163,615.38,163.88Zm110.4-.51c-.39-.93-.79-1.84-1.19-2.76l.91-.4c.41.92.8,1.84,1.2,2.76Zm-107.95-5-.9-.42c.42-.91.85-1.82,1.28-2.72l.9.44C618.68,156.6,618.26,157.5,617.83,158.41Zm105.54-.54c-.41-.91-.82-1.82-1.24-2.73l.91-.41c.42.9.83,1.82,1.25,2.73ZM620.43,153l-.9-.45c.45-.9.91-1.8,1.37-2.68l.89.46C621.33,151.23,620.88,152.12,620.43,153Zm100.43-.59c-.43-.91-.86-1.81-1.3-2.7l.9-.44c.44.9.87,1.8,1.31,2.71Zm-97.67-4.72-.88-.48c.48-.89,1-1.77,1.46-2.63l.87.49C624.15,146,623.67,146.82,623.19,147.71Zm95-.65c-.46-.9-.92-1.78-1.39-2.65l.88-.48c.47.88.94,1.77,1.4,2.67Zm-92.08-4.56-.86-.51c.51-.87,1-1.72,1.56-2.57l.85.53C627.17,140.79,626.65,141.64,626.14,142.5Zm89.25-.72c-.49-.87-1-1.74-1.49-2.59l.86-.51q.76,1.29,1.5,2.61Zm-86.08-4.34-.84-.55c.56-.85,1.13-1.68,1.7-2.49l.82.57C630.42,135.78,629.86,136.6,629.31,137.44Zm83-.8c-.53-.85-1.07-1.68-1.62-2.5l.83-.56c.55.83,1.1,1.67,1.64,2.53Zm-79.61-4.08-.8-.6c.61-.81,1.23-1.61,1.85-2.39l.78.63C633.94,131,633.34,131.75,632.73,132.56Zm76.29-.88c-.59-.81-1.18-1.61-1.79-2.38l.79-.62c.62.79,1.22,1.6,1.81,2.42Zm-72.56-3.77-.76-.66c.66-.76,1.33-1.51,2-2.24l.73.68Q637.43,126.77,636.46,127.91Zm68.9-.93c-.65-.77-1.31-1.52-2-2.23l.73-.68c.67.72,1.34,1.48,2,2.27Zm-64.84-3.42-.71-.71c.74-.72,1.48-1.41,2.21-2.06l.66.75C642,122.18,641.24,122.86,640.52,123.56Zm60.8-.94c-.72-.7-1.45-1.37-2.18-2l.66-.75c.74.64,1.49,1.33,2.22,2Zm-56.38-3-.62-.79c.79-.63,1.6-1.24,2.41-1.81l.57.81C646.51,118.41,645.72,119,644.94,119.63Zm51.91-.9c-.79-.61-1.6-1.19-2.4-1.73l.55-.83c.82.55,1.65,1.15,2.46,1.77Zm-47.08-2.52-.53-.85c.86-.53,1.74-1,2.62-1.51l.47.89C651.47,115.19,650.61,115.69,649.77,116.21Zm42.17-.77c-.85-.49-1.73-1-2.61-1.37l.43-.91c.9.44,1.8.91,2.68,1.42Zm-37-2-.41-.92c.92-.41,1.87-.78,2.8-1.12l.34.94C656.8,112.68,655.88,113.05,655,113.45Zm31.64-.57c-.91-.35-1.84-.68-2.78-1l.29-1c1,.3,1.93.64,2.86,1Zm-26.1-1.41-.27-1c1-.26,2-.5,2.94-.69l.2,1C662.42,111,661.46,111.21,660.52,111.47Zm20.47-.33c-.94-.21-1.92-.4-2.9-.55l.16-1c1,.16,2,.35,3,.57Zm-14.69-.8-.11-1c1-.12,2-.2,3-.25l0,1C668.27,110.14,667.27,110.22,666.3,110.34Zm8.87-.11c-1-.08-2-.13-2.95-.16l0-1c1,0,2,.08,3,.17Z"/></g><g id="Grantt_Diagram-2" data-name="Grantt Diagram"><rect class="cls-7" x="65.33" y="406.19" width="6.77" height="7.67"/><rect class="cls-8" x="68.21" y="390.23" width="1" height="15.96"/><rect class="cls-9" x="68.21" y="413.85" width="1" height="15.96"/><rect class="cls-10" x="83.18" y="409.98" width="6.77" height="17.31"/><rect class="cls-11" x="86.06" y="394.03" width="1" height="15.96"/><rect class="cls-12" x="86.06" y="427.29" width="1" height="15.96"/><rect class="cls-13" x="101.04" y="389.35" width="6.77" height="45.06"/><rect class="cls-14" x="103.92" y="373.4" width="1" height="15.96"/><rect class="cls-15" x="103.92" y="434.41" width="1" height="15.96"/><rect class="cls-16" x="118.9" y="412.22" width="6.77" height="34.49"/><rect class="cls-17" x="121.78" y="396.26" width="1" height="15.96"/><rect class="cls-18" x="121.78" y="446.71" width="1" height="15.96"/><rect class="cls-19" x="136.75" y="391.66" width="6.77" height="17.31"/><rect class="cls-20" x="139.64" y="375.7" width="1" height="15.96"/><rect class="cls-21" x="139.64" y="408.97" width="1" height="15.96"/><rect class="cls-22" x="154.61" y="391.93" width="6.77" height="31.99"/><rect class="cls-23" x="157.49" y="375.97" width="1" height="15.96"/><rect class="cls-24" x="157.49" y="423.92" width="1" height="15.96"/><rect class="cls-25" x="172.47" y="351.85" width="6.77" height="43.45"/><rect class="cls-26" x="175.35" y="335.9" width="1" height="15.96"/><rect class="cls-27" x="175.35" y="395.3" width="1" height="15.96"/><rect class="cls-28" x="190.33" y="334.62" width="6.77" height="55.61"/><rect class="cls-29" x="193.21" y="318.67" width="1" height="15.96"/><rect class="cls-30" x="193.21" y="390.23" width="1" height="15.96"/><rect class="cls-31" x="208.18" y="345.11" width="6.77" height="10.56"/><rect class="cls-32" x="211.06" y="329.15" width="1" height="15.96"/><rect class="cls-33" x="211.06" y="355.67" width="1" height="15.96"/><rect class="cls-34" x="226.04" y="339.09" width="6.77" height="23.27"/><rect class="cls-35" x="228.92" y="323.14" width="1" height="15.96"/><rect class="cls-36" x="228.92" y="362.36" width="1" height="15.96"/><rect class="cls-37" x="243.9" y="292.5" width="6.77" height="59.43"/><rect class="cls-38" x="246.78" y="276.55" width="1" height="15.96"/><rect class="cls-39" x="246.78" y="351.93" width="1" height="15.96"/><rect class="cls-40" x="261.75" y="331.64" width="6.77" height="40.5"/><rect class="cls-41" x="264.64" y="315.69" width="1" height="15.96"/><rect class="cls-42" x="264.64" y="372.14" width="1" height="15.96"/><rect class="cls-43" x="279.61" y="328.8" width="6.77" height="16.79"/><rect class="cls-44" x="282.49" y="312.84" width="1" height="15.96"/><rect class="cls-45" x="282.49" y="345.59" width="1" height="15.96"/><rect class="cls-46" x="297.47" y="310.09" width="6.77" height="17.05"/><rect class="cls-47" x="300.35" y="294.14" width="1" height="15.96"/><rect class="cls-48" x="300.35" y="327.15" width="1" height="15.96"/><rect class="cls-49" x="315.33" y="271.58" width="6.77" height="42.66"/><rect class="cls-50" x="318.21" y="255.62" width="1" height="15.96"/><rect class="cls-51" x="318.21" y="314.24" width="1" height="15.96"/><rect class="cls-52" x="333.18" y="260.31" width="6.77" height="29.22"/><rect class="cls-53" x="336.06" y="244.35" width="1" height="15.96"/><rect class="cls-54" x="336.06" y="289.52" width="1" height="15.96"/><rect class="cls-55" x="351.04" y="281.07" width="6.77" height="11.43"/><rect class="cls-56" x="353.92" y="265.11" width="1" height="15.96"/><rect class="cls-57" x="353.92" y="292.5" width="1" height="15.96"/><rect class="cls-58" x="368.9" y="298.95" width="6.77" height="12.31"/><rect class="cls-59" x="371.78" y="283" width="1" height="15.96"/><rect class="cls-60" x="371.78" y="311.26" width="1" height="15.96"/><rect class="cls-61" x="386.75" y="277.89" width="6.77" height="14.44"/><rect class="cls-62" x="389.64" y="261.93" width="1" height="15.96"/><rect class="cls-63" x="389.64" y="292.33" width="1" height="15.96"/><rect class="cls-64" x="404.61" y="264.76" width="6.77" height="48.43"/><rect class="cls-65" x="407.49" y="248.8" width="1" height="15.96"/><rect class="cls-66" x="407.49" y="313.19" width="1" height="15.96"/><rect class="cls-67" x="422.47" y="274.02" width="6.77" height="11.48"/><rect class="cls-68" x="425.35" y="258.06" width="1" height="15.96"/><rect class="cls-69" x="425.35" y="285.5" width="1" height="15.96"/><rect class="cls-70" x="440.33" y="297.29" width="6.77" height="74.85"/><rect class="cls-71" x="443.21" y="281.33" width="1" height="15.96"/><rect class="cls-72" x="443.21" y="372.14" width="1" height="15.96"/><rect class="cls-73" x="458.18" y="321.47" width="6.77" height="12.75"/><rect class="cls-74" x="461.06" y="305.51" width="1" height="15.96"/><rect class="cls-75" x="461.06" y="334.22" width="1" height="15.96"/><rect class="cls-76" x="476.04" y="293.27" width="6.77" height="44.86"/><rect class="cls-77" x="478.92" y="277.31" width="1" height="15.96"/><rect class="cls-78" x="478.92" y="338.12" width="1" height="15.96"/><rect class="cls-79" x="493.9" y="274.91" width="6.77" height="36.35"/><rect class="cls-80" x="496.78" y="258.96" width="1" height="15.96"/><rect class="cls-81" x="496.78" y="311.26" width="1" height="15.96"/><rect class="cls-82" x="511.75" y="262.24" width="6.77" height="12.88"/><rect class="cls-83" x="514.64" y="246.28" width="1" height="15.96"/><rect class="cls-84" x="514.64" y="275.11" width="1" height="15.96"/><rect class="cls-85" x="529.61" y="247.17" width="6.77" height="53.99"/><rect class="cls-86" x="532.49" y="231.21" width="1" height="15.96"/><rect class="cls-87" x="532.49" y="301.16" width="1" height="15.96"/><rect class="cls-88" x="547.47" y="212.9" width="6.77" height="79.43"/><rect class="cls-89" x="550.35" y="196.94" width="1" height="15.96"/><rect class="cls-90" x="550.35" y="292.33" width="1" height="15.96"/><rect class="cls-91" x="565.25" y="264.75" width="6.77" height="40.35"/><rect class="cls-92" x="568.13" y="248.8" width="1" height="15.96"/><rect class="cls-93" x="568.13" y="305.11" width="1" height="15.96"/><rect class="cls-94" x="583.18" y="267.73" width="6.77" height="13.29"/><rect class="cls-95" x="586.06" y="251.78" width="1" height="15.96"/><rect class="cls-96" x="586.06" y="281.02" width="1" height="15.96"/><rect class="cls-97" x="601.47" y="262.56" width="6.77" height="10.41"/><rect class="cls-98" x="604.35" y="246.61" width="1" height="15.96"/><rect class="cls-99" x="604.35" y="272.97" width="1" height="15.96"/><rect class="cls-100" x="618.9" y="202.86" width="6.77" height="46.7"/><rect class="cls-101" x="621.78" y="186.9" width="1" height="15.96"/><rect class="cls-102" x="621.78" y="249.56" width="1" height="15.96"/><rect class="cls-103" x="636.75" y="240.88" width="6.77" height="32.52"/><rect class="cls-104" x="639.64" y="224.93" width="1" height="15.96"/><rect class="cls-105" x="639.64" y="273.41" width="1" height="15.96"/><rect class="cls-106" x="654.61" y="243.17" width="6.77" height="56.37"/><rect class="cls-107" x="657.49" y="227.22" width="1" height="15.96"/><rect class="cls-108" x="657.49" y="299.54" width="1" height="15.96"/><rect class="cls-109" x="672.47" y="255.51" width="6.77" height="10.24"/><rect class="cls-110" x="675.35" y="239.56" width="1" height="15.96"/><rect class="cls-111" x="675.35" y="265.76" width="1" height="15.96"/><rect class="cls-112" x="690.33" y="198.06" width="6.77" height="41.08"/><rect class="cls-113" x="693.21" y="182.1" width="1" height="15.96"/><rect class="cls-114" x="693.21" y="239.14" width="1" height="15.96"/><rect class="cls-115" x="708.18" y="221.57" width="6.77" height="9.97"/><rect class="cls-116" x="711.06" y="205.62" width="1" height="15.96"/><rect class="cls-117" x="711.06" y="231.54" width="1" height="15.96"/><rect class="cls-118" x="726.04" y="217.26" width="6.77" height="56.11"/><rect class="cls-119" x="728.92" y="201.3" width="1" height="15.96"/><rect class="cls-120" x="728.92" y="273.37" width="1" height="15.96"/><rect class="cls-121" x="743.9" y="195.76" width="6.77" height="15.54"/><rect class="cls-122" x="746.78" y="179.8" width="1" height="15.96"/><rect class="cls-123" x="746.78" y="211.3" width="1" height="15.96"/><rect class="cls-124" x="761.75" y="185.57" width="6.77" height="8.66"/><rect class="cls-125" x="764.64" y="169.61" width="1" height="15.96"/><rect class="cls-126" x="764.64" y="194.22" width="1" height="15.96"/><rect class="cls-127" x="779.61" y="138.44" width="6.77" height="45.39"/><rect class="cls-128" x="782.49" y="122.49" width="1" height="15.96"/><rect class="cls-129" x="782.49" y="183.84" width="1" height="15.96"/><rect class="cls-130" x="797.47" y="141.42" width="6.77" height="13.76"/><rect class="cls-131" x="800.35" y="125.47" width="1" height="15.96"/><rect class="cls-132" x="800.35" y="155.18" width="1" height="15.96"/></g></g><path class="cls-133" d="M110.48,115.25c-.15.26-.37.65-.64,1.17a11.08,11.08,0,0,1-.46,1,.22.22,0,0,1-.19.1l-1.13-.42a5.93,5.93,0,0,0-1.88-.41c-1.44,0-2.16.63-2.16,1.9,0,.7.51,1.31,1.52,1.84,1.69.88,2.63,1.39,2.81,1.52a4,4,0,0,1,1.51,3.26,4.86,4.86,0,0,1-2.07,4.14,7.63,7.63,0,0,1-4.59,1.35c-.84,0-1.29-.09-1.36-.28s-.1-.73-.21-1.3c-.06-.23-.16-.58-.29-1a.75.75,0,0,1,0-.2.15.15,0,0,1,.17-.17c.19,0,.48,0,.86.06s.68.06.88.06q3.63,0,3.63-2.34a2.38,2.38,0,0,0-1.47-2q-2.67-1.53-2.73-1.59a3.91,3.91,0,0,1-1.47-3.21,4.5,4.5,0,0,1,1.43-3.49,5.18,5.18,0,0,1,3.61-1.27,9.19,9.19,0,0,1,2.15.31,6.1,6.1,0,0,1,2,.82A.49.49,0,0,1,110.48,115.25Z"/><path class="cls-133" d="M127.12,128.55a3.94,3.94,0,0,1,0,.4,4.1,4.1,0,0,0,0,.41,2.79,2.79,0,0,0,0,.33c0,.15,0,.26,0,.34,0,.32-.18.48-.55.48l-.94,0-.94,0a4.11,4.11,0,0,1-2.13-.74,7.39,7.39,0,0,1-1.7-1.54,9.57,9.57,0,0,1-2.14,1.93,5.47,5.47,0,0,1-2.8.71,3.61,3.61,0,0,1-2.87-1.24,4.35,4.35,0,0,1-1.05-3,5.09,5.09,0,0,1,1.09-3.28,9.78,9.78,0,0,1,2.8-2.19,8.79,8.79,0,0,1-.68-3,4.51,4.51,0,0,1,1-3.13,3.94,3.94,0,0,1,3-1.18,4.45,4.45,0,0,1,2.64.77,2.78,2.78,0,0,1,1.21,2.37,3.91,3.91,0,0,1-1.39,2.94,17.53,17.53,0,0,1-2.83,1.89,22.72,22.72,0,0,0,2.15,3.05,11.71,11.71,0,0,1,2.07-2.18,4.85,4.85,0,0,1,2.86-.8,2.19,2.19,0,0,1,.65.06.5.5,0,0,1,.31.51,3.28,3.28,0,0,1-.55,1.86l-1.07.08a3.47,3.47,0,0,0-1,.24,5,5,0,0,0-1.94,1.69A6.57,6.57,0,0,0,124,127.8a4.69,4.69,0,0,0,2.13.42h.58C127,128.26,127.12,128.37,127.12,128.55Zm-7.47-1.71a26.19,26.19,0,0,1-2.86-3.82,4,4,0,0,0-2.23,3.39,2.28,2.28,0,0,0,.55,1.57,1.91,1.91,0,0,0,1.51.66A4.32,4.32,0,0,0,119.65,126.84Zm1.3-9.75a1.39,1.39,0,0,0-.45-1.09,1.67,1.67,0,0,0-1.14-.4,1.73,1.73,0,0,0-1.94,2,8.82,8.82,0,0,0,.5,2.57,12.6,12.6,0,0,0,1.92-1.21A2.41,2.41,0,0,0,121,117.09Z"/><path class="cls-133" d="M142.09,120.14a6.38,6.38,0,0,1-1.49,4.41,5.44,5.44,0,0,1-4.26,1.69c-.44,0-1.11,0-2,0s-1.58,0-2,0c-.25,0-.38.16-.38.48s0,1,.08,1.86.08,1.45.08,1.87c0,.13-.08.2-.23.2a6.82,6.82,0,0,1-.74-.06c-.33,0-.58-.05-.74-.05l-.62,0a6,6,0,0,1-.61,0q-.3,0-.3-.36c0-.85,0-2.14.11-3.86s.12-3,.12-3.87q0-3.65-.27-7.85l0-.17c0-.18.1-.26.31-.26h3.82c.37,0,.92,0,1.65,0s1.29-.05,1.65-.05a5.58,5.58,0,0,1,4.26,1.76A6,6,0,0,1,142.09,120.14Zm-3,.17a4,4,0,0,0-.95-2.81,3.45,3.45,0,0,0-2.71-1.1c-.36,0-1,0-1.93.09a6.65,6.65,0,0,0-1.63.19c0,.1-.08,1.44-.08,4,0,.33,0,.82,0,1.48s0,1.15,0,1.48c0,.07.09.12.26.16a26.35,26.35,0,0,0,3.57.13,3.26,3.26,0,0,0,2.56-1A3.83,3.83,0,0,0,139.13,120.31Z"/><path class="cls-133" d="M159.06,125.75a4.65,4.65,0,0,1-1.66,3.86,6.37,6.37,0,0,1-4.11,1.22,15.32,15.32,0,0,1-2.47-.31q-2-.37-2-.81a9,9,0,0,1,.17-1.34q.21-1.08.39-1.08c-.11,0,.24.21,1,.64a5,5,0,0,0,2.28.63,4.35,4.35,0,0,0,2.38-.58,2.32,2.32,0,0,0,1.08-2.08c0-1.53-1.13-2.29-3.38-2.29a9.09,9.09,0,0,0-1.31.13,10.8,10.8,0,0,1-1.2.13.34.34,0,0,1-.33-.16.91.91,0,0,1,0-.21c0-.16,0-.39,0-.69s0-.57,0-.69c0-.57,0-1.43,0-2.57s0-2,0-2.58a.68.68,0,0,1,.26-.4.75.75,0,0,1,.43-.24c.41,0,1,0,1.84,0s1.44.06,1.85.06,1,0,1.78-.06,1.38-.06,1.78-.06c.18,0,.27.07.27.22a5.45,5.45,0,0,1-.11.9,7.06,7.06,0,0,0-.11,1,.36.36,0,0,1-.18.27.58.58,0,0,1-.32.14c-.41,0-1,0-1.83-.07s-1.41-.07-1.82-.07c-.58,0-1.08,0-1.52,0,0,.65,0,1.63-.12,3,.24,0,.59,0,1.06-.08a9.24,9.24,0,0,1,1.07-.09,5.47,5.47,0,0,1,3.44,1A3.87,3.87,0,0,1,159.06,125.75Z"/><path class="cls-133" d="M173.65,123.46a7.8,7.8,0,0,1-1.75,5.08,6.07,6.07,0,0,1-9.5,0,8.2,8.2,0,0,1,0-10.15,6.13,6.13,0,0,1,9.5,0A7.78,7.78,0,0,1,173.65,123.46Zm-2.76,0a5.11,5.11,0,0,0-.95-3.12,3.43,3.43,0,0,0-5.59,0,5.72,5.72,0,0,0,0,6.24,3.26,3.26,0,0,0,2.78,1.48,3.31,3.31,0,0,0,2.77-1.51A5.21,5.21,0,0,0,170.89,123.46Z"/><path class="cls-133" d="M188,123.46a7.74,7.74,0,0,1-1.75,5.08,6.07,6.07,0,0,1-9.5,0,8.2,8.2,0,0,1,0-10.15,6.13,6.13,0,0,1,9.5,0A7.73,7.73,0,0,1,188,123.46Zm-2.76,0a5.11,5.11,0,0,0-.95-3.12,3.43,3.43,0,0,0-5.59,0,5.7,5.7,0,0,0,0,6.24,3.24,3.24,0,0,0,2.77,1.48,3.31,3.31,0,0,0,2.77-1.51A5.14,5.14,0,0,0,185.22,123.46Z"/><path class="cls-134" d="M109.08,151.25c0,.12-.06.77-.18,1.94a.15.15,0,0,1-.16.1c-.39,0-.9,0-1.54,0l-1.54,0c0,.39,0,1,0,1.78s0,1.39,0,1.79-.4.46-1.19.46a2.55,2.55,0,0,1-1-.14.38.38,0,0,1-.12-.3c0-.44,0-1,0-1.79,0-.91,0-1.51,0-1.8l-1.49,0c-.61,0-1.1,0-1.49,0-.13,0-.2-.06-.2-.17s0-.36.11-.94c0-.31,0-.64.05-1a.28.28,0,0,1,.27-.13l2.75.08c0-.38,0-1,0-1.75s0-1.36,0-1.75c0-.14.07-.2.22-.2l.9,0,.89,0q.3,0,.3.33c0,.38,0,.94,0,1.7s0,1.33,0,1.71h3.19C109,151.11,109.08,151.15,109.08,151.25Z"/><path class="cls-134" d="M123.22,152.26a7.74,7.74,0,0,1-1.75,5.08,6.07,6.07,0,0,1-9.5,0,8.2,8.2,0,0,1,0-10.15,6.13,6.13,0,0,1,9.5,0A7.73,7.73,0,0,1,123.22,152.26Zm-2.75,0a5.18,5.18,0,0,0-1-3.12,3.32,3.32,0,0,0-2.8-1.44,3.26,3.26,0,0,0-2.79,1.44,5.67,5.67,0,0,0,0,6.24,3.25,3.25,0,0,0,2.78,1.48,3.28,3.28,0,0,0,2.76-1.51A5.18,5.18,0,0,0,120.47,152.26Z"/><path class="cls-134" d="M128.27,157.59a2,2,0,0,1-.52,1.35,1.66,1.66,0,0,1-1.28.58,1.62,1.62,0,0,1-1.28-.6,1.94,1.94,0,0,1-.49-1.33,1.89,1.89,0,0,1,.5-1.34,1.62,1.62,0,0,1,1.27-.56,1.67,1.67,0,0,1,1.28.56A1.9,1.9,0,0,1,128.27,157.59Z"/><path class="cls-134" d="M139.54,154.55a4.64,4.64,0,0,1-1.65,3.86,6.39,6.39,0,0,1-4.11,1.22,15.19,15.19,0,0,1-2.47-.31q-2-.37-2-.81a9,9,0,0,1,.17-1.34c.14-.72.26-1.08.39-1.08-.11,0,.24.21,1,.64a5,5,0,0,0,2.28.63,4.37,4.37,0,0,0,2.38-.58,2.33,2.33,0,0,0,1.07-2.08c0-1.53-1.12-2.29-3.37-2.29a9.09,9.09,0,0,0-1.31.13,10.8,10.8,0,0,1-1.2.13.34.34,0,0,1-.33-.16.91.91,0,0,1,0-.21c0-.16,0-.39,0-.69s0-.57,0-.69c0-.57,0-1.43,0-2.57s0-2,0-2.58a.63.63,0,0,1,.26-.4.75.75,0,0,1,.43-.24c.4,0,1,0,1.84.05s1.44.06,1.85.06,1,0,1.77-.06,1.39-.06,1.79-.06c.18,0,.27.07.27.22a6.88,6.88,0,0,1-.11.9,7.06,7.06,0,0,0-.11,1,.36.36,0,0,1-.18.27.58.58,0,0,1-.33.14c-.4,0-1,0-1.82-.07s-1.41-.07-1.82-.07c-.58,0-1.09,0-1.52,0,0,.64,0,1.63-.12,3,.23,0,.59,0,1.06-.08a9.24,9.24,0,0,1,1.07-.09,5.49,5.49,0,0,1,3.44,1A3.86,3.86,0,0,1,139.54,154.55Z"/><path class="cls-134" d="M152.05,156.12c0,.15-.09.22-.26.21l-1.2,0a.65.65,0,0,0-.32,0c-.07,0-.1.14-.1.32s0,.69.07,1.24.06,1,.06,1.24-.1.27-.29.3a8.68,8.68,0,0,1-1.37.07c-1.1,0-1.64-.09-1.64-.26a11.1,11.1,0,0,1,.13-1.29,12.24,12.24,0,0,0,.12-1.39c0-.18-.06-.27-.19-.27-.64,0-1.58,0-2.85.06s-2.21.06-2.84.06c-.47,0-.7-.48-.7-1.44a2.67,2.67,0,0,1,.22-1.41c.54-.62,1.31-1.56,2.32-2.84q1.89-2.64,2.93-4.23l1-1.53a.49.49,0,0,1,.36-.25,8,8,0,0,1,2.48.61c.24.09.36.23.36.43q0,.6-.09,1.8t-.09,1.8c0,.36,0,1,0,1.85s0,1.41,0,1.86V154c.2,0,.5,0,.9,0s.69,0,.88,0,.09.07.09.2,0,.55,0,1S152.05,155.9,152.05,156.12Zm-4.37-8.35a.16.16,0,0,0-.07-.14c-.07,0-.18.13-.31.39l-.24.51q-2,2.72-4.06,5.48c0,.09.36.13.95.13h.48c1.31,0,2.28,0,2.92-.06l0-2.88a23.3,23.3,0,0,1,.2-2.81C147.65,148,147.68,147.81,147.68,147.77Z"/><path class="cls-134" d="M160.54,149.23a5,5,0,0,1-1,3.06,3.36,3.36,0,0,1-5.53,0,5.2,5.2,0,0,1,0-6.13,3.35,3.35,0,0,1,5.53,0A5,5,0,0,1,160.54,149.23Zm-1.94,0a3.53,3.53,0,0,0-.41-1.7,1.53,1.53,0,0,0-2.78,0,3.43,3.43,0,0,0,0,3.36,1.59,1.59,0,0,0,1.38.9,1.55,1.55,0,0,0,1.37-.89A3.33,3.33,0,0,0,158.6,149.23Zm6.28-4a.81.81,0,0,1-.08.28c-.71,1.47-1.74,3.68-3.11,6.63q-.93,2.1-2.82,7.15-.13.33-.24.33a1.43,1.43,0,0,1-.6-.28c-.29-.19-.44-.33-.44-.42a.81.81,0,0,1,.12-.34c.45-.84,1-2,1.64-3.34.83-1.78,1.35-2.9,1.58-3.36q.6-1.23,1.44-3.45l1.31-3.56q.12-.3.24-.3a1.44,1.44,0,0,1,.56.26C164.75,145,164.88,145.18,164.88,145.27Zm4.71,9.67a5,5,0,0,1-1,3.06,3.36,3.36,0,0,1-5.53,0,5.2,5.2,0,0,1,0-6.13,3.33,3.33,0,0,1,2.77-1.47,3.29,3.29,0,0,1,2.76,1.47A5.07,5.07,0,0,1,169.59,154.94Zm-1.94,0a3.46,3.46,0,0,0-.41-1.69,1.52,1.52,0,0,0-2.78,0,3.27,3.27,0,0,0-.44,1.69,3.19,3.19,0,0,0,.46,1.66,1.57,1.57,0,0,0,1.37.91,1.53,1.53,0,0,0,1.37-.88A3.4,3.4,0,0,0,167.65,154.94Z"/></svg>