<svg xmlns="http://www.w3.org/2000/svg" viewBox="0 0 500 500"><defs><style>.cls-1{fill:#f5f9ff;}.cls-2{fill:#d0dbf7;}.cls-3{fill:#f2f2f2;}.cls-4{fill:#e3ebfc;}.cls-5{fill:#edf0fc;}.cls-6{fill:#e2e6ff;}.cls-7{fill:#cad2f9;}.cls-8{fill:#eef1ff;}.cls-9{fill:#6e7fdd;}.cls-10{fill:#b3c9f9;}.cls-11{fill:#0046a0;opacity:0.1;}.cls-12{fill:#ffcf74;}.cls-13{fill:#f9ab43;}.cls-14{fill:#c2cef2;}.cls-15{fill:#7997f2;}.cls-16{fill:#afc2e8;}.cls-17,.cls-20{fill:#fff;}.cls-18,.cls-20{opacity:0.3;}.cls-19{fill:#eb725f;}</style></defs><g id="OBJECTS"><rect class="cls-1" x="62.1" y="208.47" width="166.2" height="122.6"/><rect class="cls-2" x="62.1" y="208.47" width="166.2" height="15.29"/><path class="cls-3" d="M75.44,216.47a3.5,3.5,0,1,1-3.5-3.5A3.5,3.5,0,0,1,75.44,216.47Z"/><path class="cls-3" d="M87.22,216.47a3.5,3.5,0,1,1-3.5-3.5A3.5,3.5,0,0,1,87.22,216.47Z"/><path class="cls-3" d="M99,216.47a3.5,3.5,0,1,1-3.5-3.5A3.5,3.5,0,0,1,99,216.47Z"/><polygon class="cls-4" points="173.57 257.11 165.22 248.75 145.2 268.77 125.18 248.75 116.82 257.11 136.84 277.13 116.82 297.14 125.18 305.5 145.2 285.48 165.22 305.5 173.57 297.14 153.55 277.13 173.57 257.11"/><rect class="cls-1" x="266.12" y="131.14" width="166.2" height="122.6"/><rect class="cls-2" x="266.12" y="131.14" width="166.2" height="15.29"/><path class="cls-3" d="M279.46,139.14a3.5,3.5,0,1,1-3.49-3.5A3.49,3.49,0,0,1,279.46,139.14Z"/><path class="cls-3" d="M291.25,139.14a3.5,3.5,0,1,1-3.5-3.5A3.5,3.5,0,0,1,291.25,139.14Z"/><path class="cls-3" d="M303,139.14a3.5,3.5,0,1,1-3.5-3.5A3.5,3.5,0,0,1,303,139.14Z"/><polygon class="cls-4" points="377.6 179.78 369.24 171.43 349.22 191.44 329.2 171.43 320.85 179.78 340.87 199.8 320.85 219.82 329.2 228.17 349.22 208.16 369.24 228.17 377.6 219.82 357.58 199.8 377.6 179.78"/><ellipse class="cls-5" cx="249" cy="412.68" rx="203.17" ry="17.56"/><path class="cls-6" d="M199.45,133.18a9.71,9.71,0,0,1,.25-9.42l.83-1.45a16.24,16.24,0,0,0,1.56-3.06,2.9,2.9,0,0,0-.19-2.17c-.88-1.84-2.86-2-5.94-.55a20.29,20.29,0,0,0-4.17,2.68,22.22,22.22,0,0,0-3.56,3.7l-3.51-7.35a26,26,0,0,1,8.87-6.69q5.86-2.79,10.47-2a8.77,8.77,0,0,1,6.68,5.16,7.27,7.27,0,0,1,.78,4.46,18.21,18.21,0,0,1-2.12,5.13c-.76,1.42-1.31,2.49-1.63,3.21a5,5,0,0,0-.47,2.13,5.4,5.4,0,0,0,.59,2.29l.43.91-8.39,4Zm6.43,10.95a5,5,0,0,1-3-6.27,4.82,4.82,0,0,1,2.58-2.75,4.9,4.9,0,0,1,3.77-.25,4.85,4.85,0,0,1,3,6.25,4.9,4.9,0,0,1-2.57,2.78A4.74,4.74,0,0,1,205.88,144.13Z"/><path class="cls-6" d="M240.2,105.17A14.6,14.6,0,0,1,251,96l2.46-.52a23.08,23.08,0,0,0,5-1.31,4.32,4.32,0,0,0,2.25-2.38q1.78-4.26-5.34-7.24a30.61,30.61,0,0,0-7.19-2,34.53,34.53,0,0,0-7.72-.3L245.21,71a39.13,39.13,0,0,1,16.41,3.25q9,3.78,12.72,9.77a13.18,13.18,0,0,1,.91,12.67A10.94,10.94,0,0,1,271,102a27.51,27.51,0,0,1-7.89,2.77c-2.37.57-4.11,1-5.24,1.39a7.64,7.64,0,0,0-2.87,1.6,8.12,8.12,0,0,0-2,3l-.58,1.39-12.92-5.41Zm-5.86,18.2a7.09,7.09,0,0,1,.07-5.62,7,7,0,0,1,4-4,7.22,7.22,0,0,1,5.67.13,7.35,7.35,0,0,1,4.07,4,7.3,7.3,0,0,1-4,9.61,7.35,7.35,0,0,1-5.69-.1A7.2,7.2,0,0,1,234.34,123.37Z"/><polygon class="cls-7" points="449.71 285.13 449.71 279.39 445.89 279.39 445.89 285.13 440.15 285.13 440.15 288.95 445.89 288.95 445.89 294.69 449.71 294.69 449.71 288.95 455.45 288.95 455.45 285.13 449.71 285.13"/><polygon class="cls-7" points="413.66 101.36 413.66 92.6 407.84 92.6 407.84 101.36 399.08 101.36 399.08 107.18 407.84 107.18 407.84 115.94 413.66 115.94 413.66 107.18 422.42 107.18 422.42 101.36 413.66 101.36"/><polygon class="cls-7" points="397.79 270.84 397.79 266.66 395.01 266.66 395.01 270.84 390.83 270.84 390.83 273.62 395.01 273.62 395.01 277.8 397.79 277.8 397.79 273.62 401.97 273.62 401.97 270.84 397.79 270.84"/><polygon class="cls-7" points="159.36 125.41 159.36 121.23 156.58 121.23 156.58 125.41 152.4 125.41 152.4 128.19 156.58 128.19 156.58 132.37 159.36 132.37 159.36 128.19 163.54 128.19 163.54 125.41 159.36 125.41"/><polygon class="cls-7" points="127.13 97.76 127.13 92.02 123.32 92.02 123.32 97.76 117.58 97.76 117.58 101.57 123.32 101.57 123.32 107.32 127.13 107.32 127.13 101.57 132.88 101.57 132.88 97.76 127.13 97.76"/><path class="cls-8" d="M315.66,109.48a2.18,2.18,0,1,1-2.18-2.18A2.17,2.17,0,0,1,315.66,109.48Z"/><path class="cls-8" d="M324.6,71.94a2.18,2.18,0,1,1-2.18-2.18A2.18,2.18,0,0,1,324.6,71.94Z"/><circle class="cls-8" cx="367.26" cy="89.89" r="4.13"/><path class="cls-8" d="M454.35,245.18a2.19,2.19,0,1,1-2.18-2.18A2.19,2.19,0,0,1,454.35,245.18Z"/><path class="cls-8" d="M452.17,313.35a2.19,2.19,0,1,1-2.19-2.19A2.19,2.19,0,0,1,452.17,313.35Z"/><path class="cls-8" d="M119.76,194.13a2.19,2.19,0,1,1-2.18-2.19A2.19,2.19,0,0,1,119.76,194.13Z"/><circle class="cls-8" cx="81.76" cy="103.58" r="4.13"/><path class="cls-8" d="M163.29,80.26a2.19,2.19,0,1,1-2.19-2.19A2.19,2.19,0,0,1,163.29,80.26Z"/><path class="cls-8" d="M48,211.19A2.19,2.19,0,1,1,45.84,209,2.19,2.19,0,0,1,48,211.19Z"/><path class="cls-8" d="M48,327.53a2.19,2.19,0,1,1-2.18-2.18A2.19,2.19,0,0,1,48,327.53Z"/><path class="cls-9" d="M366.33,393.27s-36.18-72.33,61.95-120.33C428.28,272.94,435.8,376,366.33,393.27Z"/><path class="cls-10" d="M370.5,384.06c0-10.34,2.14-20.61,5.11-30.53.39-1.23.73-2.49,1.14-3.72l1.33-3.65,1.34-3.66,1.5-3.59c1.94-4.82,4.38-9.41,6.67-14.06l3.92-6.73c1.26-2.27,2.69-4.43,4.14-6.58s2.86-4.32,4.39-6.41,3.15-4.12,4.74-6.16l2.39-3.05,2.56-2.92,5.17-5.77c.85-1,1.79-1.86,2.71-2.77l2.79-2.69c1.85-1.79,3.73-3.56,5.62-5.31-1.62,2-3.25,4-4.9,6l-2.48,2.94c-.83,1-1.68,1.94-2.42,3l-4.68,6.1-2.36,3L407,300.64q-2.17,3.15-4.4,6.27c-1.44,2.1-2.74,4.3-4.11,6.45-2.86,4.23-5.2,8.77-7.77,13.17a218.62,218.62,0,0,0-12.48,27.87A151.87,151.87,0,0,0,370.5,384.06Z"/><path class="cls-11" d="M424.61,272.22c-1.37,24.87-9.9,91-61.36,106a63.91,63.91,0,0,0,4.11,12c69.47-17.27,61.95-120.34,61.95-120.34Q426.91,271,424.61,272.22Z"/><path class="cls-12" d="M357.48,416.55s5.15-22,26.68-48.71c23.59-29.24,54.36-39.76,67.13-25.71,12.4,13.64,1.86,32.49-30.07,42.12S371.24,398,357.48,416.55Z"/><path class="cls-13" d="M441.18,349.79c-7.31,2.89-14.38,6.24-21.33,9.79a202.74,202.74,0,0,0-20.15,11.83,147,147,0,0,0-18.36,14.34,110.06,110.06,0,0,0-15.43,17.56,80.76,80.76,0,0,1,6.29-10,90.56,90.56,0,0,1,7.75-9,117,117,0,0,1,18.33-15c3.3-2.17,6.67-4.24,10.12-6.17s7-3.7,10.58-5.32A132.49,132.49,0,0,1,441.18,349.79Z"/><path class="cls-11" d="M451.29,342.13a18.11,18.11,0,0,0-2.24-2.06c-10.36,25.37-40.62,43.75-76.37,43.79-12,18.94-15.2,32.69-15.2,32.69,13.76-18.52,31.81-22.67,63.74-32.3S463.69,355.77,451.29,342.13Z"/><path class="cls-9" d="M172.16,404.18S97.84,436.07,55.65,335.31C55.65,335.31,159,333.82,172.16,404.18Z"/><path class="cls-10" d="M166.22,400.69c-10.32-.58-20.45-3.34-30.17-6.89-1.21-.45-2.44-.86-3.64-1.35l-3.58-1.54-3.57-1.55-3.49-1.71c-4.7-2.22-9.14-4.92-13.65-7.48l-6.49-4.3c-2.19-1.39-4.27-2.95-6.32-4.52s-4.16-3.11-6.15-4.76-3.93-3.38-5.87-5.09l-2.91-2.56-2.76-2.74-5.47-5.49c-.92-.9-1.75-1.9-2.6-2.87L67,344.9q-2.52-2.94-5-5.92c1.91,1.74,3.81,3.48,5.68,5.24l2.79,2.65c.93.88,1.84,1.79,2.84,2.59l5.82,5L82.07,357l3,2.37c2,1.57,4,3.16,6,4.76s4.14,3,6.2,4.48c4.06,3.1,8.45,5.71,12.7,8.52a218.77,218.77,0,0,0,27.09,14.09A151.31,151.31,0,0,0,166.22,400.69Z"/><path class="cls-11" d="M57.74,340.14C82.49,343,148,355.33,159.93,407.58a63.09,63.09,0,0,0,12.23-3.4C159,333.82,55.65,335.31,55.65,335.31Q56.69,337.77,57.74,340.14Z"/><path class="cls-12" d="M141.6,377s-.37-22.61-15.75-53.26c-16.86-33.58-44.7-50.38-60.16-39.35-15,10.7-8.71,31.35,20.46,47.53S132.07,356,141.6,377Z"/><path class="cls-13" d="M74,294c6.53,4.38,12.73,9.15,18.77,14.09A206.21,206.21,0,0,1,109.91,324a149.13,149.13,0,0,1,14.9,17.91,111.53,111.53,0,0,1,11.36,20.43,79.83,79.83,0,0,0-4-11.11,90.45,90.45,0,0,0-5.66-10.42,116.29,116.29,0,0,0-14.72-18.58c-2.77-2.83-5.63-5.57-8.59-8.18s-6-5.09-9.21-7.44A133,133,0,0,0,74,294Z"/><path class="cls-11" d="M65.69,284.42a17.88,17.88,0,0,1,2.63-1.54c4.74,27,30.43,51.36,65.36,59,7.68,21.05,7.92,35.17,7.92,35.17-9.53-21-26.29-28.9-55.45-45.08S50.69,295.12,65.69,284.42Z"/><path class="cls-13" d="M347.45,398.93c-.81,5.35-6.19,9.73-11.95,9.73H165c-5.76,0-11.2-4.37-12.08-9.71L124.7,227.75c-.88-5.34,3.11-9.71,8.88-9.71H364.31c5.77,0,9.82,4.38,9,9.73Z"/><polygon class="cls-14" points="304.67 160.83 161.1 160.83 161.1 363.08 336.66 363.08 336.66 193.3 304.67 160.83"/><polygon class="cls-15" points="304.67 160.83 336.9 193.06 304.67 193.06 304.67 160.83"/><polygon class="cls-16" points="297.62 224.79 283.3 210.47 249 244.77 214.7 210.47 200.39 224.79 234.69 259.08 200.39 293.38 214.7 307.7 249 273.4 283.3 307.7 297.62 293.38 263.32 259.08 297.62 224.79"/><path class="cls-12" d="M265.66,276.78A11.86,11.86,0,0,1,255,268.92l-6.58-21.33a11.9,11.9,0,0,0-10.66-7.86h-117a6.67,6.67,0,0,0-6.79,8.1l28.55,160.86a10.21,10.21,0,0,0,9.66,8.11H354.83a10,10,0,0,0,9.52-8.13L384,284.74a6.81,6.81,0,0,0-6.95-8.12Z"/><path class="cls-17" d="M237.17,352.17a16.91,16.91,0,0,1,7.46-14.65l2.39-1.65a27,27,0,0,0,4.74-3.64,5,5,0,0,0,1.34-3.54q0-5.34-8.93-5.34a35.6,35.6,0,0,0-8.57,1.1,39.27,39.27,0,0,0-8.37,3.13V313.4a45.09,45.09,0,0,1,19-3.86q11.32,0,18,4.74a15.23,15.23,0,0,1,6.63,13.12,12.57,12.57,0,0,1-2.12,7.59,31.45,31.45,0,0,1-7.18,6.49q-3.41,2.49-5,3.83a8.91,8.91,0,0,0-2.34,3,9.46,9.46,0,0,0-.79,4.05v1.75h-16.2Zm1.89,22.05a8.73,8.73,0,0,1,0-12.11,8.36,8.36,0,0,1,6.12-2.39,8.49,8.49,0,0,1,6.12,2.44,8.43,8.43,0,0,1,0,12.06,8.53,8.53,0,0,1-6.12,2.44A8.32,8.32,0,0,1,239.06,374.22Z"/><path class="cls-11" d="M377.05,276.62H364.39q.42,4.38.42,8.84c0,66.43-71.1,120.29-158.81,120.29A201.76,201.76,0,0,1,140.14,395l2.44,13.74a10.21,10.21,0,0,0,9.66,8.11H354.83a10,10,0,0,0,9.52-8.13L384,284.74A6.81,6.81,0,0,0,377.05,276.62Z"/><g class="cls-18"><path class="cls-17" d="M133.69,263.6l1.8,12.12q2.16,14.4,4.3,28.82,2.63,17.55,5.24,35.11,2.24,15.06,4.49,30.13.75,5,1.49,10c.24,1.56.37,3.19.71,4.74a1.2,1.2,0,0,1,0,.2,2.6,2.6,0,0,0,3.17,1.8,2.64,2.64,0,0,0,1.79-3.17l-1.8-12.11q-2.16-14.42-4.3-28.83-2.62-17.55-5.24-35.1-2.25-15.07-4.49-30.14l-1.5-10c-.23-1.57-.36-3.19-.7-4.74a1.52,1.52,0,0,1,0-.21,2.59,2.59,0,0,0-3.17-1.79,2.63,2.63,0,0,0-1.79,3.16Z"/></g><path class="cls-19" d="M416,174.54a28.62,28.62,0,0,0-21.82,47.14L393,236.42l13.67-6.2A28.62,28.62,0,1,0,416,174.54Z"/><path class="cls-3" d="M414,217.82a2.73,2.73,0,0,1,1.94-4.67,2.69,2.69,0,0,1,2,.79,2.73,2.73,0,0,1,0,3.88,2.72,2.72,0,0,1-2,.78A2.64,2.64,0,0,1,414,217.82Zm-1.62-32.2h7.21l-1.34,23h-4.53Z"/><path class="cls-11" d="M400.33,218.33a51.87,51.87,0,0,1-9.07-.79,28.88,28.88,0,0,0,2.93,4.14L393,236.42l13.67-6.2a28.63,28.63,0,0,0,35.84-37.88C436.78,207.42,420.06,218.33,400.33,218.33Z"/><path class="cls-13" d="M122.75,166.8V139.66a6,6,0,0,0-5.93-5.93H67.35a5.94,5.94,0,0,0-5.92,5.93v34.2a5.93,5.93,0,0,0,5.92,5.92H137Z"/><path class="cls-17" d="M83.82,153c0,2.6-1.52,4.71-3.38,4.71s-3.38-2.11-3.38-4.71,1.51-4.72,3.38-4.72S83.82,150.34,83.82,153Z"/><path class="cls-17" d="M106.28,153c0,2.6-1.51,4.71-3.38,4.71s-3.38-2.11-3.38-4.71,1.51-4.72,3.38-4.72S106.28,150.34,106.28,153Z"/><path class="cls-17" d="M83.93,166.13a11.17,11.17,0,0,1,4.37-2.85c4.06-1.46,8,.07,11.07,2.85.83.74,2-.48,1.22-1.22-3.42-3.08-7.87-4.89-12.43-3.4a13.07,13.07,0,0,0-5.46,3.4c-.74.82.47,2,1.23,1.22Z"/><path class="cls-11" d="M122.75,166.8V139.66a6,6,0,0,0-5.93-5.93h-5.07a37.87,37.87,0,0,1,1.35,10c0,14.41-8.19,27.32-21.11,36.05h45Z"/><path class="cls-19" d="M293.7,318.81a40.62,40.62,0,1,0,57.45,0A40.61,40.61,0,0,0,293.7,318.81Zm52.79,52.79a34,34,0,1,1,0-48.13A34,34,0,0,1,346.49,371.6Z"/><circle class="cls-20" cx="322.42" cy="347.54" r="34.04"/><rect class="cls-9" x="366.94" y="363.08" width="7.2" height="65.14" transform="translate(-171.24 377.89) rotate(-45)"/><rect class="cls-19" x="352.39" y="369.11" width="7.2" height="23.99" transform="translate(-165.22 363.35) rotate(-45)"/><path class="cls-17" d="M302.6,333.54a17.36,17.36,0,0,1,7.53-8.83,22.59,22.59,0,0,1,23.13,0,17.22,17.22,0,0,1,7.52,8.84,78.14,78.14,0,0,0-10-2.86,46.16,46.16,0,0,0-9.1-.93,45.22,45.22,0,0,0-9.09.92A78,78,0,0,0,302.6,333.54Z"/></g></svg>