<svg id="Layer_1" data-name="Layer 1" xmlns="http://www.w3.org/2000/svg" viewBox="0 0 461 195"><defs><style>.cls-1{fill:#fefefe;}</style></defs><path class="cls-1" d="M457.75,159.93l-38.07-29.78c-4.33-3.38-10.51,2.61-6.14,6.14A157.47,157.47,0,0,1,431.29,153l-271.8,19.24c14.95-16.33,34.15-34.14,42.74-53,4.73-10.39,3.68-19-5.21-26.35-13.16-10.9-35-8.7-50.6-8.82q-46.8-.37-93.61.85c12.9-19.58,40.26-34.45,27.36-61.15C65.65-6.3,28.21-1.9,1.3,3.83-1,4.31,0,7.67,2.25,7.29,33.26,2,104.32,4.91,66,58.8,58.41,69.39,48.61,74.81,42.8,87c-1.21,2.52.21,5.83,3.32,5.78,35.11-.65,70.2-1,105.31-.64,24.61.29,54.39-.35,29.61,40.7-8.77,14.54-23.62,28.37-34.46,41.39-2.12,2.55-1,7.47,3,7.2L440.19,161a4.52,4.52,0,0,0,3.08-1.45l3.71,2.91-41,24.16c-4.94,2.91-.45,10.65,4.51,7.7q23.17-13.78,46.36-27.57C459,165.48,460,161.7,457.75,159.93Z"/></svg>