<svg xmlns="http://www.w3.org/2000/svg" xmlns:xlink="http://www.w3.org/1999/xlink" viewBox="0 0 2475 1650"><defs><style>.cls-1{fill:url(#linear-gradient);}.cls-2{opacity:0.81;}.cls-3{fill:#fbf6bd;}.cls-4{fill:#fef100;}.cls-5{opacity:0.88;}.cls-6{fill:url(#linear-gradient-2);}.cls-7{fill:url(#linear-gradient-3);}.cls-8{fill:url(#linear-gradient-4);}.cls-9{fill:url(#linear-gradient-5);}.cls-10{fill:url(#linear-gradient-6);}.cls-11{opacity:0.8;}.cls-12{fill:#faf191;}.cls-13,.cls-78,.cls-79{fill:#fff;}.cls-14{fill:url(#linear-gradient-7);}.cls-15{fill:url(#linear-gradient-8);}.cls-16{fill:url(#linear-gradient-9);}.cls-17{fill:url(#linear-gradient-10);}.cls-18{fill:url(#linear-gradient-11);}.cls-19{fill:url(#linear-gradient-12);}.cls-20{fill:url(#linear-gradient-13);}.cls-21{fill:url(#linear-gradient-14);}.cls-22{fill:url(#linear-gradient-15);}.cls-23{fill:url(#linear-gradient-16);}.cls-24{fill:url(#linear-gradient-17);}.cls-25{fill:url(#linear-gradient-18);}.cls-26{fill:url(#linear-gradient-19);}.cls-27{fill:url(#linear-gradient-20);}.cls-28{fill:url(#linear-gradient-21);}.cls-29{fill:url(#linear-gradient-22);}.cls-30{fill:url(#linear-gradient-23);}.cls-31{fill:url(#linear-gradient-24);}.cls-32{fill:url(#linear-gradient-25);}.cls-33{fill:#f4e000;}.cls-34{fill:url(#linear-gradient-26);}.cls-35{fill:url(#linear-gradient-27);}.cls-36{fill:url(#linear-gradient-28);}.cls-37{fill:url(#_5);}.cls-38{fill:url(#linear-gradient-29);}.cls-39{fill:url(#linear-gradient-30);}.cls-40{fill:url(#linear-gradient-31);}.cls-41{fill:url(#linear-gradient-32);}.cls-42{fill:url(#linear-gradient-33);}.cls-43{fill:url(#linear-gradient-34);}.cls-44{fill:url(#linear-gradient-35);}.cls-45{fill:url(#linear-gradient-36);}.cls-46{fill:url(#linear-gradient-37);}.cls-47{fill:url(#linear-gradient-38);}.cls-48{fill:url(#linear-gradient-39);}.cls-49{fill:url(#linear-gradient-40);}.cls-50{fill:url(#linear-gradient-41);}.cls-51{fill:url(#linear-gradient-42);}.cls-52{fill:url(#linear-gradient-43);}.cls-53{fill:url(#linear-gradient-44);}.cls-54{fill:url(#linear-gradient-45);}.cls-55{fill:url(#linear-gradient-46);}.cls-56{fill:url(#linear-gradient-47);}.cls-57{fill:url(#linear-gradient-48);}.cls-58{fill:url(#linear-gradient-49);}.cls-59{fill:url(#linear-gradient-50);}.cls-60{fill:url(#linear-gradient-51);}.cls-61{fill:url(#linear-gradient-52);}.cls-62{fill:url(#linear-gradient-53);}.cls-63{fill:url(#linear-gradient-54);}.cls-64{fill:url(#linear-gradient-55);}.cls-65{fill:url(#linear-gradient-56);}.cls-66{fill:url(#linear-gradient-57);}.cls-67{fill:url(#linear-gradient-58);}.cls-68{fill:url(#linear-gradient-59);}.cls-69{fill:url(#linear-gradient-60);}.cls-70{fill:url(#linear-gradient-61);}.cls-71{fill:url(#linear-gradient-62);}.cls-72{fill:url(#linear-gradient-63);}.cls-73{fill:url(#linear-gradient-64);}.cls-74{fill:url(#linear-gradient-65);}.cls-75{fill:url(#linear-gradient-66);}.cls-76{fill:url(#linear-gradient-67);}.cls-77{fill:url(#linear-gradient-68);}.cls-78{opacity:0.6;}.cls-79{opacity:0.78;}.cls-80{fill:url(#linear-gradient-69);}.cls-81{fill:url(#linear-gradient-70);}.cls-82{fill:url(#linear-gradient-71);}.cls-83{fill:url(#linear-gradient-72);}.cls-84{fill:url(#linear-gradient-73);}.cls-85{fill:url(#linear-gradient-74);}.cls-86{fill:url(#linear-gradient-75);}.cls-87{fill:url(#linear-gradient-76);}.cls-88{fill:url(#linear-gradient-77);}.cls-89{fill:url(#linear-gradient-78);}.cls-90{fill:url(#linear-gradient-79);}.cls-91{fill:url(#linear-gradient-80);}.cls-92{fill:url(#linear-gradient-81);}.cls-93{fill:url(#linear-gradient-82);}.cls-94{fill:url(#linear-gradient-83);}.cls-95{fill:url(#linear-gradient-84);}.cls-96{fill:url(#linear-gradient-85);}</style><linearGradient id="linear-gradient" x1="204.78" y1="777.68" x2="2308.04" y2="777.68" gradientUnits="userSpaceOnUse"><stop offset="0" stop-color="#fee900"/><stop offset="1" stop-color="#fde800"/></linearGradient><linearGradient id="linear-gradient-2" x1="894.21" y1="515.37" x2="632.36" y2="1610.37" gradientUnits="userSpaceOnUse"><stop offset="0" stop-color="#fe7062"/><stop offset="1" stop-color="#ff928e"/></linearGradient><linearGradient id="linear-gradient-3" x1="1307.27" y1="615.19" x2="1045.66" y2="1709.16" xlink:href="#linear-gradient-2"/><linearGradient id="linear-gradient-4" x1="1078" y1="559.39" x2="816.25" y2="1653.98" xlink:href="#linear-gradient-2"/><linearGradient id="linear-gradient-5" x1="1759.61" y1="723.63" x2="1498.1" y2="1817.22" xlink:href="#linear-gradient-2"/><linearGradient id="linear-gradient-6" x1="1478.79" y1="890.92" x2="1217.06" y2="1985.46" xlink:href="#linear-gradient-2"/><linearGradient id="linear-gradient-7" x1="1794.8" y1="854.66" x2="1806.45" y2="1444.79" gradientUnits="userSpaceOnUse"><stop offset="0" stop-color="#e2d740"/><stop offset="1" stop-color="#fff94f"/></linearGradient><linearGradient id="linear-gradient-8" x1="1434.32" y1="995.67" x2="1469.26" y2="1690.63" xlink:href="#linear-gradient-7"/><linearGradient id="linear-gradient-9" x1="1001.41" y1="1571.24" x2="1110.12" y2="938.41" xlink:href="#linear-gradient-7"/><linearGradient id="linear-gradient-10" x1="709.73" y1="1443.79" x2="758.25" y2="1793.16" xlink:href="#linear-gradient-7"/><linearGradient id="linear-gradient-11" x1="601.4" y1="1631.45" x2="602.45" y2="1742.13" gradientUnits="userSpaceOnUse"><stop offset="0" stop-color="#5d4400"/><stop offset="1" stop-color="#91560f"/></linearGradient><linearGradient id="linear-gradient-12" x1="574.72" y1="1507.85" x2="568.98" y2="1462.95" gradientUnits="userSpaceOnUse"><stop offset="0" stop-color="#ff928e"/><stop offset="1" stop-color="#feb3b1"/></linearGradient><linearGradient id="linear-gradient-13" x1="451.86" y1="1632.86" x2="452.91" y2="1743.54" xlink:href="#linear-gradient-11"/><linearGradient id="linear-gradient-14" x1="449.2" y1="1523.23" x2="443.6" y2="1479.48" xlink:href="#linear-gradient-12"/><linearGradient id="linear-gradient-15" x1="410.09" y1="1356.98" x2="582.35" y2="1356.98" xlink:href="#linear-gradient-7"/><linearGradient id="linear-gradient-16" x1="445.82" y1="1330.55" x2="452.09" y2="1318.02" xlink:href="#linear-gradient-7"/><linearGradient id="linear-gradient-17" x1="548.92" y1="1067.36" x2="441.37" y2="1386.87" xlink:href="#linear-gradient-11"/><linearGradient id="linear-gradient-18" x1="553.74" y1="1122.87" x2="564.07" y2="1122.87" xlink:href="#linear-gradient-7"/><linearGradient id="linear-gradient-19" x1="491.5" y1="1235.87" x2="569.93" y2="1235.87" xlink:href="#linear-gradient-12"/><linearGradient id="linear-gradient-20" x1="563.78" y1="1137.55" x2="710.25" y2="1137.55" xlink:href="#linear-gradient-12"/><linearGradient id="linear-gradient-21" x1="546.44" y1="1005.65" x2="530.05" y2="1072.07" xlink:href="#linear-gradient-12"/><linearGradient id="linear-gradient-22" x1="607.9" y1="990.38" x2="546.65" y2="991.24" xlink:href="#linear-gradient-12"/><linearGradient id="linear-gradient-23" x1="536.44" y1="990.42" x2="612.35" y2="990.42" xlink:href="#linear-gradient-11"/><linearGradient id="linear-gradient-24" x1="536.73" y1="1003.25" x2="520.33" y2="1069.67" xlink:href="#linear-gradient-12"/><linearGradient id="linear-gradient-25" x1="466.33" y1="1144.65" x2="523.73" y2="1144.65" xlink:href="#linear-gradient-7"/><linearGradient id="linear-gradient-26" x1="864.91" y1="1508.3" x2="889.19" y2="1355.59" xlink:href="#linear-gradient-11"/><linearGradient id="linear-gradient-27" x1="874.61" y1="1509.85" x2="898.89" y2="1357.14" xlink:href="#linear-gradient-11"/><linearGradient id="linear-gradient-28" x1="855.89" y1="1506.87" x2="880.17" y2="1354.16" xlink:href="#linear-gradient-11"/><linearGradient id="_5" x1="785.78" y1="1404.8" x2="771.97" y2="1544.55" gradientUnits="userSpaceOnUse"><stop offset="0" stop-color="#ff928e"/><stop offset="0.48" stop-color="#ffa29f"/><stop offset="1" stop-color="#feb3b1"/></linearGradient><linearGradient id="linear-gradient-29" x1="799.97" y1="1463.11" x2="788.22" y2="1643.23" xlink:href="#linear-gradient-11"/><linearGradient id="linear-gradient-30" x1="657.32" y1="1416.53" x2="825.86" y2="1416.53" xlink:href="#linear-gradient-12"/><linearGradient id="linear-gradient-31" x1="761.31" y1="1328.61" x2="950.12" y2="1328.61" gradientUnits="userSpaceOnUse"><stop offset="0" stop-color="#e1473d"/><stop offset="1" stop-color="#e9605a"/></linearGradient><linearGradient id="linear-gradient-32" x1="686.61" y1="1455.72" x2="674.86" y2="1635.84" xlink:href="#linear-gradient-11"/><linearGradient id="linear-gradient-33" x1="952.28" y1="1095.78" x2="887.74" y2="1158.92" xlink:href="#linear-gradient-11"/><linearGradient id="linear-gradient-34" x1="839.11" y1="1148.02" x2="839.11" y2="1184.25" xlink:href="#linear-gradient-12"/><linearGradient id="linear-gradient-35" x1="866.48" y1="1103.85" x2="821.62" y2="1094.36" xlink:href="#linear-gradient-12"/><linearGradient id="linear-gradient-36" x1="895.51" y1="1037.69" x2="830.89" y2="1100.91" xlink:href="#linear-gradient-11"/><linearGradient id="linear-gradient-37" x1="865.86" y1="1106.74" x2="821.01" y2="1097.25" xlink:href="#linear-gradient-12"/><linearGradient id="linear-gradient-38" x1="553.02" y1="1278.88" x2="711.33" y2="1278.88" xlink:href="#linear-gradient-12"/><linearGradient id="linear-gradient-39" x1="821.59" y1="1391.63" x2="721.93" y2="1418.95" gradientTransform="translate(8.67 -86.8) rotate(-2.83)" xlink:href="#linear-gradient-11"/><linearGradient id="linear-gradient-40" x1="763.14" y1="1198.2" x2="692.42" y2="1272.94" xlink:href="#linear-gradient-11"/><linearGradient id="linear-gradient-41" x1="720.39" y1="1216.81" x2="688.3" y2="1265.12" gradientTransform="translate(413.12 -157.02) rotate(17.84)" xlink:href="#linear-gradient-7"/><linearGradient id="linear-gradient-42" x1="507.22" y1="1285.21" x2="628.95" y2="1285.21" xlink:href="#linear-gradient-2"/><linearGradient id="linear-gradient-43" x1="565.01" y1="1354.51" x2="564.49" y2="1323.21" gradientUnits="userSpaceOnUse"><stop offset="0" stop-color="#a22b25"/><stop offset="1" stop-color="#c0423c"/></linearGradient><linearGradient id="linear-gradient-44" x1="1451.79" y1="198.53" x2="844.75" y2="792.37" xlink:href="#linear-gradient-11"/><linearGradient id="linear-gradient-45" x1="762.72" y1="627.57" x2="703.47" y2="685.53" xlink:href="#linear-gradient-11"/><linearGradient id="linear-gradient-46" x1="993.23" y1="501.62" x2="933.98" y2="559.58" gradientTransform="translate(1260.48 -511.57) rotate(76.72)" xlink:href="#linear-gradient-11"/><linearGradient id="linear-gradient-47" x1="1209.48" y1="591.93" x2="1150.24" y2="649.89" gradientTransform="translate(788.68 -642.32) rotate(45)" xlink:href="#linear-gradient-11"/><linearGradient id="linear-gradient-48" x1="1390.09" y1="413.7" x2="1330.84" y2="471.66" xlink:href="#linear-gradient-11"/><linearGradient id="linear-gradient-49" x1="1613.47" y1="285.37" x2="1554.22" y2="343.33" gradientTransform="translate(1271.07 -1253.69) rotate(67.5)" xlink:href="#linear-gradient-11"/><linearGradient id="linear-gradient-50" x1="1049.71" y1="1521.2" x2="1069.55" y2="1425.96" gradientTransform="translate(333.84)" xlink:href="#linear-gradient-31"/><linearGradient id="linear-gradient-51" x1="1188.26" y1="1542.82" x2="1268.14" y2="1542.82" gradientTransform="translate(333.84)" xlink:href="#linear-gradient-7"/><linearGradient id="linear-gradient-52" x1="1249.81" y1="1389.21" x2="1227.98" y2="1540.01" gradientTransform="translate(333.84)" xlink:href="#linear-gradient-11"/><linearGradient id="linear-gradient-53" x1="1192.25" y1="1518.75" x2="1213.86" y2="1518.75" gradientTransform="translate(333.84)" xlink:href="#linear-gradient-12"/><linearGradient id="linear-gradient-54" x1="1313.55" y1="1526.99" x2="1378.05" y2="1526.99" gradientTransform="translate(333.84)" xlink:href="#linear-gradient-7"/><linearGradient id="linear-gradient-55" x1="1357.92" y1="1404.86" x2="1336.09" y2="1555.66" gradientTransform="translate(333.84)" xlink:href="#linear-gradient-11"/><linearGradient id="linear-gradient-56" x1="1491.17" y1="1379.54" x2="1475" y2="1455.24" xlink:href="#linear-gradient-11"/><linearGradient id="linear-gradient-57" x1="1294.63" y1="1520.56" x2="1320.43" y2="1520.56" gradientTransform="translate(333.84)" xlink:href="#linear-gradient-12"/><linearGradient id="linear-gradient-58" x1="1526.72" y1="1261.8" x2="1511.84" y2="1356.26" xlink:href="#linear-gradient-11"/><linearGradient id="linear-gradient-59" x1="1506.86" y1="1139.33" x2="1546.33" y2="1115.39" xlink:href="#linear-gradient-12"/><linearGradient id="linear-gradient-60" x1="1493.7" y1="1258.95" x2="1411.2" y2="1464.44" xlink:href="#linear-gradient-11"/><linearGradient id="linear-gradient-61" x1="1505.81" y1="1199.74" x2="1408.32" y2="1305.85" xlink:href="#linear-gradient-7"/><linearGradient id="linear-gradient-62" x1="1259.98" y1="1281.7" x2="1319.58" y2="1281.7" gradientTransform="translate(333.84)" gradientUnits="userSpaceOnUse"><stop offset="0" stop-color="#f9b776"/><stop offset="1" stop-color="#f47960"/></linearGradient><linearGradient id="linear-gradient-63" x1="1644.49" y1="1049.94" x2="1638.02" y2="1210.4" xlink:href="#linear-gradient-11"/><linearGradient id="linear-gradient-64" x1="1547.33" y1="1109.94" x2="1500.75" y2="1141" xlink:href="#linear-gradient-12"/><linearGradient id="linear-gradient-65" x1="1735.36" y1="-591.56" x2="1792.64" y2="-517.82" gradientTransform="matrix(0.92, 0.39, -0.39, 0.92, -315.66, 945.68)" xlink:href="#linear-gradient-11"/><linearGradient id="linear-gradient-66" x1="1537.69" y1="1095.48" x2="1491.1" y2="1126.54" xlink:href="#linear-gradient-12"/><linearGradient id="linear-gradient-67" x1="1645.81" y1="995.68" x2="1740.97" y2="885.23" gradientTransform="matrix(0.6, 0.8, -0.8, 0.6, 1394.62, -1039.52)" xlink:href="#linear-gradient-31"/><linearGradient id="linear-gradient-68" x1="1794.74" y1="804.67" x2="1513.35" y2="1229.77" gradientTransform="translate(465.4 -595.31) rotate(22.3)" xlink:href="#linear-gradient-12"/><linearGradient id="linear-gradient-69" x1="1786.35" y1="816.85" x2="1636.51" y2="1068.4" xlink:href="#linear-gradient-31"/><linearGradient id="linear-gradient-70" x1="1775.84" y1="995.03" x2="1941.5" y2="802.75" gradientTransform="translate(1134.51 -1141.23) rotate(45)" xlink:href="#linear-gradient-31"/><linearGradient id="linear-gradient-71" x1="2035.1" y1="662.51" x2="1545.25" y2="1402.54" gradientTransform="translate(2280.47 -1276.7) rotate(76.85)" xlink:href="#linear-gradient-12"/><linearGradient id="linear-gradient-72" x1="2020.49" y1="683.71" x2="1759.65" y2="1121.61" xlink:href="#linear-gradient-31"/><linearGradient id="linear-gradient-73" x1="1856.11" y1="1276.57" x2="2026.57" y2="1078.71" gradientTransform="translate(2468.69 -1179.96) rotate(73.11)" xlink:href="#linear-gradient-31"/><linearGradient id="linear-gradient-74" x1="2122.9" y1="934.41" x2="1618.84" y2="1695.89" gradientTransform="translate(1354.52 -1120.66) rotate(45)" xlink:href="#linear-gradient-12"/><linearGradient id="linear-gradient-75" x1="2107.86" y1="956.22" x2="1839.46" y2="1406.82" xlink:href="#linear-gradient-31"/><linearGradient id="linear-gradient-76" x1="2065.63" y1="1049.5" x2="2190.53" y2="904.53" gradientTransform="translate(2926.03 -1353.41) rotate(85.66)" xlink:href="#linear-gradient-31"/><linearGradient id="linear-gradient-77" x1="2261.1" y1="798.8" x2="1891.78" y2="1356.73" gradientTransform="translate(2068.68 -1466.28) rotate(64.64)" xlink:href="#linear-gradient-12"/><linearGradient id="linear-gradient-78" x1="2250.08" y1="814.78" x2="2053.43" y2="1144.93" xlink:href="#linear-gradient-31"/><linearGradient id="linear-gradient-79" x1="-3003.82" y1="2964.68" x2="-3072.46" y2="3056.9" gradientTransform="matrix(0.74, -0.67, -0.67, -0.74, 5647.86, 393.19)" xlink:href="#linear-gradient-31"/><linearGradient id="linear-gradient-80" x1="-1762.73" y1="2620.65" x2="-1721.39" y2="2536.41" gradientTransform="matrix(0.01, -1, -1, -0.01, 3992.91, -1411.05)" xlink:href="#linear-gradient-7"/><linearGradient id="linear-gradient-81" x1="-1546.77" y1="2624.59" x2="-1611.12" y2="2515.79" gradientTransform="matrix(0.01, -1, -1, -0.01, 3992.91, -1411.05)" xlink:href="#linear-gradient-7"/><linearGradient id="linear-gradient-82" x1="1466.59" y1="230.69" x2="1586.59" y2="192.69" xlink:href="#linear-gradient-7"/><linearGradient id="linear-gradient-83" x1="-1627.77" y1="2319.33" x2="-1715.13" y2="2445.68" gradientTransform="matrix(0.01, -1, -1, -0.01, 3992.91, -1411.05)" xlink:href="#linear-gradient-11"/><linearGradient id="linear-gradient-84" x1="-1686.87" y1="2427.22" x2="-1631.4" y2="2427.22" gradientTransform="matrix(0.01, -1, -1, -0.01, 3992.91, -1411.05)" xlink:href="#linear-gradient-11"/><linearGradient id="linear-gradient-85" x1="-1677.79" y1="2492.7" x2="-1641.14" y2="2492.7" gradientTransform="matrix(0.01, -1, -1, -0.01, 3992.91, -1411.05)" xlink:href="#linear-gradient-11"/></defs><g id="Illustration"><path class="cls-1" d="M633.57,179.86C513,256.09,427.75,197.22,354.86,278c-227.39,251.87,60.76,347.33-73.09,386-145.36,42-54.93,227.08,26.86,280.58s142.62,85.7,26.41,140.39-136.51,115.18-87.78,213.6,141,129.43,524.68,135.27,1126.6-6.54,1329.27-62.54,54.93-200.1,140.14-307.74,102-170.83-28.53-275.25-56.16-212.46-17-288.67,69.33-214.42-87.94-253.84-340.13,117.87-419.23,38-44.27-185.89-217-159.21-230.82,233.2-381.46,221.84S889.21,18.26,633.57,179.86Z"/><g class="cls-2"><path class="cls-3" d="M769.69,1515.71s-20-230.41-323.65-310.87c-202.6-53.69-259.76-114.79-275.35-140.1a3.44,3.44,0,0,0-6.38,1.74c-.46,42.8,13.06,177.51,187.62,283.6C562.3,1477.94,686.92,1425.09,769.69,1515.71Z"/></g><g class="cls-2"><path class="cls-3" d="M1618.33,1471.06S1111.78,946.75,1890.67,245.3c0,0,46.32,301.41-142.2,602.35S1539.18,1328.27,1618.33,1471.06Z"/><path class="cls-4" d="M1761.42,533c-26.12,29.23-49.35,61.06-70.53,94-10.63,16.46-20.77,33.24-30.27,50.36s-18.62,34.45-27.06,52.1c-33.9,70.54-58.86,145.33-73,222.19-3.58,19.21-6.52,38.54-8.64,58s-3.75,38.9-4.54,58.43c-.55,9.76-.56,19.53-.8,29.3.1,9.77,0,19.55.38,29.32.46,19.55,1.77,39.07,3.57,58.56,7.5,77.93,25.71,154.77,51.93,228.88a1.14,1.14,0,0,1-2.14.81A922.52,922.52,0,0,1,1563,1302.68a833.94,833.94,0,0,1-21.8-116.48,804.77,804.77,0,0,1,8-236.65q5.3-29.24,12.84-58t17-56.94c6.28-18.78,13.41-37.27,21-55.54s15.85-36.28,24.78-53.94,18.35-35,28.37-52.09,20.75-33.66,31.91-50,23.06-32.09,35.44-47.46a522.08,522.08,0,0,1,39.36-44.24,1.15,1.15,0,0,1,1.66,1.58Z"/></g><g class="cls-5"><path class="cls-3" d="M649.16,358.31c-9.74-15.45-33.69-6.74-31.26,11.36C630.43,463,645.31,625.86,616,732.32c-43.15,156.52-120.72,616.92,316.77,733.48C932.73,1465.8,891.06,742,649.16,358.31Z"/><path class="cls-4" d="M688,550.79A189,189,0,0,1,700,579c3.36,9.65,6.07,19.51,8.62,29.42A487.74,487.74,0,0,1,719,668.88l1.45,15.28c.47,5.09.64,10.2,1,15.31.73,10.21.84,20.43,1,30.67,0,2.55.11,5.12.06,7.67l-.19,7.67-.37,15.34c0,5.12-.53,10.2-.79,15.31l-.93,15.31c-1.45,20.48-4.34,40.75-7.18,60.85l-8.82,60c-5.71,39.84-9.72,79.73-9.8,119.55a488.55,488.55,0,0,0,14,118c2.69,9.54,5,19.21,8.32,28.56,1.59,4.7,3,9.46,4.74,14.11l5.4,13.88c.92,2.31,1.76,4.65,2.73,6.93l3,6.82,6.05,13.64c2.18,4.46,4.49,8.88,6.73,13.32s4.37,9,7,13.23l7.47,13c1.26,2.15,2.46,4.34,3.77,6.47l4.07,6.29,8.08,12.62,2,3.17,2.17,3.06,4.35,6.12,8.71,12.24c2.93,4.06,6.15,7.91,9.22,11.88l9.31,11.84c3.16,3.89,6.5,7.65,9.74,11.49,26.06,30.63,54.81,59,84.8,86.26a1.14,1.14,0,0,1,.09,1.62,1.17,1.17,0,0,1-1.55.15,753.76,753.76,0,0,1-91-81.14c-3.49-3.72-7.12-7.33-10.51-11.15l-10-11.62c-3.29-3.91-6.74-7.69-9.91-11.7l-9.43-12.12L769,1312.7l-2.35-3-2.21-3.15-8.81-12.62-4.38-6.33c-1.41-2.14-2.72-4.35-4.08-6.53L739,1267.93c-21.33-35.19-37.35-73.66-48.37-113.49-10.79-39.93-15.65-81.36-15.78-122.53-.43-41.23,4.39-82.11,10.36-122.37s14.16-79.92,18.42-119.63l1.46-15c.43-5,1.11-10,1.32-15l.91-15,.46-7.51c.14-2.5.14-5,.22-7.51.23-10,.73-20,.48-30.06-.07-5,0-10-.18-15l-.67-15A527.18,527.18,0,0,0,701.25,610c-1.74-9.88-3.64-19.76-6.2-29.47A208.15,208.15,0,0,0,686,551.84l0-.07a1.14,1.14,0,0,1,2.06-1Z"/></g><rect class="cls-6" x="643.44" y="883.04" width="174.32" height="633.05" rx="17.61"/><path class="cls-7" d="M1245,807.35H1106.19c-9.72,0-17.78,9.35-17.78,20.25v667.55c0,10.89,8.06,20.94,17.78,20.94H1245c9.73,0,20.07-10,20.07-20.94V827.6C1265,816.7,1254.68,807.35,1245,807.35Z"/><rect class="cls-8" x="861.34" y="685.78" width="174.32" height="830.31" rx="17.61"/><rect class="cls-9" x="1615.95" y="403.66" width="174.32" height="1112.43" rx="17.61"/><rect class="cls-10" x="1356.77" y="557.34" width="174.32" height="958.75" rx="17.61"/><g class="cls-11"><path class="cls-12" d="M800.16,1505.49s-196.48,68-343.27-146.93c-137.89-201.92-55-454.39,5.8-598.63a8.07,8.07,0,0,1,15.42,2c18.25,121.44,103.15,596.31,332.54,743.24Z"/><path class="cls-13" d="M779.33,1510.33c-25-3.51-49.12-11.34-72.52-20.73A373.23,373.23,0,0,1,581.92,1405a411.39,411.39,0,0,1-47.49-59.43,479.93,479.93,0,0,1-35.28-67.39l-6.83-17.76-3.32-8.9-2.82-9.08-5.62-18.14c-1.61-6.12-3.06-12.28-4.52-18.44a542,542,0,0,1-13.52-150.08,1.15,1.15,0,0,1,2.3-.06v0q1.95,18.69,3.5,37.3l2.43,18.53c.81,6.17,1.39,12.36,2.39,18.49s2.11,12.25,3.12,18.37,1.9,12.26,3.38,18.28c2.76,12.08,4.83,24.31,8.37,36.17l4.77,17.92,5.66,17.64,2.82,8.81,3.32,8.64,6.56,17.29A474.78,474.78,0,0,0,545,1338.78a400.8,400.8,0,0,0,45.16,58.32,375,375,0,0,0,55.38,48.9,405.71,405.71,0,0,0,63.84,37.72c22.49,10.39,46,19.11,70.26,24.34l.08,0a1.14,1.14,0,0,1-.4,2.25Z"/></g><path class="cls-14" d="M1480.91,1395.45l320.78-614.54H1736a14.35,14.35,0,0,1-11.1-23.46l341.88-416.68c14.82-18.06,44.09-6.61,42.72,16.71l-24,407.47a40.71,40.71,0,0,1-45.27,38l-45.82-5.24L1676.06,1487a50.67,50.67,0,0,1-46,29.43H1519.74Z"/><path class="cls-15" d="M1215.7,964.45l226.46,503.05a83.06,83.06,0,0,0,75.73,49h116.75a42.61,42.61,0,0,0,37.27-22l4.15-7.48h0a33.4,33.4,0,0,1-29.73-18.21L1344.6,877.62Z"/><path class="cls-16" d="M1375.08,937.34h0a49.51,49.51,0,0,0-71.92,11.42L970.2,1449a143.83,143.83,0,0,1-119.74,64.14H803.61l-38.13-109.84S1075,928.69,1154.8,856.89c0,0,79.45-71.6,157.79-17.46,20.7,14.3,36.41,34.71,46,58Z"/><path class="cls-17" d="M403.34,1107.9s55.73-69.66,163.74-80.5c0,0,51.29,17.48,153.49,200.6s170,266.62,249.63,221L963.61,1460a120.05,120.05,0,0,1-102.84,58.11h-44a150.61,150.61,0,0,1-122.28-62.65C614.93,1344.84,452.2,1125.07,403.34,1107.9Z"/><path class="cls-12" d="M2070.89,486.58a2.55,2.55,0,0,1-.39,0,3.43,3.43,0,0,1-3-3.8l2.25-19.9a3.44,3.44,0,0,1,6.84.77l-2.25,19.9A3.44,3.44,0,0,1,2070.89,486.58Z"/><path class="cls-12" d="M1785.5,737.73a3.44,3.44,0,0,1-2.73-5.54l282.31-366.82a12.1,12.1,0,0,1,21.62,8.74l-5,44a3.44,3.44,0,0,1-6.84-.77l5-44a5.22,5.22,0,0,0-9.32-3.77L1788.22,736.39A3.41,3.41,0,0,1,1785.5,737.73Z"/><path class="cls-12" d="M1145,1122.29a3.41,3.41,0,0,1-1.92-.59,3.45,3.45,0,0,1-.93-4.78l146-216.42a26,26,0,0,1,45,3.42,3.44,3.44,0,1,1-6.22,2.94,19.12,19.12,0,0,0-33.13-2.51l-146,216.42A3.46,3.46,0,0,1,1145,1122.29Z"/><path class="cls-12" d="M1107.1,1178.53a3.49,3.49,0,0,1-1.92-.59,3.45,3.45,0,0,1-.93-4.78l9.36-13.88a3.44,3.44,0,0,1,5.71,3.85L1110,1177A3.46,3.46,0,0,1,1107.1,1178.53Z"/><g class="cls-2"><path class="cls-12" d="M2262.88,727.41c-127.41,56.48-465.85,252-612,778.85,0,0,197.11,3.31,345-312.8C2122.38,923.12,2195.11,813.9,2272.56,742,2279.9,735.19,2272,723.35,2262.88,727.41Z"/><path class="cls-4" d="M1675.37,1476.77c5.57-15.82,11.71-31.39,18.08-46.87s13-30.85,20-46.09,14-30.44,21.43-45.45q5.48-11.31,11.18-22.5c3.75-7.49,7.64-14.91,11.56-22.31,15.54-29.69,32.05-58.88,49.22-87.67s35.47-56.91,54.25-84.69c37.76-55.41,78.92-108.61,124.08-158.23l17.16-18.4c5.75-6.1,11.76-12,17.63-17.95l8.85-8.93,9.11-8.67c6.14-5.71,12.16-11.55,18.39-17.15a935.9,935.9,0,0,1,78.08-63.23,1.15,1.15,0,0,1,1.4,1.82l0,0c-25.94,21-51.15,42.85-75,66.1-23.63,23.49-46.8,47.42-68.56,72.65-43.76,50.2-83.83,103.55-121,158.8q-27.89,41.45-53.66,84.29c-17.22,28.52-33.76,57.45-49.9,86.61-32.13,58.4-62.4,117.91-90.1,178.68v0a1.14,1.14,0,0,1-2.12-.85Z"/></g><g class="cls-2"><path class="cls-3" d="M1650.91,1511.11s56.26-220.6,364-250.26c205.36-19.8,270.64-70,289.82-92.12a3.39,3.39,0,0,1,5.92,2.71c-6.39,41.65-41,170.34-227.52,245.51C1858.38,1507.54,1745.78,1436.31,1650.91,1511.11Z"/><path class="cls-4" d="M1667.11,1468.5c19-18.65,40-35,61.88-50.09,11-7.52,22.16-14.77,33.7-21.44s23.21-13.15,35.2-19,24.26-11.24,36.63-16.35c12.45-4.93,25.11-9.39,38-13.22,3.22-.95,6.42-2,9.66-2.86l9.74-2.57c6.46-1.84,13.09-3,19.65-4.51q9.92-1.89,19.89-3.47l10-1.33,5-.66,5-.45,10.08-.89c3.35-.35,6.73-.35,10.1-.53l10.1-.4,10.13.1c6.75-.06,13.48.54,20.22,1l9.88.69,9.72.72c6.48.33,13,.62,19.45.77,6.48,0,13,.2,19.44,0a330.86,330.86,0,0,0,38.68-2.88c25.63-3.23,50.86-9.85,74.2-20.88a179.64,179.64,0,0,0,16.93-9.32,150.28,150.28,0,0,0,15.8-11.19,133.41,133.41,0,0,0,14.18-13.24,83.45,83.45,0,0,0,11.64-15.45l0-.08a1.14,1.14,0,0,1,2,1,86.27,86.27,0,0,1-10.5,17.23,126.81,126.81,0,0,1-13.53,14.94c-9.71,9.37-20.9,17.08-32.6,23.8a210.83,210.83,0,0,1-37.06,16.14,254.27,254.27,0,0,1-39.2,9.72,346.2,346.2,0,0,1-40.06,4.49c-13.41.92-26.82.71-40.21.32l-10-.51-9.86-.47c-6.44-.23-12.86-.67-19.31-.46l-9.66,0-9.66.45c-3.21.21-6.44.22-9.64.58l-9.63.92c-25.68,2.6-51,8.18-75.92,15.32a567.84,567.84,0,0,0-73,27c-6,2.64-11.84,5.42-17.75,8.17s-11.74,5.7-17.51,8.75c-11.57,6.05-23.12,12.2-34.4,18.85s-22.52,13.4-33.48,20.63-21.9,14.56-32.45,22.39l0,0a1.15,1.15,0,0,1-1.61-.23A1.17,1.17,0,0,1,1667.11,1468.5Z"/></g><path class="cls-18" d="M567.82,1500.92a149.35,149.35,0,0,0-1.81,15.76,6.79,6.79,0,0,0,6.12,7.17c12.66,1.23,41.48,3.49,59.88.84a3.09,3.09,0,0,0,1.7-5.31c-7.59-7.07-25.92-20.82-56.08-23.83Z"/><path class="cls-19" d="M561.53,1484.67l6.4,15.69a5.22,5.22,0,0,0,5.37,3.24,28,28,0,0,0,5.22-1,6.87,6.87,0,0,0,4.57-8.54l-4.83-16.16Z"/><path class="cls-20" d="M452.09,1513.41s12.81,10.73,17.81,24.48a5.85,5.85,0,0,1-5.56,7.77H438a6.21,6.21,0,0,1-6.15-7.27C433.5,1528.89,438.34,1513.45,452.09,1513.41Z"/><path class="cls-21" d="M436.21,1499.45s2.59,11.46,4.58,19a2.42,2.42,0,0,0,3.16,1.65c4-1.43,7.24-2.06,9.6-1.74a1.87,1.87,0,0,0,2.06-1.87l.25-19Z"/><path class="cls-22" d="M504.38,1241.58l78,237.86s-15,9.79-22.08,9.38l-92.61-191.15s-16.21,117.78-8.35,202.34l-26.53,2s-43.13-216.09-10.46-290.1Z"/><path class="cls-23" d="M468.16,1295.61h-.09a.76.76,0,0,1-.66-.85l3-24a.76.76,0,0,1,.84-.66.76.76,0,0,1,.66.85l-3,24A.76.76,0,0,1,468.16,1295.61Z"/><path class="cls-24" d="M519,1032.28s-63.17,5.61-54.24,50.61c0,0-34.91,65.72-51.24,143.12a4.55,4.55,0,0,0,3.7,5.41l105.19,18a5.68,5.68,0,0,0,6.44-4.17L554,1148.13l9.8,45.17,31.12-8.11-26.2-132.72S565.05,1033.11,519,1032.28Z"/><path class="cls-25" d="M554.52,1143.79l-.17,0a.79.79,0,0,1-.6-.93l8.77-40.27a.78.78,0,1,1,1.53.34l-8.77,40.26A.78.78,0,0,1,554.52,1143.79Z"/><path class="cls-26" d="M548.17,1263.6a15,15,0,0,0-10.86-1.41L530,1264a2.65,2.65,0,0,1-3.28-2.28l-7.57-67.41c-9.47,4.49-23.14,4-27.64,3.63l17.43,79.47h61Z"/><path class="cls-27" d="M710.25,1117.37l-1.84-6.13a12.13,12.13,0,0,0-7.08-7.75L668,1090.08s-.51-4.28,7-7.19,5.79-11.36,5.79-11.36-10.32,4.71-25.42,12.17c-8.63,4.27-13.48,11.8-16,17.47l-75.56,92.13,8.87,6.09A23.68,23.68,0,0,0,607,1191l40.94-78.5C668.48,1118.64,689.28,1119.82,710.25,1117.37Z"/><path class="cls-28" d="M539.46,989.3,520,1043.68s17.21,13.45,29.76,8.9l9.79-31.17S552.1,983.32,539.46,989.3Z"/><path class="cls-29" d="M597.45,969.77c0,.84-18.72,53-18.72,53l-29.54-11.31,10.39-52.06S597.45,955.75,597.45,969.77Z"/><path class="cls-30" d="M564.76,972.06l-7.61,27a3.7,3.7,0,0,0-.15,1.05c0,2.2.54,9.77,8.25,8.74,7-.93,13.4-1.68,17.47.23a3.93,3.93,0,0,1,2,4.87,170.11,170.11,0,0,1-10.65,24,3.91,3.91,0,0,1-5,1.61c-5.55-2.53-17.1-8.18-25.33-14.91a3.92,3.92,0,0,1-1.39-3.76c1.3-6.9,5.15-27.88,5.32-33.9.16-5.64-6.17-10-9-11.57A3.87,3.87,0,0,1,536.9,973c-.88-3.63-1.62-11.85,8.87-13.67a3.92,3.92,0,0,0,3.18-4.66c-.89-4.34-.6-10.74,7.65-13.1s13.66,2.66,16.35,6.53a3.92,3.92,0,0,0,4.85,1.3,3.1,3.1,0,0,1,3.48.62,3.86,3.86,0,0,0,5.64-.86c2.44-3.6,6.89-7.19,14.41-4.76,13.35,4.32,12.71,19.71,7.82,28.08s-19.1,2.86-25.83-2.69c-5.11-4.21-12.9-1.69-16.33-.24A3.91,3.91,0,0,0,564.76,972.06Z"/><path class="cls-31" d="M545,996.84s7.9-14.94,2.67-19.64-14.07-3.92-13.83,7.77C534.13,999.5,545,996.84,545,996.84Z"/><path class="cls-32" d="M497.63,1199c-4.31,0-7.39-.33-7.72-.36l-.56-.07-23-107.24a.77.77,0,0,1,.6-.93.79.79,0,0,1,.93.6l22.76,106.13c3.42.3,21.7,1.51,31.35-5.32l-19.92-93.17,4.16-7.84a.78.78,0,1,1,1.38.73l-3.89,7.34,20,93.6-.4.3C516.36,1198,505.13,1199,497.63,1199Z"/><path class="cls-33" d="M527.39,1554.85a4.09,4.09,0,0,1-1.78-.41,5.13,5.13,0,0,1-2.38-6.49l95-241a4.41,4.41,0,0,1,6-2.59,5.14,5.14,0,0,1,2.37,6.5l-95,241A4.54,4.54,0,0,1,527.39,1554.85Z"/><path class="cls-33" d="M634.42,1554.85a4.54,4.54,0,0,1-4.17-3l-95-241a5.13,5.13,0,0,1,2.37-6.5,4.39,4.39,0,0,1,6,2.59l95,241a5.11,5.11,0,0,1-2.37,6.49A4.09,4.09,0,0,1,634.42,1554.85Z"/><path class="cls-33" d="M931.77,1554.85a4.13,4.13,0,0,1-1.79-.41,5.12,5.12,0,0,1-2.37-6.49l95-241a4.4,4.4,0,0,1,5.95-2.59,5.14,5.14,0,0,1,2.38,6.5l-95,241A4.52,4.52,0,0,1,931.77,1554.85Z"/><path class="cls-33" d="M1038.79,1554.85a4.54,4.54,0,0,1-4.16-3l-95-241a5.13,5.13,0,0,1,2.37-6.5,4.39,4.39,0,0,1,6,2.59l95,241a5.11,5.11,0,0,1-2.37,6.49A4.1,4.1,0,0,1,1038.79,1554.85Z"/><rect class="cls-34" x="868.06" y="1392.41" width="11.23" height="121.47"/><path class="cls-35" d="M922.87,1516.23H824.49v-.53a6.79,6.79,0,0,1,6.78-6.79h84.29a7.31,7.31,0,0,1,7.31,7.32Z"/><rect class="cls-36" x="813.78" y="1365.2" width="123.69" height="35.08" rx="12.08"/><path class="cls-37" d="M790.76,1311.42s-16.69,2.59-35.46,15.13a9.38,9.38,0,0,0-4.13,8.94c2.25,17.8,11.49,75.41,42,131.68a14.14,14.14,0,0,1,1.36,9.72l-5.29,24.63-9.81,9.21h25.28l16.83-45.56-7.2-2.28a13.61,13.61,0,0,1-9.51-12.75l-.84-48.86c.72-21.78-13.35-36.8-13.35-36.8l40.38-2Z"/><path class="cls-38" d="M769.5,1515.17c-2.3,3,24.78,7,38.47.4,0,0,19-33,19-50,0,0-1.51-3.46-12.65-2.68,0,0-6.37,39.08-13.09,43.46s-18.82.44-18.82.44S772.9,1510.72,769.5,1515.17Z"/><path class="cls-39" d="M825.86,1365.2c-.22-.37-43.48-5.2-43.48-5.2s1.42,13.15-3,31.25-67.94,96.55-67.94,96.55l6.66,21.11c-20.59,7.18-40.85,8.32-60.78,3.66l41.28-24.77s38.62-131.62,62.28-155.1l43.36-15Z"/><path class="cls-40" d="M922.87,1288.61s24.92,37.07,27,54-6.83,23.78-33,24.91-96,1.12-96,1.12l-59.59-50.93s43.43-15.49,54.72-19.87S922.87,1288.61,922.87,1288.61Z"/><path class="cls-41" d="M715.58,1501.8s7.17,7,2.33,14.68c0,0-56.8,10.06-72.22,5.5,0,0,3.2-7.31,20.57-15.63l-1.28,1a2.07,2.07,0,0,0,1.37,3.72C677.79,1510.4,701.47,1508.3,715.58,1501.8Z"/><path class="cls-42" d="M872.5,1080.36c3.77,1.18,17.34,6.05,15.59,14.78a1.6,1.6,0,0,0,2,1.83c5.85-1.57,18.77-3.56,26.78,6.48,7.07,8.86,1.79,17.22-2.52,21.81a1.61,1.61,0,0,0,1.34,2.72c10.75-1.36,34.12-1.68,37.94,20.21,3.57,20.41-10.64,26.16-19.07,27.79a1.6,1.6,0,0,0-.53,2.92c4.2,2.67,9.08,8.18,7.11,19.06-3.09,17-36.51,15.65-40.41,15.42a1.57,1.57,0,0,1-.7-.2l-53.53-30.53a1.62,1.62,0,0,1-.78-1.13l-10.81-62.41a1.62,1.62,0,0,1,.42-1.39l35.54-36.93A1.6,1.6,0,0,1,872.5,1080.36Z"/><path class="cls-33" d="M855.47,1283.7s-29-27.63-43.31-45.94a38.84,38.84,0,0,1-6.58-35c6.52-22,18.12-44.73,19.17-48.28,1.62-5.43,34.17-5.2,34.17-5.2s64,41.56,89.19,112l-28.25,8.8s-16.72-28-33.24-45.89c0,0,28.58,37.76,29.59,53.22Z"/><path class="cls-43" d="M820.82,1124.19c.34,1.13,8.83,29.29,9.5,29.87s18.62,1.55,27.08-4.23l-14.35-30Z"/><path class="cls-44" d="M834.77,1065.05s-15.33,6.47-25.76,28.63-2.64,32.39,7.14,33.79,24.41,1.19,39.88-13.12S854.7,1057.37,834.77,1065.05Z"/><path class="cls-45" d="M845.63,1102.52s11.56-32.42-17.18-32.8l-6.76,4.73s-10.54-18,6.76-26.56,37.57-1.49,44.94,21.83,8.62,38.93-3.64,50.08-17.3-1.49-17.3-1.49,6.67-10.43,4-16-9,1.16-9,1.16Z"/><path class="cls-46" d="M848.85,1106.13s5.85-16.7,13.65-10.05-6.34,15.43-11.88,18.27Z"/><path class="cls-47" d="M796.34,1285.75l21.32-20.55,29.5,12.46s29.37,4.55,46.17,0l16.81-4.55,38-11.82,6,16.86a10.16,10.16,0,0,1-3.71,11.66,67.53,67.53,0,0,1-9.59,6c-5,2.19-123.29-1.51-123.29-1.51Z"/><path class="cls-48" d="M877,1295.44h-.29l-123.69-.14a5.54,5.54,0,0,1,0-11.07l123.69.14a5.53,5.53,0,0,1,.28,11.06Z"/><path class="cls-49" d="M641.86,1183.14h103a19.61,19.61,0,0,1,17.75,11.26l47.63,101h-128a11.94,11.94,0,0,1-11.1-7.55l-36.93-93.44A8.23,8.23,0,0,1,641.86,1183.14Z"/><ellipse class="cls-50" cx="706.71" cy="1237.4" rx="8.12" ry="13.19" transform="translate(-345.14 276.04) rotate(-17.84)"/><path class="cls-51" d="M629,1291.49H507.22v-12.56H629C626.35,1278.93,626.35,1291.49,629,1291.49Z"/><path class="cls-52" d="M508.22,1291.49a1,1,0,0,1-1-1v-10.56a1,1,0,0,1,1-1H631.66a1,1,0,0,0,1-1v-.84a1,1,0,0,0-1-1H500.25a5.25,5.25,0,0,0-5.26,5.26v8a5,5,0,0,0,4.95,4.95H631.66a1,1,0,0,0,1-1v-.84a1,1,0,0,0-1-1Z"/><path class="cls-12" d="M1049.91,1300a4.3,4.3,0,0,0-1.16-4,5.86,5.86,0,0,0-4.25-1.74H487.39a6.61,6.61,0,0,0-5.35,2.54,4.88,4.88,0,0,0-.41,5.27l6,11.35a8.6,8.6,0,0,0,7.67,4.26h545.34a6.24,6.24,0,0,0,6.29-4.5Z"/><polygon class="cls-53" points="724.57 669.52 721.27 663.49 953.27 536.73 1168.94 631.53 1354.12 449.88 1354.49 449.66 1571.93 321.34 1575.42 327.27 1358.34 455.38 1170.43 639.7 953.6 544.39 724.57 669.52"/><path class="cls-54" d="M747.88,666.5a25,25,0,1,1-25-25A25,25,0,0,1,747.88,666.5Z"/><circle class="cls-55" cx="953.43" cy="540.56" r="24.95" transform="translate(208.29 1344.29) rotate(-76.72)"/><circle class="cls-56" cx="1169.69" cy="630.86" r="24.95" transform="translate(-103.49 1011.87) rotate(-45)"/><circle class="cls-57" cx="1350.29" cy="452.63" r="24.95"/><circle class="cls-58" cx="1573.67" cy="324.3" r="24.95" transform="translate(671.84 1654.08) rotate(-67.5)"/><path class="cls-33" d="M1359.61,1391.87c-3.28,4.86-16.31,114.7-18.35,155.27a4.8,4.8,0,0,0,4.81,5h0a4.81,4.81,0,0,0,4.75-4.06l23.83-152.74Z"/><path class="cls-33" d="M1464.38,1391.87c3.28,4.86,16.31,114.7,18.35,155.27a4.79,4.79,0,0,1-4.8,5h0a4.8,4.8,0,0,1-4.75-4.06l-23.84-152.74Z"/><path class="cls-59" d="M1339.9,1383.3v1.2c-.08,8.62,7.34,15.69,16.64,15.84l110.17,1.88c9.16.15,16.8-6.47,17.24-15l.06-1.1c.46-8.85-7-16.3-16.6-16.47l-110.22-2C1347.75,1367.55,1340,1374.56,1339.9,1383.3Z"/><path class="cls-60" d="M1554.22,1543.15c-19.58,0-28.25-1.68-32.12-3.21a7.43,7.43,0,0,0,7.24,5.76h69.28a3.38,3.38,0,0,0,3.25-4.26C1594,1542.08,1577.2,1543.15,1554.22,1543.15Z"/><path class="cls-61" d="M1601.87,1541.44a3.22,3.22,0,0,0-.57-1.18c-5.28-6.74-15.88-17.32-30.3-17.11-21.13.29-28.49,2.58-44.91.12l-3.87,12.84a7.36,7.36,0,0,0-.12,3.83c3.87,1.53,12.54,3.21,32.12,3.21C1577.2,1543.15,1594,1542.08,1601.87,1541.44Z"/><path class="cls-62" d="M1530.84,1509.44l-4.75,16.17s10.53,4.79,19.8.94l1.82-14Z"/><path class="cls-63" d="M1674.44,1533c-15.27,12.27-23.07,16.39-27,17.63a7.42,7.42,0,0,0,9.23-.07l54-43.39a3.36,3.36,0,0,0-.12-5.34C1704.75,1507.24,1692.35,1518.58,1674.44,1533Z"/><path class="cls-64" d="M1710.51,1501.8a3.26,3.26,0,0,0-1.17-.56c-8.32-1.92-23.18-3.49-34.29,5.7-16.29,13.46-20.6,19.85-34.93,28.23l5,12.38a7.25,7.25,0,0,0,2.3,3c4-1.24,11.77-5.36,27-17.63C1692.35,1518.58,1704.75,1507.24,1710.51,1501.8Z"/><path class="cls-65" d="M1429.15,1325.22s117.25,9.58,141.3,20.9-19.63,170-19.63,170-6.55,3.15-21.12-1.38c0,0,14.94-117.11,3.82-142.51l-127-20.76Z"/><path class="cls-66" d="M1628.47,1512.88c1.09,1,11.65,22.29,11.65,22.29s11.76-2.54,14.15-10L1643.69,1506Z"/><path class="cls-67" d="M1358.53,1324.24a59.5,59.5,0,0,0-3.67,21.41,32.15,32.15,0,0,0,30.68,31.45l138.61,6.33a6.63,6.63,0,0,1,6.13,5c3.26,12.6,19.18,51.29,97,128.49a6.29,6.29,0,0,0,7.76.85l11.08-7a2.56,2.56,0,0,0,.84-3.45l-80.71-137.82a31.26,31.26,0,0,0-19-14.07l-118.13-30.2Z"/><path class="cls-68" d="M1519.33,1112.05s-39,23.16-54.19,35.88l31.29,17.46s16.91-19.53,33-27.67Z"/><path class="cls-69" d="M1356,1325.22s37.42,9.12,73.14,0c0,0,50-67.18,69.31-85.47,0,0,30.84,48.67,99.49,55.57l3.83-8.56s-54.65-25.19-71.48-63.9-23.58-55.22-38.89-65.32c-9.53-6.29-15.24-10.59-18.19-12.93a4.88,4.88,0,0,0-5.6-.36C1451.37,1154.15,1374.94,1206.5,1356,1325.22Z"/><path class="cls-70" d="M1496.43,1237.22a.82.82,0,0,0,.64-1.31,148.36,148.36,0,0,1-18.37-32.58.83.83,0,0,0-1.06-.47.8.8,0,0,0-.46,1.05,150.25,150.25,0,0,0,18.6,33A.81.81,0,0,0,1496.43,1237.22Z"/><path class="cls-71" d="M1593.82,1282.29l7.73-2.06,23.46-5.43a10.9,10.9,0,0,1,8.24,1.39l20.18,12.69-55.71-.09Z"/><path class="cls-3" d="M1572.3,1299.81h.27l119-.12a5.32,5.32,0,1,0,0-10.64l-119,.12a5.32,5.32,0,0,0-.26,10.63Z"/><path class="cls-3" d="M1737.67,1183.26l-.12.25-50.08,108a5.32,5.32,0,1,0,9.65,4.47l50.08-108a5.32,5.32,0,0,0-9.53-4.72Z"/><path class="cls-12" d="M1625.29,1305.78c-.52,2.16-50.18,188.4-62.77,235.61a8.53,8.53,0,0,0,8.17,10.78h0a8.47,8.47,0,0,0,8.21-6.48l55.12-223.5Z"/><path class="cls-12" d="M1652.48,1305.78c.52,2.16,50.18,188.4,62.77,235.61a8.53,8.53,0,0,1-8.17,10.78h0a8.48,8.48,0,0,1-8.21-6.48l-55.12-223.5Z"/><path class="cls-12" d="M1654.55,1299.69h-30.93v24.84A6.42,6.42,0,0,0,1630,1331h4.24v55.79a4.87,4.87,0,0,0,4.84,4.89h0a4.86,4.86,0,0,0,4.83-4.89V1331h2.16a8.52,8.52,0,0,0,8.47-8.57Z"/><path class="cls-72" d="M1547.58,1293.73h172.69a5.3,5.3,0,0,1,5.12,4l2.41,9.45a5.34,5.34,0,0,1-5.15,6.69l-177.2-1a5.34,5.34,0,0,1-5.1-6.66l2.1-8.42A5.31,5.31,0,0,1,1547.58,1293.73Z"/><path class="cls-73" d="M1546.05,1102.92s.36,27.72-4.12,40.31-5.18,21.68-20.44,18.18-24.27-15.6-25.62-30.58c0,0-2.24-23.15,3.29-29.93S1546.05,1102.92,1546.05,1102.92Z"/><path class="cls-74" d="M1504.43,1124.06l1.8.75s-1-18.3,6.6-18.24,35.62,5.63,45-1.18c9.06-6.57,9.06-20,3.25-26.16a1,1,0,0,0-1.41-.07l-1.06.88a1.05,1.05,0,0,1-1.71-.93h0a1,1,0,0,0-1.62-1c-2.85,2-9.33,4.54-22.66,1.63-18.9-4.13-33.49-1.9-38.86,10.11a1,1,0,0,1-1.83.16c-1-1.33-2.88-2.57-6.63-1.4-6.52,2-9,13.36-2,26.44a1,1,0,0,1-.7,1.53c-2.43.45-6.53,2.21-.8,9.27,5.87,7.22,10.53,8.66,12.41,8.94a1.05,1.05,0,0,0,1.15-.69l3.85-11a1,1,0,0,1,1.39-.62Z"/><path class="cls-75" d="M1503.93,1126.49s2.39-16.6-6.08-15.22-3.56,18.23,1.6,21.06Z"/><circle class="cls-76" cx="1742.89" cy="883" r="70.95" transform="translate(-13.24 1739.36) rotate(-52.86)"/><circle class="cls-77" cx="1742.89" cy="883" r="68.59" transform="translate(-204.71 727.38) rotate(-22.3)"/><path class="cls-78" d="M1686.34,856.8a2.3,2.3,0,0,1-2-3.33,65.68,65.68,0,0,1,70.44-35,2.29,2.29,0,0,1-.83,4.51,61.12,61.12,0,0,0-65.51,32.57A2.31,2.31,0,0,1,1686.34,856.8Z"/><circle class="cls-79" cx="1744.39" cy="884.49" r="58.05"/><path class="cls-80" d="M1738.69,927.65v-6.32a51.57,51.57,0,0,1-17.72-3.84,3.66,3.66,0,0,1-2-4.32l1.61-5.88a3.67,3.67,0,0,1,5-2.41,42.68,42.68,0,0,0,16.37,3.45c6.34,0,11.07-2.15,11.07-6.56,0-4-3.66-6.34-12.47-8.71-12.58-3.43-21.6-8.92-21.6-20,0-10,7.3-17.62,20-19.67v-6.31a3.68,3.68,0,0,1,3.68-3.68h3.71a3.68,3.68,0,0,1,3.68,3.68v5.67a46.71,46.71,0,0,1,14,2.52,3.66,3.66,0,0,1,2.29,4.42l-1.47,5.44a3.68,3.68,0,0,1-4.85,2.48,38.42,38.42,0,0,0-13.77-2.5c-7.53,0-9.68,3.12-9.68,5.91,0,3.44,4.52,5.8,14.3,8.81,14,4.2,19.77,10,19.77,20.43,0,9.56-7.09,18.16-20.85,20.31v7.07a3.68,3.68,0,0,1-3.68,3.68h-3.71A3.68,3.68,0,0,1,1738.69,927.65Z"/><circle class="cls-81" cx="1944.84" cy="798.86" r="123.5" transform="translate(4.75 1609.19) rotate(-45)"/><circle class="cls-82" cx="1944.84" cy="798.86" r="119.4" transform="translate(724.6 2511.06) rotate(-76.85)"/><path class="cls-78" d="M1846.39,751.56a2.3,2.3,0,0,1-2.05-3.33,112,112,0,0,1,100.5-61.88,113.7,113.7,0,0,1,20.3,1.83,2.29,2.29,0,0,1-.83,4.51,109,109,0,0,0-19.47-1.75,107.48,107.48,0,0,0-96.4,59.36A2.31,2.31,0,0,1,1846.39,751.56Z"/><circle class="cls-79" cx="1947.44" cy="801.47" r="101.06"/><path class="cls-83" d="M1937.53,876.59v-11a89.79,89.79,0,0,1-30.85-6.69,6.36,6.36,0,0,1-3.52-7.51l2.8-10.24a6.41,6.41,0,0,1,8.7-4.2,74.38,74.38,0,0,0,28.48,6c11,0,19.27-3.75,19.27-11.42,0-6.92-6.36-11-21.7-15.15-21.89-6-37.61-15.53-37.61-34.8,0-17.4,12.72-30.69,34.8-34.24v-11a6.4,6.4,0,0,1,6.41-6.4h6.46a6.4,6.4,0,0,1,6.4,6.4v9.87a81.93,81.93,0,0,1,24.45,4.39,6.39,6.39,0,0,1,4,7.7l-2.57,9.47a6.39,6.39,0,0,1-8.43,4.32,66.56,66.56,0,0,0-24-4.36c-13.09,0-16.83,5.43-16.83,10.29,0,6,7.85,10.11,24.88,15.34,24.32,7.3,34.43,17.41,34.43,35.55,0,16.66-12.35,31.63-36.3,35.37v12.3a6.41,6.41,0,0,1-6.41,6.41h-6.46A6.4,6.4,0,0,1,1937.53,876.59Z"/><circle class="cls-84" cx="2030.02" cy="1074.72" r="127.08" transform="translate(411.94 2705) rotate(-73.11)"/><circle class="cls-85" cx="2030.02" cy="1074.72" r="122.86" transform="translate(-165.36 1750.22) rotate(-45)"/><path class="cls-78" d="M1928.71,1026a2.24,2.24,0,0,1-1-.25,2.3,2.3,0,0,1-1-3.08,115.89,115.89,0,0,1,124.23-61.76,2.29,2.29,0,0,1-.82,4.51,112.84,112.84,0,0,0-20.05-1.8,110.65,110.65,0,0,0-99.26,61.12A2.3,2.3,0,0,1,1928.71,1026Z"/><circle class="cls-79" cx="2032.69" cy="1077.39" r="103.98" transform="translate(512.51 2804.15) rotate(-76.57)"/><path class="cls-86" d="M2022.49,1154.7v-11.32c-11.79-.47-23.46-3.25-31.74-6.88a6.54,6.54,0,0,1-3.62-7.73l2.87-10.54a6.6,6.6,0,0,1,9-4.31,76.68,76.68,0,0,0,29.31,6.17c11.36,0,19.83-3.85,19.83-11.75,0-7.12-6.55-11.35-22.34-15.59-22.52-6.16-38.69-16-38.69-35.81,0-17.91,13.09-31.58,35.81-35.23v-11.32a6.59,6.59,0,0,1,6.59-6.59h6.64a6.59,6.59,0,0,1,6.6,6.59v10.16a84.11,84.11,0,0,1,25.16,4.52,6.56,6.56,0,0,1,4.1,7.92l-2.65,9.74a6.57,6.57,0,0,1-8.68,4.44,68.71,68.71,0,0,0-24.67-4.48c-13.48,0-17.33,5.59-17.33,10.59,0,6.16,8.09,10.4,25.61,15.79,25,7.51,35.42,17.9,35.42,36.58,0,17.13-12.7,32.54-37.35,36.39v12.66a6.59,6.59,0,0,1-6.59,6.59h-6.65A6.59,6.59,0,0,1,2022.49,1154.7Z"/><circle class="cls-87" cx="2193.05" cy="901.6" r="93.11" transform="translate(1127.99 3020.1) rotate(-85.66)"/><circle class="cls-88" cx="2193.05" cy="901.6" r="90.02" transform="translate(439.17 2497.31) rotate(-64.64)"/><path class="cls-78" d="M2118.82,866.5a2.22,2.22,0,0,1-1-.24,2.3,2.3,0,0,1-1-3.08,85,85,0,0,1,76.28-47,86.14,86.14,0,0,1,15.4,1.39,2.3,2.3,0,0,1,1.85,2.67,2.27,2.27,0,0,1-2.67,1.84,81.67,81.67,0,0,0-14.58-1.31,80.48,80.48,0,0,0-72.18,44.44A2.29,2.29,0,0,1,2118.82,866.5Z"/><circle class="cls-79" cx="2195.01" cy="903.57" r="76.19" transform="translate(-168.64 1121.91) rotate(-27.65)"/><path class="cls-89" d="M2187.53,960.2v-8.28a67.58,67.58,0,0,1-23.25-5,4.78,4.78,0,0,1-2.65-5.66l2.1-7.72a4.83,4.83,0,0,1,6.56-3.16,56.22,56.22,0,0,0,21.48,4.52c8.32,0,14.53-2.82,14.53-8.61,0-5.22-4.8-8.32-16.37-11.42-16.5-4.52-28.35-11.71-28.35-26.24,0-13.12,9.59-23.14,26.24-25.82v-8.29a4.83,4.83,0,0,1,4.83-4.83h4.87a4.84,4.84,0,0,1,4.83,4.83v7.45a61.42,61.42,0,0,1,18.43,3.31,4.8,4.8,0,0,1,3,5.8l-1.93,7.14a4.82,4.82,0,0,1-6.36,3.25,50.26,50.26,0,0,0-18.08-3.28c-9.88,0-12.7,4.09-12.7,7.76,0,4.51,5.93,7.62,18.77,11.57,18.33,5.5,25.95,13.11,25.95,26.8,0,12.55-9.31,23.84-27.37,26.66v9.27a4.82,4.82,0,0,1-4.82,4.83h-4.88A4.83,4.83,0,0,1,2187.53,960.2Z"/><path class="cls-33" d="M1236.23,243.81s.46-.78,1.37-2.18a1.72,1.72,0,0,1,3.08.4c.74-.2,1.58-.42,2.5-.64a1.72,1.72,0,0,1,.81,3.34c-2.6.63-4.44,1.2-5.32,1.47l-.52.15-4.09,1.11Zm6.23-9.38c1.64-2.32,3.37-4.67,5.14-7a1.72,1.72,0,0,1,2.73,2.09c-1.74,2.27-3.44,4.58-5.06,6.87a1.73,1.73,0,0,1-2.4.41,2.2,2.2,0,0,1-.35-.33A1.72,1.72,0,0,1,1242.46,234.43Zm7.87,7.23a1.72,1.72,0,0,1,1.45-1.95c3-.43,5.9-.71,8.73-.84a1.72,1.72,0,1,1,.15,3.44,82.82,82.82,0,0,0-8.38.8,1.69,1.69,0,0,1-1.59-.62A1.64,1.64,0,0,1,1250.33,241.66Zm17.14-1.06a1.72,1.72,0,0,1,1.85-1.58,58.23,58.23,0,0,1,8.74,1.38,1.72,1.72,0,1,1-.8,3.34,53.89,53.89,0,0,0-8.22-1.29,1.69,1.69,0,0,1-1.2-.64A1.67,1.67,0,0,1,1267.47,240.6ZM1253,220.68c1.85-2.25,3.75-4.46,5.63-6.59a1.72,1.72,0,0,1,2.57,2.28c-1.86,2.1-3.72,4.28-5.54,6.49a1.72,1.72,0,0,1-2.42.23,1.18,1.18,0,0,1-.25-.25A1.72,1.72,0,0,1,1253,220.68Zm31.24,23.45a1.72,1.72,0,0,1,2.27-.85,41.32,41.32,0,0,1,5.59,3.08c.69.45,1.36.88,2,1.29a1.71,1.71,0,1,1-1.78,2.93c-.7-.42-1.42-.87-2.14-1.35a37.78,37.78,0,0,0-5.12-2.82,1.72,1.72,0,0,1-.85-2.28Zm23.39,24.34a1.73,1.73,0,0,1,1.83-.4,12.79,12.79,0,0,1,5.16-.35,1.72,1.72,0,0,1-.37,3.42,7.66,7.66,0,0,0-5.54,1.07l-2.19-2.63Zm-8.34-16.12a1.71,1.71,0,0,1,2.24-.95,30.94,30.94,0,0,0,7.83,2.08,1.72,1.72,0,1,1-.4,3.41,34.36,34.36,0,0,1-8.71-2.3,1.76,1.76,0,0,1-.7-.52A1.71,1.71,0,0,1,1299.27,252.35Zm-34.78-44.63c2-2.09,4.07-4.15,6.12-6.13a1.72,1.72,0,0,1,2.38,2.49c-2,1.94-4,4-6,6a1.7,1.7,0,0,1-2.42.05,1.29,1.29,0,0,1-.16-.17A1.71,1.71,0,0,1,1264.49,207.72Zm49.14,54.61c2.3-2.39,4.28-4.49,5.88-6.23a1.72,1.72,0,0,1,2.54,2.31c-1.62,1.78-3.62,3.89-6,6.3a1.71,1.71,0,0,1-2.43.05l-.15-.17A1.71,1.71,0,0,1,1313.63,262.33Zm7.5,8.49a1.72,1.72,0,0,1,2.08-1.27c2.44.58,5.14,1.2,8.27,1.68a1.72,1.72,0,1,1-.53,3.4c-3.25-.51-6-1.14-8.55-1.74a1.71,1.71,0,0,1-.94-.6A1.74,1.74,0,0,1,1321.13,270.82ZM1316,255.06a1.71,1.71,0,0,1,1.19-2.12,21.29,21.29,0,0,0,5.82-2.75c.54-.33,1-.6,1.31-.76a4.49,4.49,0,0,1,.49-.21,1.69,1.69,0,0,1,2.13,1.1,1.77,1.77,0,0,1-1.12,2.2,10.5,10.5,0,0,0-1,.58,24.56,24.56,0,0,1-6.72,3.14,1.7,1.7,0,0,1-1.81-.58A1.8,1.8,0,0,1,1316,255.06Zm-39-59.33c2-1.7,3.93-3.37,5.9-4.94l.77-.61a1.72,1.72,0,0,1,2.41.28h0a1.71,1.71,0,0,1-.28,2.41l-.75.61c-1.93,1.54-3.88,3.17-5.79,4.84a1.72,1.72,0,0,1-2.42-.16l0-.06A1.72,1.72,0,0,1,1277,195.73Zm61,78a1.71,1.71,0,0,1,1.79-1.64c2.73.11,5.56.09,8.41-.08a1.72,1.72,0,1,1,.2,3.43,85.63,85.63,0,0,1-8.76.08,1.67,1.67,0,0,1-1.26-.65A1.64,1.64,0,0,1,1338,273.71Zm17.14-.65a1.71,1.71,0,0,1,1.44-1.95l1.8-.28a58.08,58.08,0,0,0,6.39-1.43,1.72,1.72,0,1,1,.94,3.3,60.24,60.24,0,0,1-6.76,1.52l-1.86.29a1.71,1.71,0,0,1-1.6-.63A1.64,1.64,0,0,1,1355.18,273.06Zm-65-85.68a1.73,1.73,0,0,1,.42-2.4c2.4-1.69,4.85-3.3,7.26-4.78a1.72,1.72,0,1,1,1.8,2.92c-2.35,1.45-4.74,3-7.08,4.67a1.71,1.71,0,0,1-2.33-.33Zm81.55,81.42a1.71,1.71,0,0,1,.85-2.28,54.45,54.45,0,0,0,7.28-4,1.72,1.72,0,0,1,1.89,2.87,59.67,59.67,0,0,1-7.74,4.29,1.73,1.73,0,0,1-2.06-.49A1.65,1.65,0,0,1,1371.77,268.8Zm-67-90.59a1.72,1.72,0,0,1,.73-2.32c2.6-1.36,5.26-2.62,7.88-3.74a1.72,1.72,0,0,1,1.35,3.16c-2.54,1.08-5.11,2.31-7.64,3.63a1.73,1.73,0,0,1-2.14-.45A1.67,1.67,0,0,1,1304.75,178.21Zm81.77,79.21a59.82,59.82,0,0,0,5.83-6,1.72,1.72,0,0,1,2.62,2.23,64.56,64.56,0,0,1-6.17,6.31,1.72,1.72,0,0,1-2.43-.15l-.06-.07A1.72,1.72,0,0,1,1386.52,257.42Zm-66.09-86.19a1.72,1.72,0,0,1,1.1-2.17c2.79-.92,5.63-1.7,8.43-2.34a1.72,1.72,0,0,1,.76,3.36,83.93,83.93,0,0,0-8.12,2.25,1.73,1.73,0,0,1-1.88-.56A2,2,0,0,1,1320.43,171.23Zm76.89,73.51a36.8,36.8,0,0,0,3.61-6.88l.54-3.77a1.72,1.72,0,0,1,3.41.5l-.54,3.67h0c-.37,2.46-4,8.26-4.09,8.32a1.72,1.72,0,0,1-2.37.53,1.53,1.53,0,0,1-.42-.38A1.71,1.71,0,0,1,1397.32,244.74Zm-60.23-77.6a1.72,1.72,0,0,1,1.5-1.91,80.67,80.67,0,0,1,8.75-.58,1.72,1.72,0,1,1,0,3.44,76.38,76.38,0,0,0-8.38.55,1.75,1.75,0,0,1-1.55-.63A1.78,1.78,0,0,1,1337.09,167.14Zm17.13-.57a1.73,1.73,0,0,1,1.88-1.54,83.38,83.38,0,0,1,8.67,1.34,1.72,1.72,0,0,1-.71,3.37,79,79,0,0,0-8.3-1.29,1.71,1.71,0,0,1-1.54-1.88Zm48.49,59,1.23-8.5a1.72,1.72,0,1,1,3.4.49l-1.23,8.5a1.73,1.73,0,0,1-1.95,1.46,1.73,1.73,0,0,1-1.45-1.95Zm-31.64-55.85a1.71,1.71,0,0,1,2.16-1.11c2.71.87,5.47,1.91,8.18,3.09a1.72,1.72,0,1,1-1.36,3.15c-2.62-1.13-5.27-2.13-7.88-3a1.74,1.74,0,0,1-.81-.56A1.69,1.69,0,0,1,1371.07,169.74Zm34.1,38.84,1.24-8.5a1.72,1.72,0,0,1,3.4.49l-1.23,8.51a1.72,1.72,0,0,1-3,.82A1.75,1.75,0,0,1,1405.17,208.58Zm-18.24-32.35a1.72,1.72,0,0,1,2.33-.69c2.49,1.35,5,2.85,7.49,4.46a1.72,1.72,0,1,1-1.87,2.88c-2.4-1.55-4.85-3-7.26-4.32a1.69,1.69,0,0,1-.52-.43A1.73,1.73,0,0,1,1386.93,176.23Zm14.54,9.11a1.72,1.72,0,0,1,2.41-.34c2.2,1.66,4.43,3.44,6.61,5.31l.72.61-.17,1.15a1.71,1.71,0,0,1-3.27.43c-2-1.66-4-3.26-6-4.76a1.77,1.77,0,0,1-.31-.3A1.71,1.71,0,0,1,1401.47,185.34Z"/><path class="cls-90" d="M1403.29,219s-17.58,33.78-43.76,23.55-50.08-27-62.22-21.79c0,0,46.28-58.32,106.43-15.18Z"/><path class="cls-91" d="M1472.31,259.77s-4.55,37.1-16.35,41.71c-11.23,4.38-95.53-3.2-103.73-4a.69.69,0,0,1-.63-.71h0a9.55,9.55,0,0,1,4-7.69c12-8.58,48.27-33.86,61.67-38C1433.49,246.15,1472.31,259.77,1472.31,259.77Z"/><path class="cls-3" d="M1382.54,295.18a.86.86,0,0,0,.61.32c.46,0,46.7,3.38,66.66,4.05a9,9,0,0,0,8.39-5.06,134.45,134.45,0,0,0,9.38-25.48.86.86,0,0,0-1.68-.4,131.46,131.46,0,0,1-9.25,25.13,7.25,7.25,0,0,1-6.78,4.1c-19.93-.67-66.13-4-66.6-4.06a.87.87,0,0,0-.92.8A.92.92,0,0,0,1382.54,295.18Z"/><path class="cls-92" d="M1473.43,172.92s-3.58-37.21-15.26-42.12c-11.11-4.67-95.58.73-103.8,1.26a.71.71,0,0,0-.65.7h0a9.58,9.58,0,0,0,3.83,7.79c11.83,8.88,47.38,35.1,60.67,39.57C1434.27,185.53,1473.43,172.92,1473.43,172.92Z"/><path class="cls-3" d="M1384.6,136.29a.82.82,0,0,0,.71.32c.46,0,46.74-2.17,66.68-2.32a7.25,7.25,0,0,1,6.67,4.26,132.3,132.3,0,0,1,8.6,25.37.86.86,0,0,0,1.68-.36,131.21,131.21,0,0,0-8.71-25.72,9,9,0,0,0-8.26-5.27c-20,.15-66.28,2.31-66.74,2.33a.85.85,0,0,0-.63,1.39Z"/><path class="cls-93" d="M1597.86,260.91a193.29,193.29,0,0,1-59.64,8.82c-69.14-.69-119.84-13.16-134.16-17.09a7.33,7.33,0,0,1-5.17-5.42,129.11,129.11,0,0,1,.32-61.66,10.64,10.64,0,0,1,7.88-7.78c16.78-4,66.34-14.16,132.49-13.11a193.08,193.08,0,0,1,59,10.23C1607.72,209.29,1602.11,242.36,1597.86,260.91Z"/><path class="cls-94" d="M1598.58,174.9c37.81,12.79,62.6,33.88,70.54,41.32a3.6,3.6,0,0,1-.07,5.33c-8.11,7.21-33.28,27.53-71.19,39.36C1602.11,242.36,1607.72,209.29,1598.58,174.9Z"/><ellipse class="cls-12" cx="1543.45" cy="217.32" rx="34.81" ry="32.43" transform="translate(1306.17 1757.83) rotate(-89.26)"/><path class="cls-95" d="M1544.73,188.63c-14.27-.19-26,12.08-26.2,27.4s11.21,27.88,25.48,28.06,26-12.08,26.2-27.4S1559,188.81,1544.73,188.63Z"/><path class="cls-3" d="M1548.93,235.84a.84.84,0,0,0,.91.29c8.81-2.57,15.05-11,15.17-20.62a22.62,22.62,0,0,0-1-7,.87.87,0,0,0-1.08-.56.85.85,0,0,0-.56,1.08,20.94,20.94,0,0,1,.94,6.51c-.11,8.82-5.84,16.63-13.93,19a.87.87,0,0,0-.59,1.07A.75.75,0,0,0,1548.93,235.84Z"/><path class="cls-12" d="M1478.58,193.49c-11.83-.16-21.55,10-21.72,22.71s9.29,23.12,21.13,23.27,21.55-10,21.72-22.71S1490.41,193.64,1478.58,193.49Z"/><path class="cls-96" d="M1479.13,197.52c-9.43-.12-17.18,8-17.31,18.1s7.41,18.42,16.83,18.54,17.18-8,17.31-18.1S1488.56,197.65,1479.13,197.52Z"/><path class="cls-3" d="M1481.67,228.9a.87.87,0,0,0,.91.29,14.62,14.62,0,0,0,10.24-13.9,15.22,15.22,0,0,0-.69-4.75.86.86,0,0,0-1.64.51,13.6,13.6,0,0,1,.61,4.22,12.89,12.89,0,0,1-9,12.27.87.87,0,0,0-.43,1.36Z"/><path class="cls-33" d="M1213.13,242.51l-11.28,2.76a2,2,0,1,1-.93-3.81l.13,0,11-2.73.13,0a2,2,0,1,1,1,3.86Z"/><path class="cls-33" d="M1190.43,247.26l-11.52,1.24a1.92,1.92,0,1,1-.41-3.82l.11,0,11.27-1.26h.12a1.95,1.95,0,0,1,.44,3.87Z"/><path class="cls-33" d="M1167.34,249.05l-11.55-.08a1.89,1.89,0,0,1,0-3.77h.1l11.35.05h.11a1.9,1.9,0,0,1,0,3.8Z"/><path class="cls-33" d="M1144.25,248.29l-11.48-1.21a1.84,1.84,0,1,1,.38-3.66h.08l11.32,1.15h.09a1.86,1.86,0,0,1-.38,3.71Z"/><path class="cls-33" d="M1121.35,245.38,1110,243.23a1.8,1.8,0,1,1,.67-3.53h.06l11.21,2.08h.07a1.82,1.82,0,1,1-.67,3.58Z"/><path class="cls-33" d="M1098.77,240.67l-11.14-2.93a1.76,1.76,0,0,1,.89-3.4l0,0,11,2.86h.06a1.78,1.78,0,0,1-.89,3.44Z"/><path class="cls-33" d="M1076.58,234.47l-10.94-3.58a1.72,1.72,0,1,1,1.07-3.26h0l10.86,3.51.05,0a1.73,1.73,0,0,1-1.07,3.3Z"/><path class="cls-33" d="M1054.8,227l-10.74-4.13a1.67,1.67,0,0,1,1.2-3.12h0l10.68,4.06,0,0a1.69,1.69,0,0,1-1.2,3.16Z"/><path class="cls-33" d="M1033.42,218.51l-10.54-4.6a1.63,1.63,0,0,1,1.3-3h0l10.49,4.54h0a1.66,1.66,0,0,1,.86,2.17,1.64,1.64,0,0,1-2.17.86Z"/><path class="cls-33" d="M1012.43,209.1l-10.35-5a1.59,1.59,0,1,1,1.38-2.86h0l10.32,4.95h0a1.61,1.61,0,1,1-1.39,2.9Z"/><path class="cls-33" d="M991.82,198.9l-10.17-5.36a1.54,1.54,0,1,1,1.44-2.73h0l10.14,5.3,0,0a1.56,1.56,0,1,1-1.45,2.77Z"/><path class="cls-33" d="M971.56,188l-10-5.67a1.5,1.5,0,1,1,1.48-2.62h0l10,5.61h0a1.53,1.53,0,0,1-1.5,2.66Z"/><path class="cls-33" d="M951.65,176.53l-9.84-5.94a1.48,1.48,0,1,1,1.53-2.54h0l9.82,5.91h0a1.49,1.49,0,0,1-1.54,2.55Z"/><path class="cls-33" d="M932,164.52l-9.68-6.2a1.47,1.47,0,1,1,1.59-2.48h0l9.66,6.17h0a1.48,1.48,0,1,1-1.6,2.49Z"/><path class="cls-33" d="M912.75,152l-9.52-6.43a1.46,1.46,0,1,1,1.63-2.42h0l9.51,6.4h0a1.46,1.46,0,1,1-1.63,2.43Z"/><path class="cls-33" d="M893.78,139l-9.37-6.64a1.45,1.45,0,0,1,1.68-2.37h0l9.35,6.62h0a1.45,1.45,0,1,1-1.68,2.37Z"/><path class="cls-33" d="M875,126l-9.79-5.8-.08-.05a1.44,1.44,0,0,1,1.47-2.47l9.95,5.89a1.44,1.44,0,1,1-1.47,2.48h0Z"/><path class="cls-33" d="M855.08,115l-10.44-4.52-.09,0a1.42,1.42,0,0,1,1.13-2.61l10.62,4.57a1.44,1.44,0,0,1,.74,1.89,1.42,1.42,0,0,1-1.88.74h0Z"/><path class="cls-33" d="M833.93,106.65,823,103.49l-.09,0a1.41,1.41,0,1,1,.78-2.71l11.11,3.19a1.43,1.43,0,0,1,1,1.76,1.41,1.41,0,0,1-1.75,1h0Z"/><path class="cls-33" d="M811.89,101l-11.25-1.75h-.08A1.4,1.4,0,0,1,801,96.5l11.42,1.76A1.41,1.41,0,0,1,812,101h-.09Z"/><path class="cls-33" d="M789.31,98.25l-11.37-.31h-.09a1.4,1.4,0,0,1,.08-2.79l11.55.31a1.4,1.4,0,1,1-.08,2.79h-.09Z"/><path class="cls-33" d="M766.57,98.35l-11.32,1.13h-.09a1.38,1.38,0,0,1-.28-2.75l11.5-1.16a1.39,1.39,0,1,1,.28,2.76h-.09Z"/><path class="cls-33" d="M744,101.33l-11.09,2.56-.09,0a1.37,1.37,0,1,1-.61-2.67l11.25-2.61a1.38,1.38,0,1,1,.62,2.68h0Z"/><path class="cls-33" d="M722,107.15l-10.68,3.95-.08,0a1.36,1.36,0,0,1-.94-2.55l10.83-4a1.37,1.37,0,0,1,1,2.56h0Z"/><path class="cls-33" d="M701,115.72l-10,5.37-.09,0a1.34,1.34,0,1,1-1.27-2.37l10.19-5.47a1.35,1.35,0,0,1,1.28,2.38h0Z"/><path class="cls-33" d="M681.31,127.15l-9.2,6.69-.07,0a1.34,1.34,0,0,1-1.57-2.16l9.34-6.79a1.34,1.34,0,1,1,1.57,2.16h0Z"/><path class="cls-33" d="M663.33,141.09,655,148.84l0,.06a1.33,1.33,0,0,1-1.81-1.94l8.44-7.87a1.33,1.33,0,1,1,1.81,1.94h0Z"/><path class="cls-33" d="M647.11,157.07l-7.39,8.67-.05,0a1.31,1.31,0,0,1-2-1.7l7.49-8.78a1.31,1.31,0,0,1,2,1.7h0Z"/><path class="cls-33" d="M632.83,174.81l-6.35,9.46,0,.06a1.3,1.3,0,1,1-2.16-1.44l6.42-9.6a1.31,1.31,0,0,1,2.17,1.46h0Z"/><path class="cls-33" d="M620.71,194.09l-5.15,10.16,0,.07a1.29,1.29,0,1,1-2.3-1.16l5.21-10.31a1.29,1.29,0,0,1,2.31,1.17h0Z"/><path class="cls-33" d="M611.09,214.71l-3.74,10.75,0,.09a1.28,1.28,0,0,1-2.41-.84l3.78-10.92a1.29,1.29,0,1,1,2.43.84h0Z"/><path class="cls-33" d="M604.43,236.45l-2,11.18,0,.1a1.27,1.27,0,1,1-2.49-.45l2.07-11.38a1.28,1.28,0,1,1,2.51.45h0Z"/><path class="cls-33" d="M601.28,258.93l-.07,11.35v.12a1.25,1.25,0,1,1-2.5,0l.06-11.58a1.26,1.26,0,0,1,2.52,0h0Z"/><path class="cls-33" d="M602.22,281.58l2.13,11.13,0,.13a1.24,1.24,0,1,1-2.44.46l-2.18-11.38a1.25,1.25,0,1,1,2.45-.47h0Z"/><path class="cls-33" d="M607.6,303.58l4.34,10.47,0,.12a1.23,1.23,0,1,1-2.27.94l-4.45-10.7a1.24,1.24,0,1,1,2.29-1h0Z"/><path class="cls-33" d="M617.46,323.88a57.58,57.58,0,0,0,7.14,8.66,1.22,1.22,0,0,1-1.72,1.73,59.94,59.94,0,0,1-7.45-9,1.23,1.23,0,0,1,2-1.38Z"/><path class="cls-33" d="M633.35,339.5a48.33,48.33,0,0,0,10.08,4.81,1.2,1.2,0,0,1,.76,1.53,1.22,1.22,0,0,1-1.54.76,50.66,50.66,0,0,1-10.59-5,1.22,1.22,0,0,1,1.29-2.06Z"/><path class="cls-33" d="M654.35,346.69a53.08,53.08,0,0,0,11.2-.06,1.2,1.2,0,1,1,.26,2.38,55.13,55.13,0,0,1-11.7.07,1.22,1.22,0,0,1-1.08-1.32,1.2,1.2,0,0,1,1.32-1.07Z"/><path class="cls-33" d="M676.53,344.32A62.3,62.3,0,0,0,686.91,340a1.19,1.19,0,1,1,1.1,2.1,65.15,65.15,0,0,1-10.77,4.5,1.19,1.19,0,0,1-.71-2.28Z"/><path class="cls-33" d="M696.38,333.92a67.11,67.11,0,0,0,8.31-7.59,1.18,1.18,0,0,1,1.73,1.6,70.34,70.34,0,0,1-8.6,7.86,1.18,1.18,0,1,1-1.44-1.87Z"/><path class="cls-33" d="M711.65,317.48l2.86-4.87c1-1.59,1.76-3.32,2.61-5l0-.07a1.17,1.17,0,0,1,1.56-.52,1.16,1.16,0,0,1,.52,1.56,56.21,56.21,0,0,1-2.68,5.17l-2.95,5a1.17,1.17,0,1,1-2-1.18h0Z"/><path class="cls-33" d="M721.05,297A64.31,64.31,0,0,0,723.19,286a1.15,1.15,0,0,1,2.29.23,66.45,66.45,0,0,1-2.2,11.46,1.15,1.15,0,0,1-1.43.8,1.17,1.17,0,0,1-.8-1.43Z"/><path class="cls-33" d="M723.27,274.74a58.44,58.44,0,0,0-2.09-11,1.14,1.14,0,0,1,2.19-.64,59.7,59.7,0,0,1,2.18,11.47,1.15,1.15,0,0,1-1,1.25,1.14,1.14,0,0,1-1.24-1Z"/><path class="cls-33" d="M717,253.26a65.49,65.49,0,0,0-5.95-9.56,1.13,1.13,0,1,1,1.81-1.35,68.94,68.94,0,0,1,6.17,9.88,1.14,1.14,0,0,1-2,1Z"/><path class="cls-33" d="M703.64,235.22A82.31,82.31,0,0,0,695,227.9a1.11,1.11,0,0,1-.24-1.56,1.12,1.12,0,0,1,1.56-.24,84.64,84.64,0,0,1,8.87,7.51,1.12,1.12,0,0,1-1.57,1.61Z"/><path class="cls-33" d="M685.5,221.79a95.76,95.76,0,0,0-10.21-4.91,1.11,1.11,0,0,1,.84-2,98.3,98.3,0,0,1,10.45,5,1.11,1.11,0,0,1-1.08,1.94Z"/><path class="cls-33" d="M664.58,213.15c-3.63-1.05-7.38-1.74-11.07-2.62l-.08,0a1.11,1.11,0,0,1-.83-1.35,1.12,1.12,0,0,1,1.35-.83h0c3.74.92,7.51,1.65,11.22,2.72a1.1,1.1,0,0,1,.77,1.36,1.11,1.11,0,0,1-1.36.76Z"/><path class="cls-33" d="M642.27,208.69l-11.34-1.09h-.07a1.19,1.19,0,1,1,.23-2.36h0l11.49,1.17a1.16,1.16,0,0,1-.23,2.3Z"/><path class="cls-33" d="M619.54,207.21l-11.39.28h-.07A1.25,1.25,0,1,1,608,205h0l11.54-.22a1.22,1.22,0,0,1,.05,2.44Z"/><path class="cls-33" d="M596.79,208.41,585.49,210h-.07a1.32,1.32,0,0,1-.35-2.61h0l11.44-1.49a1.28,1.28,0,0,1,.34,2.54Z"/><path class="cls-33" d="M574.3,212.09l-11.07,2.73-.07,0a1.38,1.38,0,0,1-.66-2.68h0l11.22-2.7a1.34,1.34,0,0,1,.64,2.61Z"/><path class="cls-33" d="M552.33,218.13,541.63,222l-.08,0a1.44,1.44,0,0,1-1-2.71h0l10.88-3.89a1.41,1.41,0,0,1,.95,2.65Z"/><path class="cls-33" d="M531.16,226.5,521,231.57l-.08,0a1.5,1.5,0,1,1-1.34-2.69h0l10.38-5.1a1.47,1.47,0,0,1,1.3,2.64Z"/><path class="cls-33" d="M511.12,237.25l-9.48,6.27-.08,0a1.57,1.57,0,0,1-1.73-2.61h0l9.67-6.32a1.54,1.54,0,0,1,1.68,2.57Z"/><path class="cls-33" d="M492.51,250.32l-8.78,7.26-.06,0a1.63,1.63,0,1,1-2.08-2.51h0l8.94-7.3a1.6,1.6,0,0,1,2,2.47Z"/><path class="cls-33" d="M475.27,265.22l-8.14,8,0,0a1.7,1.7,0,1,1-2.38-2.42h0l8.28-8a1.66,1.66,0,0,1,2.32,2.38Z"/><path class="cls-33" d="M459.29,281.48,451.73,290l0,.05a1.77,1.77,0,0,1-2.48.15,1.75,1.75,0,0,1-.15-2.48h0l7.68-8.59a1.72,1.72,0,0,1,2.58,2.29Z"/><path class="cls-33" d="M444.44,298.81l-7,9,0,0a1.82,1.82,0,0,1-2.87-2.23h0l7.13-9.05a1.79,1.79,0,0,1,2.81,2.21Z"/><path class="cls-33" d="M430.66,317l-6.52,9.37,0,0a1.88,1.88,0,1,1-3.09-2.14h0l6.62-9.43a1.84,1.84,0,1,1,3,2.12Z"/><path class="cls-33" d="M417.88,335.93l-6,9.7,0,.05a1.94,1.94,0,0,1-3.29-2.05h0l6.12-9.76a1.9,1.9,0,0,1,3.23,2Z"/><path class="cls-33" d="M406.08,355.49l-5.53,10,0,0a2,2,0,0,1-3.49-1.93h0l5.63-10.05a2,2,0,0,1,3.43,1.91Z"/><path class="cls-33" d="M395.27,375.61l-5,10.25,0,.05a2.06,2.06,0,0,1-3.7-1.81h0l5.13-10.32a2,2,0,1,1,3.63,1.79Z"/><path class="cls-33" d="M385.47,396.24,381,406.73l0,.06a2.12,2.12,0,0,1-3.89-1.67h0l4.59-10.57a2.09,2.09,0,0,1,3.84,1.65Z"/><path class="cls-33" d="M376.78,417.35l-3.89,10.73,0,.06a2.18,2.18,0,0,1-4.09-1.49h0l4-10.82a2.15,2.15,0,0,1,4,1.47Z"/><path class="cls-33" d="M369.34,438.91l-3.19,10.94,0,.08a2.24,2.24,0,1,1-4.29-1.26h0l3.3-11.07a2.21,2.21,0,0,1,4.23,1.25Z"/><path class="cls-33" d="M363.36,460.89,361,472l0,.08a2.29,2.29,0,0,1-4.49-.93c.77-3.78,1.61-7.54,2.42-11.31a2.26,2.26,0,1,1,4.43.94Z"/><path class="cls-33" d="M359.17,483.23l-1.33,11.28v.11a2.27,2.27,0,1,1-4.51-.53l1.34-11.5a2.28,2.28,0,1,1,4.53.53h0Z"/><path class="cls-33" d="M357.06,505.84l-.19,11.36v.12a2.25,2.25,0,1,1-4.49-.07l.17-11.59a2.26,2.26,0,1,1,4.52.06h0Z"/><path class="cls-33" d="M357.29,528.54l1,11.3V540a2.22,2.22,0,0,1-4.43.42l-1.09-11.55a2.23,2.23,0,0,1,4.45-.42h0Z"/><path class="cls-33" d="M360,551.05l2.32,11.1,0,.12a2.2,2.2,0,1,1-4.31.91l-2.39-11.34a2.21,2.21,0,0,1,4.32-.92h0Z"/><path class="cls-33" d="M365.3,573.09l3.58,10.76,0,.12a2.18,2.18,0,0,1-4.14,1.38l-3.68-11a2.19,2.19,0,1,1,4.16-1.39h0Z"/><path class="cls-33" d="M373.06,594.4l4.75,10.31.05.1a2.16,2.16,0,1,1-3.92,1.81l-4.87-10.51a2.17,2.17,0,0,1,3.93-1.82h0Z"/><path class="cls-33" d="M383.1,614.75l5.8,9.77.06.09a2.14,2.14,0,0,1-3.67,2.19l-5.93-9.94a2.15,2.15,0,0,1,3.69-2.2h0Z"/><path class="cls-33" d="M395.17,634l6.71,9.19.05.08a2.11,2.11,0,0,1-3.4,2.49l-6.84-9.33a2.13,2.13,0,1,1,3.43-2.51h0Z"/><path class="cls-33" d="M409,652.08l7.46,8.6.05.06a2.09,2.09,0,1,1-3.15,2.74l-7.58-8.71a2.1,2.1,0,0,1,3.16-2.76h0Z"/><path class="cls-33" d="M424.23,669l8.08,8,.05,0a2.07,2.07,0,0,1-2.91,2.94l-8.2-8.11a2.08,2.08,0,0,1,2.93-2.95h0Z"/><path class="cls-33" d="M440.66,684.77l8.6,7.49,0,0a2,2,0,0,1-2.68,3.08l-8.7-7.55a2.06,2.06,0,1,1,2.69-3.11h0Z"/><path class="cls-33" d="M458.07,699.5l9,7,0,0a2,2,0,0,1-2.47,3.19l-9.12-7a2,2,0,0,1,2.49-3.22h0Z"/><path class="cls-33" d="M476.29,713.26l9.36,6.55,0,0a2,2,0,1,1-2.28,3.28L474,716.53a2,2,0,0,1,2.29-3.3h0Z"/><path class="cls-33" d="M495.16,726.18l9.57,6.33a2,2,0,0,1,.57,2.73,2,2,0,0,1-2.74.57L493,729.49a2,2,0,1,1,2.18-3.32Z"/><path class="cls-33" d="M514.32,738.8l9.6,6.27a2,2,0,1,1-2.13,3.27l-9.62-6.25a2,2,0,0,1,2.14-3.3Z"/><path class="cls-33" d="M533.53,751.34l9.6,6.28a1.93,1.93,0,0,1-2.12,3.23l-9.6-6.26a1.94,1.94,0,1,1,2.11-3.25Z"/><path class="cls-33" d="M552.71,763.92l9.56,6.33a1.91,1.91,0,1,1-2.11,3.18l-9.56-6.31a1.92,1.92,0,0,1,2.1-3.21Z"/><path class="cls-33" d="M571.8,776.64l9.49,6.44a1.88,1.88,0,0,1-2.11,3.12h0l-9.48-6.41h0a1.9,1.9,0,0,1,2.12-3.15Z"/><path class="cls-33" d="M590.74,789.61l9.39,6.61a1.86,1.86,0,0,1-2.14,3h0l-9.38-6.58h0a1.87,1.87,0,1,1,2.15-3.06Z"/><path class="cls-33" d="M609.45,802.93l9.23,6.83a1.84,1.84,0,0,1-2.18,3l0,0-9.21-6.77,0,0a1.85,1.85,0,0,1,2.19-3Z"/><path class="cls-33" d="M627.83,816.71l9,7.09a1.82,1.82,0,1,1-2.24,2.86l0,0-9-7h0a1.83,1.83,0,1,1,2.25-2.88Z"/><path class="cls-33" d="M645.83,831l8.87,7.29a1.79,1.79,0,0,1-2.28,2.77h0l-8.85-7.24,0,0a1.8,1.8,0,0,1,2.29-2.79Z"/><path class="cls-33" d="M663.48,845.7l8.67,7.55a1.78,1.78,0,0,1,.17,2.5,1.76,1.76,0,0,1-2.5.17h0l-8.64-7.5,0,0a1.78,1.78,0,1,1,2.34-2.69Z"/><path class="cls-33" d="M680.68,861l8.37,7.89a1.75,1.75,0,1,1-2.4,2.55l0,0-8.33-7.82,0,0a1.76,1.76,0,1,1,2.41-2.56Z"/><path class="cls-33" d="M697.24,877l8,8.31a1.73,1.73,0,1,1-2.49,2.39l0,0-7.93-8.23,0,0a1.74,1.74,0,0,1,2.5-2.41Z"/><path class="cls-33" d="M713,893.8l7.46,8.79a1.7,1.7,0,1,1-2.59,2.2l0,0-7.4-8.69,0,0a1.72,1.72,0,0,1,2.61-2.23Z"/><path class="cls-33" d="M727.55,911.64l6.79,9.33a1.68,1.68,0,0,1-2.72,2l0-.06-6.72-9.2,0-.06a1.69,1.69,0,1,1,2.73-2Z"/><path class="cls-33" d="M740.72,930.59l5.92,9.91a1.65,1.65,0,1,1-2.84,1.7l0-.07-5.87-9.76,0-.06a1.67,1.67,0,0,1,2.86-1.72Z"/><path class="cls-33" d="M752.06,950.7l4.85,10.48a1.62,1.62,0,1,1-2.93,1.36l0-.08-4.82-10.29,0-.08a1.65,1.65,0,0,1,3-1.4Z"/><path class="cls-33" d="M761.15,971.93l3.59,11a1.55,1.55,0,0,1-3,1l0-.1L758.17,973l0-.09a1.59,1.59,0,0,1,3-1Z"/><path class="cls-33" d="M767.64,994.1l2.18,11.35a1.51,1.51,0,0,1-1.18,1.75,1.49,1.49,0,0,1-1.74-1.18l0-.09-2.21-11.15,0-.1a1.52,1.52,0,0,1,3-.59Z"/><path class="cls-33" d="M771.27,1016.92l.7,11.55a1.42,1.42,0,0,1-2.84.18v-.09l-.77-11.36v-.09a1.45,1.45,0,1,1,2.9-.19Z"/><path class="cls-33" d="M771.89,1040l-.83,11.5a1.37,1.37,0,0,1-1.46,1.26,1.36,1.36,0,0,1-1.26-1.45v-.07l.77-11.36v-.07a1.39,1.39,0,0,1,2.78.18Z"/><path class="cls-33" d="M769.67,1063l-1.88,11.37a1.29,1.29,0,0,1-1.49,1.07,1.3,1.3,0,0,1-1.07-1.48v-.06l1.79-11.27v-.06a1.33,1.33,0,0,1,2.63.42Z"/><path class="cls-33" d="M765.42,1085.63l-2.93,11.16a1.23,1.23,0,0,1-2.39-.62v-.07l2.84-11V1085a1.27,1.27,0,1,1,2.46.63Z"/><path class="cls-33" d="M758.92,1107.77l-4.34,10.72a1.17,1.17,0,0,1-2.17-.88l0-.09,4.21-10.56,0-.09a1.2,1.2,0,0,1,2.23.89Z"/><path class="cls-33" d="M749.25,1128.78a77.94,77.94,0,0,1-6.61,9.57,1.12,1.12,0,0,1-1.56.16,1.1,1.1,0,0,1-.16-1.56,74.35,74.35,0,0,0,6.36-9.32,1.14,1.14,0,1,1,2,1.15Z"/><path class="cls-33" d="M734.34,1146.59a38.31,38.31,0,0,1-10.22,5.82,1,1,0,0,1-.73-2,36,36,0,0,0,9.62-5.55,1.08,1.08,0,0,1,1.51.17,1.09,1.09,0,0,1-.17,1.52Z"/></g></svg>