<svg id="Layer_1" data-name="Layer 1" xmlns="http://www.w3.org/2000/svg" viewBox="0 0 437.41 115.85"><defs><style>.cls-1{fill:#f5ec47;}</style></defs><circle class="cls-1" cx="373.32" cy="59.15" r="56.99"/><path d="M0,113.52c-.22-2.22.53-2.92,2.49-3.08,7-.58,9.55-2.56,11.39-9.39C20.57,76.39,27.09,51.7,33.66,27c.05-.2.13-.38.17-.58,1.67-7.61.53-9.17-7.29-10-.39-.05-.77-.14-1.31-.24,0-1.69.25-2.82,2.41-2.81,13.89.07,27.78,0,41.67,0a11.12,11.12,0,0,1,1.21.13c.55,1.94,0,2.7-2,2.92-8.09.85-10.06,2.58-12.15,10.4-2.84,10.59-5.63,21.2-8.44,31.8-.22.85-.38,1.72-.62,2.85,1,.09,1.89.23,2.74.23,10.3,0,20.6-.05,30.9.06,2.18,0,3.09-.62,3.64-2.82,2.68-10.64,5.57-21.23,8.39-31.83.18-.68.36-1.36.49-2,1.18-6.2-.1-7.92-6.43-8.62l-2.42-.28c0-1.79.28-2.87,2.45-2.86,13.89.09,27.78,0,41.67.06a11.12,11.12,0,0,1,1.21.13c.57,1.93,0,2.92-2,2.88-7.08-.13-10.54,3.78-12.24,10.31-6.4,24.62-13,49.18-19.52,73.76-.05.19-.09.39-.13.58-1.5,7.09-.21,8.83,7,9.4.48,0,1,.12,1.63.2.12,1.74,0,2.87-2.21,2.86-14.09,0-28.18,0-42.27,0a3.38,3.38,0,0,1-.86-.21c-.38-1.86.13-2.86,2.22-2.84,6.43.06,10.11-3.22,11.72-9.39,3.11-12,6.42-23.86,9.75-36.16a27.49,27.49,0,0,0-2.81-.31c-10.4,0-20.8.06-31.2-.07-2.17,0-2.92.8-3.42,2.72-2.81,10.92-5.73,21.81-8.6,32.7,0,.1-.07.19-.09.29-1.9,7.94-.75,9.53,7.43,10.28a8.09,8.09,0,0,1,1,.28c.08,1.45.21,2.72-2,2.72C29,113.51,14.61,113.52,0,113.52Z"/><path d="M279.52,95c-3,4.16-5.79,8.75-9.25,12.81-5.72,6.71-16.47,8.52-23.81,4.46-5.68-3.14-7.9-8.43-8.12-14.44-.68-18.22,6.13-33.68,18.16-47,6.42-7.11,14.17-12,23.85-13.13,4.78-.57,9.66-1.1,13.45,4,1.45-5.49,2.79-10.53,4.12-15.57.84-3.18,1.77-6.35,2.48-9.56,1-4.47-.6-6.64-5.11-7.26-1.26-.18-2.52-.34-3.79-.51l-.49-1c1-.7,2-2,3-2A95.92,95.92,0,0,0,325,.1c-.62,2.48-1.09,4.56-1.66,6.61q-13,47.16-26,94.31c-.57,2.08-1.52,4.67.9,5.92,2.66,1.37,4.75-.69,5.86-2.81,2.12-4,3.72-8.35,5.68-12.48a4.54,4.54,0,0,1,2.68-2.08c-1.39,6.49-2.59,12.89-6.68,18.11-4.75,6.08-11.32,7.6-18.54,6.35-5.58-1-8.75-6-8.38-12.43C279,99.32,279.3,97.06,279.52,95ZM259,97.1a49.51,49.51,0,0,0,1,7.14c.73,2.86,3,3.82,5.6,2.36A15.27,15.27,0,0,0,271,102c3.66-5.79,7.8-11.54,10.09-17.9,4.4-12.27,7.7-24.93,11.28-37.48.31-1.09-.38-2.73-1.08-3.79a5.74,5.74,0,0,0-8.08-1c-3.62,2.69-7.3,5.71-9.83,9.36C264.13,64.53,259.86,79.55,259,97.1Z"/><path d="M189.12,63.27c-1.07,15.79-6.52,30.41-18.94,41.88A37.22,37.22,0,0,1,137,114.82c-10.22-1.84-16-8.81-16.4-19.23-.7-19.15,5.72-35.53,20.32-48.19,8.62-7.46,19.05-10,30.24-8.52,10.24,1.36,16.35,8,17.66,18.23C189,58.89,189,60.7,189.12,63.27ZM170,52.66c-.09-1.68-.07-4.09-.39-6.45-.62-4.55-3.93-6.23-7.72-3.66A23.81,23.81,0,0,0,156,48.4c-6.54,9.23-10.38,19.69-13.24,30.54-2.39,9.1-3.88,18.33-3.16,27.79.17,2.24.56,4.55,3,5.47a5.84,5.84,0,0,0,6.54-1.84,49.88,49.88,0,0,0,6.69-8.36C164.55,87,169,70.69,170,52.66Z"/><path d="M210.7,7.88c.92-.71,1.83-2,2.76-2A92.92,92.92,0,0,0,244.54,0c-1,3.75-1.89,7-2.83,10.16q-13.25,44.58-26.49,89.18a11.85,11.85,0,0,0-.74,3.79c.07,1.28.47,3.35,1.22,3.6a4.93,4.93,0,0,0,4.29-.67,21.69,21.69,0,0,0,4.18-6.1c1.33-2.77,2.1-5.81,3.37-8.62.41-.9,1.63-1.45,2.88-1.76-2.12,6.61-3.09,13.46-7.68,18.8-4.44,5.17-13.35,7.61-19.75,5.31-4.21-1.5-6.36-4.62-6.92-8.94-.71-5.5.73-10.69,2.29-15.88q10.5-34.8,21-69.62c2.17-7.24.87-9.18-6.52-10.18-.49-.07-1-.19-1.45-.28Z"/><path d="M357,84.48c1.35-.38,2.28-1,3-.79,8.26,2.29,13.9,6.74,13.18,16.12-.66,8.67-6.41,14.33-15.24,15.14-7,.65-13-2.41-19.24-4.71A50,50,0,0,0,326,107.7c-3.69-.33-6.87,1.46-9.69,4-1.28,1.16-3.2,1.61-4.84,2.38l-.67-1.09,66.41-63.83-.33-.51c-2.08,1.25-4.15,2.52-6.23,3.75-4.29,2.54-8.47,5.28-12.91,7.51-3.44,1.73-7.15,1.43-10.7-.25A63.77,63.77,0,0,0,340.66,57c-3-1-5.91-.08-7.13,2.15s-.34,5.61,2.12,7.45c1.18.88,2.65,1.37,3.88,2.2.54.36.81,1.13,1.2,1.71-.71.24-1.5.8-2.13.67-8-1.7-12.87-6.7-13.29-13.4-.47-7.56,4.23-14.34,11.64-17.05,8.15-3,15.69-1,23.11,2.51,4.67,2.19,9.49,3.59,14.76,3.14A15.76,15.76,0,0,0,384,42.44c1.36-1.16,3.19-1.77,4.81-2.63l.84,1.18L324.08,104.1l.36.51c3.58-2.23,7.28-4.31,10.74-6.73,6.42-4.48,12.89-5.49,19.82-1.17A13,13,0,0,0,359.24,98c2.29.48,4.5.2,5.71-2.1a5.54,5.54,0,0,0-1.21-7.11C362.07,87.32,360,86.33,357,84.48Z"/></svg>