<svg id="Layer_1" data-name="Layer 1" xmlns="http://www.w3.org/2000/svg" viewBox="0 0 248.17 142.73"><defs><style>.cls-1{fill:#21254f;}.cls-2{fill:#e30613;}</style></defs><path class="cls-1" d="M67.31,115.1A28.25,28.25,0,1,1,66.44,79L77,65.49a45.18,45.18,0,1,0,.1,64Z"/><rect class="cls-1" x="86.19" y="54.18" width="19.07" height="87.56"/><rect class="cls-1" x="190.16" y="54.64" width="19.07" height="87.56"/><path class="cls-1" d="M157.54,142.63c-16.39,0-20.31-14-20.71-21.89h-.13v-50H120V54.65H136.7v-17l17-10.33-.46,13v14.3h17.21V70.7H153.24v44.41a11.48,11.48,0,0,0,0,3.82v1a11.45,11.45,0,0,0,20.14,5.34,11.58,11.58,0,0,0,1.24-1.86s0,0,0,0S175,142.63,157.54,142.63Z"/><path class="cls-1" d="M153.24,115.11v3.82a11.48,11.48,0,0,1,0-3.82Z"/><path class="cls-2" d="M150.81,0A93.14,93.14,0,0,0,73.25,41.5h27a72.36,72.36,0,0,1,101.19,0h27A93.11,93.11,0,0,0,150.81,0Z"/><path class="cls-1" d="M234.67,40v-9.7h4.66a6.35,6.35,0,0,1,2,.24,2.11,2.11,0,0,1,1.1.88,2.81,2.81,0,0,1,.42,1.57,2.77,2.77,0,0,1-.32,1.39,2.59,2.59,0,0,1-.88,1,3.12,3.12,0,0,1-1,.39,3.33,3.33,0,0,1,.73.35,2.73,2.73,0,0,1,.44.52,3.18,3.18,0,0,1,.39.6L243.58,40h-3.16l-1.5-3a2.18,2.18,0,0,0-.5-.74,1.14,1.14,0,0,0-.69-.23h-.25V40Zm2.81-5.77h1.18a3.81,3.81,0,0,0,.75-.13.73.73,0,0,0,.45-.31,1,1,0,0,0,.18-.56,1,1,0,0,0-.28-.72,1.61,1.61,0,0,0-1-.25h-1.23Z"/><path class="cls-1" d="M238.39,25.43a9.79,9.79,0,1,0,9.78,9.79A9.79,9.79,0,0,0,238.39,25.43Zm0,17.78a8,8,0,1,1,8-8A8,8,0,0,1,238.39,43.21Z"/><path class="cls-1" d="M153.24,115.11v3.82a11.48,11.48,0,0,1,0-3.82Z"/></svg>