<svg xmlns="http://www.w3.org/2000/svg" viewBox="0 0 180 54.44"><defs><style>.cls-1{fill:#0058a0;}.cls-1,.cls-2{fill-rule:evenodd;}.cls-2{fill:#faa61a;}</style></defs><g id="Page_1" data-name="Page 1"><g id="Layer_1-2" data-name="Layer 1"><polygon class="cls-1" points="63.37 54.37 72.52 0.89 87.12 0.89 77.97 54.37 63.37 54.37 63.37 54.37"/><path class="cls-1" d="M130.87,2.21A39.23,39.23,0,0,0,117.81,0C103.35,0,93.25,7.23,93.17,17.63c-.07,7.67,7.23,12,12.76,14.53s7.6,4.28,7.53,6.64c0,3.62-4.5,5.24-8.71,5.24A30.72,30.72,0,0,1,91,41.24l-1.92-.89-2,11.95c3.4,1.55,9.67,2.81,16.23,2.88,15.35,0,25.23-7.16,25.38-18.29.07-6.05-3.84-10.7-12.25-14.54-5.09-2.43-8.18-4.06-8.18-6.56,0-2.29,2.65-4.65,8.33-4.65a26.49,26.49,0,0,1,10.92,2.06l1.33.59,2-11.58Z"/><path class="cls-1" d="M168.27,1H157c-3.46,0-6.12,1-7.67,4.43L127.7,54.44H143s2.51-6.64,3.1-8h18.66c.44,1.85,1.77,8,1.77,8H180L168.27,1Zm-18,34.45c1.18-3,5.83-14.9,5.83-14.9-.15.15,1.18-3.1,1.92-5.09L159,20s2.8,12.76,3.39,15.42Z"/><path class="cls-1" d="M51.2,1,36.89,37.4,35.41,30c-2.66-8.55-11-17.77-20.21-22.42L28.25,54.37H43.67L66.61,1Z"/><path class="cls-2" d="M23.68.89H.15L0,2.07C18.22,6.49,30.39,17.19,35.41,30L30.25,5.46C29.36,2.07,26.85,1,23.68.89Z"/></g></g></svg>