<svg id="Layer_1" data-name="Layer 1" xmlns="http://www.w3.org/2000/svg" viewBox="0 0 64.62 40"><defs><style>.cls-1{fill:none;stroke:#979797;}.cls-2{fill:#ff5f00;}.cls-2,.cls-3,.cls-4{fill-rule:evenodd;}.cls-3{fill:#eb001b;}.cls-4{fill:#f79e1b;}</style></defs><path class="cls-1" d="M-1636.5-871.5h70814v2962h-70814Z"/><path class="cls-2" d="M23.57,35.67H41.05V4.27H23.57Z"/><path class="cls-3" d="M24.68,20a20,20,0,0,1,7.63-15.7A20,20,0,1,0,20,39.94a19.85,19.85,0,0,0,12.34-4.27A20,20,0,0,1,24.68,20"/><path class="cls-4" d="M64.62,20a20,20,0,0,1-32.31,15.7,20,20,0,0,0,0-31.4A20,20,0,0,1,64.62,20Z"/></svg>