<svg id="Layer_1" data-name="Layer 1" xmlns="http://www.w3.org/2000/svg" xmlns:xlink="http://www.w3.org/1999/xlink" viewBox="0 0 327 307"><defs><style>.cls-1{fill:#010101;}.cls-2{fill:url(#linear-gradient);}.cls-3{fill:url(#linear-gradient-2);}.cls-4{fill:url(#linear-gradient-3);}.cls-5{fill:url(#linear-gradient-4);}.cls-6{fill:url(#linear-gradient-5);}.cls-7{fill:url(#linear-gradient-6);}</style><linearGradient id="linear-gradient" x1="216.6" y1="-177.72" x2="216.6" y2="-245.18" gradientTransform="matrix(2.3, 0, 0, -2.3, -435.66, -373.92)" gradientUnits="userSpaceOnUse"><stop offset="0" stop-color="#aee2f8"/><stop offset="0.1" stop-color="#9bdaf5"/><stop offset="0.2" stop-color="#7fd3f1"/><stop offset="0.3" stop-color="#56c9ee"/><stop offset="0.4" stop-color="#1dc0ea"/><stop offset="0.5" stop-color="#03b3e1"/><stop offset="0.6" stop-color="#039dd0"/><stop offset="0.7" stop-color="#088bc0"/><stop offset="0.8" stop-color="#0f77af"/><stop offset="0.9" stop-color="#1967a2"/><stop offset="1" stop-color="#145b99"/></linearGradient><linearGradient id="linear-gradient-2" x1="158.91" y1="-177.72" x2="158.91" y2="-245.18" gradientTransform="matrix(2.3, 0, 0, -2.3, -261.13, -373.92)" xlink:href="#linear-gradient"/><linearGradient id="linear-gradient-3" x1="101.51" y1="-177.72" x2="101.51" y2="-245.18" gradientTransform="matrix(2.3, 0, 0, -2.3, -87.45, -373.92)" xlink:href="#linear-gradient"/><linearGradient id="linear-gradient-4" x1="43.54" y1="-177.72" x2="43.54" y2="-245.18" gradientTransform="matrix(2.3, 0, 0, -2.3, 87.95, -373.92)" xlink:href="#linear-gradient"/><linearGradient id="linear-gradient-5" x1="-13.39" y1="-177.72" x2="-13.39" y2="-245.18" gradientTransform="matrix(2.3, 0, 0, -2.3, 260.19, -373.92)" xlink:href="#linear-gradient"/><linearGradient id="linear-gradient-6" x1="-71.08" y1="-177.72" x2="-71.08" y2="-245.18" gradientTransform="matrix(2.3, 0, 0, -2.3, 434.73, -373.92)" xlink:href="#linear-gradient"/></defs><g id="layer1"><path id="path2998" class="cls-1" d="M60.12,274.92H46.29V205.2H60.12l28.22,44.34V205.2h13.84v69.72H89.24L60.12,229.06Z"/><path id="path3000" class="cls-1" d="M112.14,205.2H129l15.49,25.52,15.57-25.52h17.16l-25.81,39.64v30.08H137.59V244.49Z"/><path id="path3002" class="cls-1" d="M220.12,224.87l7.2-11.28s-8.25-9-23.44-9c-15.41,0-22.53,10.38-22.53,20.65s9.93,17.15,16.63,19.79c10.27,3.62,17.53,5.4,17.53,10.56,0,3.93-4,6.85-9.57,6.85-10.49,0-18.79-8.56-18.79-8.56l-7.51,11.71a39.22,39.22,0,0,0,26.06,10.06c12.42,0,23.51-8.66,23.51-21.45,0-11.52-9.79-17.87-18.34-20.31-7.41-2.16-15.23-4.22-15.23-9.46,0-3.41,2.86-6.56,7.86-6.56,8.47,0,16.62,7,16.62,7Z"/><path id="path3004" class="cls-1" d="M241.62,274.92V205.2H287v12.17H255.45V234h27.11v12.18H255.45v16.6H287v12.17Z"/><path id="path3006" class="cls-2" d="M46.29,189.15V34.22h31V189.15Z"/><path id="path3034" class="cls-3" d="M88.34,189.15V34.22h31V189.15Z"/><path id="path3038" class="cls-4" d="M130.19,189.15V34.22h31V189.15Z"/><path id="path3042" class="cls-5" d="M172.45,189.15V34.22h31V189.15Z"/><path id="path3046" class="cls-6" d="M214,189.15V34.22h31V189.15Z"/><path id="path3050" class="cls-7" d="M256,189.15V34.22h31V189.15Z"/></g></svg>