<svg xmlns="http://www.w3.org/2000/svg" viewBox="0 0 741.45 500"><defs><style>.cls-1{fill:#f5f5f5;}.cls-2{fill:#ebebeb;}.cls-3{fill:#e2d100;}.cls-4{fill:#263238;}.cls-5{fill:#455a64;}.cls-6{fill:#fafafa;}.cls-7{fill:#e0e0e0;}.cls-8{fill:#fff;}.cls-9{fill:#ffd21c;}.cls-10,.cls-13{opacity:0.3;}.cls-11{fill:#ae7461;}.cls-12{fill:#6f4439;}</style></defs><g id="Background_Complete" data-name="Background Complete"><rect class="cls-1" x="178.08" y="277.65" width="52.97" height="199.45"/><rect class="cls-1" x="465.1" y="343.98" width="52.97" height="132.02"/><rect class="cls-1" x="546.01" y="240.2" width="52.97" height="235.8"/><rect class="cls-1" x="375.36" y="248.76" width="52.97" height="227.24"/><rect class="cls-1" x="269.09" y="184.43" width="52.97" height="291.57"/><path class="cls-2" d="M546,54.14l-.78.79-2.31,2.27c-2,2-5,5-8.94,8.76L500.69,98.44C472.36,126,432.82,164.49,387.92,208.19l-.2.19-.18-.21-27.58-33L289.18,90.28l.38,0-61.29,92.13-17.45,26.16-4.64,6.92c-.52.77-.92,1.37-1.2,1.77s-.42.6-.42.6.13-.22.39-.62l1.17-1.79,4.58-7L228,182.23,289.17,90l.17-.26.21.24,70.81,84.82,27.58,33-.38,0L500.45,98.19l33.4-32.36,9-8.69,2.34-2.25Z"/><circle class="cls-2" cx="289.36" cy="90.13" r="9.83"/><circle class="cls-2" cx="204.56" cy="217.84" r="9.83" transform="translate(-67.49 94.19) rotate(-22.36)"/><circle class="cls-2" cx="387.74" cy="208.01" r="9.83" transform="translate(120.48 557.55) rotate(-80.81)"/><circle class="cls-2" cx="551.03" cy="50.39" r="9.83" transform="translate(380.92 576.93) rotate(-77.32)"/><path class="cls-2" d="M191.21,69.92a31.39,31.39,0,0,1,7.61-3.3l1.56-7.53,12.72-.22,1.83,7.46a31.25,31.25,0,0,1,7.72,3l6.43-4.21L238.23,74l-4,6.57a31,31,0,0,1,3.31,7.61l7.52,1.57.23,12.71-7.47,1.84a31.54,31.54,0,0,1-3,7.71l4.21,6.43-8.84,9.15-6.57-4a31.16,31.16,0,0,1-7.6,3.3l-1.57,7.53-12.72.22-1.83-7.47a31,31,0,0,1-7.72-3l-6.42,4.21-9.15-8.83,4-6.57a31.43,31.43,0,0,1-3.31-7.61l-7.52-1.57-.23-12.72L177,89.23a31.18,31.18,0,0,1,3-7.71l-4.22-6.43,8.84-9.15,6.57,4Zm6.78,17a13.64,13.64,0,1,0,19.3-.34A13.65,13.65,0,0,0,198,86.87Z"/><path class="cls-1" d="M401.12,47a38.54,38.54,0,0,1,9.45-4.11l1.95-9.36,15.8-.27,2.28,9.28a38.5,38.5,0,0,1,9.59,3.77l8-5.24,11.37,11-4.95,8.17a38.44,38.44,0,0,1,4.11,9.46l9.35,1.94.28,15.81-9.28,2.27a38.74,38.74,0,0,1-3.77,9.59l5.23,8-11,11.38-8.17-5a38.89,38.89,0,0,1-9.45,4.1L430,127.12l-15.8.28-2.28-9.28a38.92,38.92,0,0,1-9.59-3.78l-8,5.24-11.37-11,4.95-8.17A38.54,38.54,0,0,1,383.78,91l-9.35-2-.28-15.81L383.43,71a38.89,38.89,0,0,1,3.77-9.59l-5.23-8L393,42l8.17,5Zm8.42,21a17,17,0,1,0,24-.42A17,17,0,0,0,409.54,68Z"/><path class="cls-1" d="M252,38.52a15.91,15.91,0,0,1,4-1.73l.82-3.94,6.66-.12,1,3.91a16.17,16.17,0,0,1,4,1.59L271.84,36l4.79,4.63-2.08,3.43a16.57,16.57,0,0,1,1.73,4l3.94.82.11,6.65-3.91,1a16.38,16.38,0,0,1-1.58,4L277,63.9l-4.62,4.79L269,66.61a16.29,16.29,0,0,1-4,1.73l-.82,3.94-6.66.11-1-3.9a17,17,0,0,1-4-1.59l-3.36,2.2-4.79-4.62L246.45,61a16.68,16.68,0,0,1-1.73-4l-3.94-.82-.11-6.66,3.91-1a16.53,16.53,0,0,1,1.58-4L244,41.22l4.62-4.79L252,38.52Zm3.55,8.86a7.14,7.14,0,1,0,10.1-.17A7.14,7.14,0,0,0,255.57,47.38Z"/><path class="cls-1" d="M562.11,108.4a21.9,21.9,0,0,1,5.38-2.34l1.11-5.33,9-.16,1.3,5.29a22.32,22.32,0,0,1,5.46,2.15l4.55-3,6.48,6.25-2.82,4.65a22.32,22.32,0,0,1,2.33,5.39l5.33,1.11.16,9-5.28,1.29a22.63,22.63,0,0,1-2.15,5.47l3,4.55-6.26,6.47L585,146.39a21.9,21.9,0,0,1-5.38,2.34l-1.11,5.33-9,.16-1.3-5.29a21.93,21.93,0,0,1-5.46-2.15l-4.55,3-6.48-6.26,2.82-4.65a21.9,21.9,0,0,1-2.34-5.38l-5.33-1.11-.15-9,5.28-1.3a22,22,0,0,1,2.15-5.46l-3-4.55,6.25-6.48,4.66,2.82Zm4.79,12a9.66,9.66,0,1,0,13.66-.24A9.67,9.67,0,0,0,566.9,120.39Z"/><rect class="cls-1" x="97.06" y="324.81" width="52.97" height="151.72"/><rect class="cls-1" x="627.26" y="200.65" width="52.97" height="276.35"/></g><g id="Floor"><path class="cls-3" d="M706.21,478.12c0,.51-144.73.93-323.22.93s-323.25-.42-323.25-.93,144.7-.93,323.25-.93S706.21,477.6,706.21,478.12Z"/></g><g id="Briefcase"><path class="cls-4" d="M455.34,477.37h82.08a2.71,2.71,0,0,0,2.69-2.9L536,416.38a2.71,2.71,0,0,0-2.7-2.51L458,413.76a2.7,2.7,0,0,0-2.7,2.58l-2.64,58.2A2.71,2.71,0,0,0,455.34,477.37Z"/><path class="cls-5" d="M466.66,477.37c.13,0,.23-14.22.23-31.75s-.1-31.75-.23-31.75-.23,14.21-.23,31.75S466.53,477.37,466.66,477.37Z"/><path class="cls-5" d="M467.63,415.38a1.61,1.61,0,0,0,.12.23l.41.66c.37.59.9,1.43,1.58,2.49,1.4,2.15,3.42,5.27,6.16,9a71,71,0,0,0,10.89,11.88,47,47,0,0,0,7.88,5.38,25.49,25.49,0,0,0,9.77,3.06,22,22,0,0,0,10.08-1.75,32.67,32.67,0,0,0,8.2-4.88,35.73,35.73,0,0,0,9.8-12.72,34.08,34.08,0,0,0,2.9-10.46c.05-.64.12-1.21.14-1.7s0-.91,0-1.26v-.76a.8.8,0,0,0,0-.27l0,.27c0,.19,0,.45,0,.76s0,.76-.06,1.25-.12,1.05-.19,1.69a35,35,0,0,1-3,10.34,35.59,35.59,0,0,1-9.76,12.53,32.54,32.54,0,0,1-8.11,4.8,21.75,21.75,0,0,1-9.88,1.7,25,25,0,0,1-9.59-3,46.43,46.43,0,0,1-7.82-5.31,71.77,71.77,0,0,1-10.91-11.75c-2.76-3.65-4.82-6.74-6.26-8.86l-1.66-2.44-.44-.64C467.69,415.44,467.64,415.37,467.63,415.38Z"/><path class="cls-5" d="M501.6,448.09a3.77,3.77,0,1,0,3.77-3.76A3.77,3.77,0,0,0,501.6,448.09Z"/><path class="cls-4" d="M479.56,402a10,10,0,0,1,5.93-2.21A26.59,26.59,0,0,1,500.82,403a25.3,25.3,0,0,1,10,11.51l-3,3.1a19.58,19.58,0,0,0-8.1-11.89,18.58,18.58,0,0,0-13.6-3.25,10,10,0,0,0-3.7,1.28c-1.93,1.35-2.23,2.92-1.89,4.93a11,11,0,0,0,2.53,5.86l-4.87.11a24.69,24.69,0,0,1-1.06-6.54A8.36,8.36,0,0,1,479.56,402Z"/></g><g id="Books"><rect class="cls-6" x="366.02" y="446.89" width="31.12" height="12.26"/><rect class="cls-5" x="364.73" y="444.78" width="97.73" height="2.57"/><rect class="cls-5" x="365.18" y="458.6" width="97.27" height="2.57"/><polygon class="cls-5" points="397.14 445.39 397.29 460.68 462.45 460.68 462.45 445.39 397.14 445.39"/><path class="cls-4" d="M413,453a3.53,3.53,0,1,1-3.52-3.8A3.67,3.67,0,0,1,413,453Z"/><path class="cls-7" d="M409.45,457.37a4.36,4.36,0,1,1,4.07-4.35A4.22,4.22,0,0,1,409.45,457.37Zm0-7.61a3.27,3.27,0,1,0,3,3.26A3.13,3.13,0,0,0,409.45,449.76Z"/><path class="cls-4" d="M394.8,456.14c0,.16-6.39.29-14.28.29s-14.28-.13-14.28-.29,6.39-.28,14.28-.28S394.8,456,394.8,456.14Z"/><path class="cls-4" d="M394.8,454c0,.15-6.39.28-14.28.28s-14.28-.13-14.28-.28,6.39-.29,14.28-.29S394.8,453.85,394.8,454Z"/><path class="cls-4" d="M394.8,451.87c0,.16-6.39.28-14.28.28s-14.28-.12-14.28-.28,6.39-.29,14.28-.29S394.8,451.71,394.8,451.87Z"/><path class="cls-4" d="M394.8,449.73c0,.16-6.39.29-14.28.29s-14.28-.13-14.28-.29,6.39-.28,14.28-.28S394.8,449.58,394.8,449.73Z"/><rect class="cls-8" x="425.86" y="448.64" width="29.37" height="8.18"/><path class="cls-7" d="M430.43,456a19.12,19.12,0,0,1,0-6.52,18.47,18.47,0,0,1,0,6.52Z"/><path class="cls-7" d="M434.32,456a18.47,18.47,0,0,1,0-6.52,19.12,19.12,0,0,1,0,6.52Z"/><path class="cls-7" d="M438.2,456a19.12,19.12,0,0,1,0-6.52,19.12,19.12,0,0,1,0,6.52Z"/><path class="cls-7" d="M442.08,456a19.12,19.12,0,0,1,0-6.52,18.47,18.47,0,0,1,0,6.52Z"/><path class="cls-7" d="M446,456a18.47,18.47,0,0,1,0-6.52,19.12,19.12,0,0,1,0,6.52Z"/><path class="cls-7" d="M449.85,456a18.47,18.47,0,0,1,0-6.52,19.12,19.12,0,0,1,0,6.52Z"/><rect class="cls-6" x="370.16" y="462.82" width="31.12" height="12.26"/><rect class="cls-9" x="368.86" y="460.72" width="97.73" height="2.57"/><rect class="cls-9" x="369.31" y="474.53" width="97.27" height="2.57"/><polygon class="cls-9" points="401.27 461.33 401.42 476.61 466.59 476.61 466.59 461.33 401.27 461.33"/><path class="cls-4" d="M417.11,469a3.53,3.53,0,1,1-3.52-3.8A3.67,3.67,0,0,1,417.11,469Z"/><path class="cls-7" d="M413.59,473.3a4.36,4.36,0,1,1,4.07-4.35A4.22,4.22,0,0,1,413.59,473.3Zm0-7.6a3.27,3.27,0,1,0,3,3.25A3.13,3.13,0,0,0,413.59,465.7Z"/><path class="cls-4" d="M398.94,472.08c0,.15-6.4.28-14.28.28s-14.28-.13-14.28-.28,6.39-.29,14.28-.29S398.94,471.92,398.94,472.08Z"/><path class="cls-4" d="M398.94,469.94c0,.16-6.4.28-14.28.28s-14.28-.12-14.28-.28,6.39-.28,14.28-.28S398.94,469.78,398.94,469.94Z"/><path class="cls-4" d="M398.94,467.8c0,.16-6.4.29-14.28.29s-14.28-.13-14.28-.29,6.39-.28,14.28-.28S398.94,467.65,398.94,467.8Z"/><path class="cls-4" d="M398.94,465.67c0,.16-6.4.28-14.28.28s-14.28-.12-14.28-.28,6.39-.29,14.28-.29S398.94,465.51,398.94,465.67Z"/><rect class="cls-8" x="429.99" y="464.58" width="29.37" height="8.18"/><path class="cls-7" d="M434.57,471.93a18.47,18.47,0,0,1,0-6.52,19.12,19.12,0,0,1,0,6.52Z"/><path class="cls-7" d="M438.45,471.93a19.12,19.12,0,0,1,0-6.52,18.47,18.47,0,0,1,0,6.52Z"/><path class="cls-7" d="M442.33,471.93a19.12,19.12,0,0,1,0-6.52,18.47,18.47,0,0,1,0,6.52Z"/><path class="cls-7" d="M446.22,471.93a18.47,18.47,0,0,1,0-6.52,19.12,19.12,0,0,1,0,6.52Z"/><path class="cls-7" d="M450.1,471.93a19.12,19.12,0,0,1,0-6.52,18.47,18.47,0,0,1,0,6.52Z"/><path class="cls-7" d="M454,471.93a19.12,19.12,0,0,1,0-6.52,18.47,18.47,0,0,1,0,6.52Z"/></g><g id="Speech_Bubble" data-name="Speech Bubble"><path class="cls-8" d="M337.72,168.87l-8.06-1.61a31.33,31.33,0,1,1,8.65-7.16h0Z"/><path class="cls-4" d="M337.72,168.87s0-.21,0-.59.05-1,.09-1.7c.08-1.5.21-3.68.38-6.5l.18.11h0a.12.12,0,0,1-.16,0,.12.12,0,0,1,0-.14,31.18,31.18,0,0,0,6.55-13.47,31.83,31.83,0,0,0,.5-9.86A31,31,0,0,0,342.06,126a31.76,31.76,0,0,0-7.72-9.66,30.39,30.39,0,0,0-11.81-6.23,31.61,31.61,0,0,0-14.18-.49,30.44,30.44,0,0,0-13.45,6.33,31.81,31.81,0,0,0-5.33,5.49c-.71,1-1.44,2.07-2.07,3.15l-.87,1.66-.43.83-.34.86a31.76,31.76,0,0,0-2.39,14.14A30.25,30.25,0,0,0,287.31,155a31.8,31.8,0,0,0,8.07,9.5,31.31,31.31,0,0,0,10,5.24l2.54.65c.83.19,1.68.28,2.5.42a29,29,0,0,0,4.78.28,31.22,31.22,0,0,0,14.42-3.89.09.09,0,0,1,.07,0l5.93,1.25,1.56.34.55.13-.52-.08-1.54-.28-6-1.14h.08a31.19,31.19,0,0,1-14.53,4,28.5,28.5,0,0,1-4.83-.25c-.83-.14-1.69-.22-2.54-.41l-2.58-.65a31.53,31.53,0,0,1-10.15-5.27,32.25,32.25,0,0,1-8.23-9.62,30.92,30.92,0,0,1-3.93-13.13,32.09,32.09,0,0,1,2.41-14.38l.35-.88.44-.85.89-1.69c.63-1.1,1.37-2.15,2.1-3.21a32.93,32.93,0,0,1,5.42-5.59,31,31,0,0,1,13.7-6.44,32.13,32.13,0,0,1,14.43.52,30.73,30.73,0,0,1,12,6.36,32.13,32.13,0,0,1,7.81,9.83,31.3,31.3,0,0,1,3.21,10.9,32.26,32.26,0,0,1-.56,10,31.24,31.24,0,0,1-6.73,13.54l-.16-.17h0a.11.11,0,0,1,.16,0,.19.19,0,0,1,0,.07c-.23,2.84-.4,5-.52,6.56-.06.71-.11,1.26-.15,1.66S337.72,168.87,337.72,168.87Z"/><polygon class="cls-9" points="300.52 141.99 304.43 137.8 312.49 144.49 327.34 129.19 331.25 133.12 312.18 152.33 300.52 141.99"/></g><g id="Character"><path class="cls-9" d="M555,116.3H529.49L455.2,161c.28.42,9.05,6.76,20.5,15L368.13,374l-90-39.76L198.38,477.56h43.56l54.93-100.34,82.62,38.27,35,4.18,94.81-219.8c11.91,8.45,21.06,14.91,21.06,14.91h25.46s-7.43-62.31-7.43-62.8S555,116.3,555,116.3Z"/><path class="cls-10" d="M555,116.3H529.49L455.2,161c.28.42,9.05,6.76,20.5,15L368.13,374l-90-39.76L198.38,477.56h43.56l54.93-100.34,82.62,38.27,35,4.18,94.81-219.8c11.91,8.45,21.06,14.91,21.06,14.91h25.46s-7.43-62.31-7.43-62.8S555,116.3,555,116.3Z"/><polygon class="cls-9" points="224.15 477.56 304.19 333.05 393.9 374.04 509.6 161.01 544.04 179.11 414.51 419.67 322.64 377.22 267.71 477.56 224.15 477.56"/><path class="cls-9" d="M480.66,161c.82,1.23,75.18,53.77,75.18,53.77L555,116.3Z"/><path class="cls-4" d="M480.66,161c0,.15-5.7.26-12.73.26s-12.73-.11-12.73-.26,5.7-.26,12.73-.26S480.66,160.87,480.66,161Z"/><path class="cls-4" d="M500.55,176.38c0,.14-5.7.26-12.73.26s-12.73-.12-12.73-.26,5.7-.26,12.73-.26S500.55,176.23,500.55,176.38Z"/><path class="cls-11" d="M309.35,265.57s-1.54.67-1.78-1.39,4.06-6.36,5.43-7.72,3.34-1.07,5.08-.68,8.88,1.1,11.25,2.62,6,9.15,6.75,9.51,23,1.52,23,1.52l-1,18.25s-21.86-4.16-26.19-6.87-3.76-3.78-5-6.31l-2.55-5.21-2-.33-3.28,1.81s-.39,4.63-3.64,4.51l-1.59-.84s-1.06,1.23-2.27-.67-1-2.25-1-2.25-1.27,1.58-2.64-.38S309.35,265.57,309.35,265.57Z"/><path class="cls-12" d="M333.34,273.32s-.08,0-.24.07a3.15,3.15,0,0,1-.72.07,5.19,5.19,0,0,1-2.62-.74,7,7,0,0,1-2.78-3.08,13.28,13.28,0,0,1-1.15-5.11l.35.21a13,13,0,0,1-5,1.18,12.69,12.69,0,0,1-3.67-.39,3.16,3.16,0,0,1-1.68-.78.83.83,0,0,1-.06-1.07,1.81,1.81,0,0,1,.79-.51c2-.81,3.85-1.44,5.41-1.92s2.84-.8,3.73-1a7.41,7.41,0,0,1,1.4-.25,7.18,7.18,0,0,1-1.34.45c-.88.26-2.14.63-3.68,1.15s-3.36,1.19-5.34,2a1.51,1.51,0,0,0-.58.35.34.34,0,0,0,.05.46,2.91,2.91,0,0,0,1.42.61,12.95,12.95,0,0,0,8.33-.75l.34-.15,0,.36a13.22,13.22,0,0,0,1,5,6.74,6.74,0,0,0,2.55,3,5.49,5.49,0,0,0,2.46.85C333,273.34,333.34,273.28,333.34,273.32Z"/><path class="cls-12" d="M322.07,260.8a3.07,3.07,0,0,1-2.1.41c-.67,0-1.45-.12-2.27-.06a3.1,3.1,0,0,0-2.28,1.14,12.11,12.11,0,0,1-4.19,3,5.39,5.39,0,0,1-2.06.57c0-.08.75-.32,1.9-.9a13.85,13.85,0,0,0,4-3.05,4,4,0,0,1,1.22-.94,3.69,3.69,0,0,1,1.41-.32,18,18,0,0,1,2.32.17A9.26,9.26,0,0,0,322.07,260.8Z"/><path class="cls-12" d="M317.48,265.67a10.69,10.69,0,0,1-7.07,6.06,37.7,37.7,0,0,0,3.89-2.62A39.06,39.06,0,0,0,317.48,265.67Z"/><path class="cls-12" d="M318.28,268.46a6.37,6.37,0,0,1-1.46,3.58,6.44,6.44,0,0,1-3,2.48c-.09-.13,1.33-1.11,2.55-2.79S318.13,268.42,318.28,268.46Z"/><polygon class="cls-7" points="385.53 230 365.61 265.96 334.68 265.42 332.36 284 364.27 291.82 377.41 277.39 385.53 230"/><path class="cls-4" d="M368.09,272.06c-.15,0-.34-1.47-1-3.14s-1.57-2.87-1.45-3a5.81,5.81,0,0,1,1.93,2.77A5.73,5.73,0,0,1,368.09,272.06Z"/><path class="cls-4" d="M393.11,166.37a5.19,5.19,0,0,1-2.38-10.05,5.4,5.4,0,0,1,4.54-9.19,6.46,6.46,0,0,1,9.64-5.47,7.27,7.27,0,0,1,8.94-.35,5.17,5.17,0,0,1,4.72,8.69"/><path class="cls-11" d="M415.06,146.41l-1.14,0a22,22,0,0,0-21.55,20.67c-.65,10.65-1.24,22.43-1.06,28.14.38,11.81,12.23,13.42,12.23,13.42l-.72,14.21,1.4,10.84,27.26-12.28L433,169.91C433.84,157.62,427.37,146.9,415.06,146.41Z"/><path class="cls-12" d="M403.44,208.65a28.66,28.66,0,0,0,15.4-4.83s-3.66,9.15-15.47,8.32Z"/><path class="cls-4" d="M396.2,179.15a1.69,1.69,0,0,0,1.66,1.67,1.6,1.6,0,0,0,1.71-1.55,1.68,1.68,0,0,0-1.65-1.67A1.61,1.61,0,0,0,396.2,179.15Z"/><path class="cls-4" d="M395,172.84c.21.22,1.47-.75,3.29-.78s3.16.85,3.36.62-.13-.49-.72-.9a4.67,4.67,0,0,0-2.69-.78,4.5,4.5,0,0,0-2.61.9C395.1,172.34,394.92,172.74,395,172.84Z"/><path class="cls-4" d="M411.58,178.78a1.7,1.7,0,0,0,1.66,1.67,1.62,1.62,0,0,0,1.71-1.56,1.68,1.68,0,0,0-1.66-1.67A1.62,1.62,0,0,0,411.58,178.78Z"/><path class="cls-4" d="M412.88,172.83c.21.22,1.47-.75,3.29-.78s3.16.85,3.35.62-.12-.49-.71-.9a4.61,4.61,0,0,0-2.7-.77,4.37,4.37,0,0,0-2.61.9C413,172.34,412.77,172.74,412.88,172.83Z"/><path class="cls-4" d="M406.55,186.43a11.7,11.7,0,0,0-3-.48c-.47,0-.91-.12-1-.44a2.37,2.37,0,0,1,.28-1.38c.41-1.13.85-2.31,1.3-3.55,1.81-5.07,3.11-9.23,2.9-9.3s-1.83,4-3.64,9c-.43,1.25-.85,2.44-1.24,3.58a2.65,2.65,0,0,0-.21,1.82,1.17,1.17,0,0,0,.78.67,3.41,3.41,0,0,0,.79.09A12.41,12.41,0,0,0,406.55,186.43Z"/><path class="cls-4" d="M411.16,165.88c.25.45,1.8-.08,3.71-.18s3.54.19,3.7-.29c.08-.23-.27-.64-1-1a5.72,5.72,0,0,0-2.89-.55,5.66,5.66,0,0,0-2.76.9C411.33,165.21,411.05,165.66,411.16,165.88Z"/><path class="cls-4" d="M394.79,165.35c.39.41,1.88,0,3.68-.1s3.33.21,3.68-.23c.15-.21-.1-.62-.78-1a5.86,5.86,0,0,0-3-.61,5.78,5.78,0,0,0-2.93.88C394.82,164.73,394.61,165.16,394.79,165.35Z"/><path class="cls-4" d="M393.4,161.67s3-7.46,6.51-9.26c4.28-2.17,6.23,2.53,10.32,1.3s8.18-3.31,12.45-.21c4.67,3.39,2.56,5.88,2.95,11.11,1.56,21.24,5.56,27.17,6.47,17.14.1-1.1,3.13-2,3.49-6.67.47-6,.56-13.33-.87-17.57-1.2-3.57-3.29-6-7-8.68-5.89-4.21-13.86-4.15-19.26-3.5S392.73,152.41,393.4,161.67Z"/><path class="cls-11" d="M431.34,181.44a3.22,3.22,0,0,1,3.41-3.16c2.2.17,4.68,1.38,4.62,5.93-.1,8.08-8.19,6.32-8.2,6.08S431.27,184.82,431.34,181.44Z"/><path class="cls-12" d="M433,187.27s.14.1.38.22a1.41,1.41,0,0,0,1.05,0c.86-.3,1.59-1.65,1.65-3.1a4.53,4.53,0,0,0-.37-2,1.61,1.61,0,0,0-1-1.1.72.72,0,0,0-.84.38c-.11.22-.06.38-.1.4s-.17-.14-.11-.47a1,1,0,0,1,.33-.51,1.06,1.06,0,0,1,.78-.19,2,2,0,0,1,1.46,1.27,4.84,4.84,0,0,1,.46,2.26c-.08,1.63-.93,3.14-2.1,3.46a1.5,1.5,0,0,1-1.29-.23C433,187.47,432.93,187.29,433,187.27Z"/><path class="cls-4" d="M430.88,165.79a7.62,7.62,0,0,1-3.39,1.65,2.64,2.64,0,0,1-3-1.8c-.11-.56,0-1.21-.36-1.64s-1.26-.33-1.94-.25c-2.34.3-5.13-2.24-5.78-4.52a2.1,2.1,0,0,1-2.8.64,7.29,7.29,0,0,1-2-1.69,3.31,3.31,0,0,0-2.8-1.33,8.56,8.56,0,0,1-1.75.42c-1.07-.08-1.61-1.31-1.79-2.36s-.33-2.27-1.24-2.83-1.91-.19-2.89,0-2.24-.05-2.5-1a1.88,1.88,0,0,1,.33-1.47,5.24,5.24,0,0,1,6.14-2.1,7.09,7.09,0,0,1,13-1.62,7.18,7.18,0,0,1,11.55,2.4,5.21,5.21,0,0,1,6,7.47,4.94,4.94,0,0,1,2.8,3.89c.07,1.67-1.53,3.37-3.15,3a2.89,2.89,0,0,1-4.94,3"/><path class="cls-5" d="M404.61,149.88s0,.05,0,.15a3.55,3.55,0,0,0,.06.43,5.06,5.06,0,0,0,.61,1.54,5.77,5.77,0,0,0,1.83,1.88,5.38,5.38,0,0,0,3.33.88l-.14-.18a3,3,0,0,0,.2,2.23,8.37,8.37,0,0,0,1.42,2,6.71,6.71,0,0,0,.93.91,2.81,2.81,0,0,0,1.29.45,3,3,0,0,0,2.58-1l-.31-.08a6.08,6.08,0,0,0,2.66,4.14,4.42,4.42,0,0,0,2.67.82,8,8,0,0,0,2.6-.63l-.22-.09a6.36,6.36,0,0,0,2,2.46,3.43,3.43,0,0,0,2.83.71,4.45,4.45,0,0,0,3.36-3.55l-.18.09a4.09,4.09,0,0,0,2.78.35,4.35,4.35,0,0,0,1.92-.9,3.81,3.81,0,0,0,.88-1,1.91,1.91,0,0,0,.2-.42,5.08,5.08,0,0,1-1.16,1.32,4.54,4.54,0,0,1-1.88.81,3.94,3.94,0,0,1-2.62-.38l-.16-.08,0,.17a4.19,4.19,0,0,1-3.18,3.29,3.07,3.07,0,0,1-2.56-.67,6.22,6.22,0,0,1-1.85-2.34l-.06-.14-.15.05a7.69,7.69,0,0,1-2.49.6,4.12,4.12,0,0,1-2.47-.76,5.77,5.77,0,0,1-2.51-3.91l-.05-.38-.25.3a2.61,2.61,0,0,1-2.28.87,2.5,2.5,0,0,1-1.14-.39,5.8,5.8,0,0,1-.87-.85,8,8,0,0,1-1.39-1.88,2.65,2.65,0,0,1-.22-2l.07-.2-.21,0a5.17,5.17,0,0,1-3.18-.79,5.74,5.74,0,0,1-1.82-1.78A6.26,6.26,0,0,1,404.61,149.88Z"/><path class="cls-4" d="M407.06,192.63c0-.3,2,.08,3.78-1.36s1.93-3.6,2.21-3.56c.13,0,.3.54.15,1.45a5.1,5.1,0,0,1-1.73,3,4.38,4.38,0,0,1-3.14,1C407.48,193.08,407,192.77,407.06,192.63Z"/><path class="cls-7" d="M349.48,307l15.38-17,12.87-38.88c2.63-6.75,4.88-15.32,8.06-21.71a15.16,15.16,0,0,1,7.42-7.06l5.46-2.42,3.27-5.22c-1.88,11.8,14.64,13.25,32.21-1.39,0,0,5.8,3.92,14,10.71,3.58,3,6.83,6.21,8.18,11.11,2.46,8.9-8.1,35.24-19.6,60-3.44,7.41-19.82,40.62-19.82,40.62l-5.9,4.3s-52.13-15.79-56.82-24.45Z"/><path class="cls-4" d="M358,296.9a4.45,4.45,0,0,1,.44-.51c.34-.35.78-.81,1.32-1.39,1.21-1.24,2.9-3,5-5.08l0,.07c1-3,2.12-6.5,3.4-10.45s2.67-8.33,4-13c2.63-9.09,5.12-17.3,7.41-23.08,1.12-2.9,2.16-5.18,2.9-6.75l.89-1.79a2.85,2.85,0,0,1,.35-.61,3.13,3.13,0,0,1-.25.65c-.21.47-.47,1.08-.81,1.83-.67,1.59-1.66,3.9-2.73,6.8-2.2,5.79-4.63,14-7.26,23.1-1.35,4.63-2.72,9-4.07,13S366,287.15,365,290.11v0l0,0-5.08,5-1.39,1.33A3,3,0,0,1,358,296.9Z"/><polygon class="cls-9" points="405.88 232.14 387.85 306.06 369.12 315.38 369.12 297.3 401.53 230.54 405.88 232.14"/><g class="cls-13"><path d="M371.39,299.41c5.11,1.92,9.72,5,14.23,8s9,6.22,14,8.4,10.63,3.34,16,2.24,10.34-4.76,12.1-9.93Z"/></g><polygon class="cls-7" points="398.67 219.75 403.28 212.69 405.09 222.36 409.68 217.16 432.47 206.5 436.43 214.97 411.25 229.86 404.26 229.34 399.17 223.3 398.67 219.75"/><path class="cls-4" d="M398.67,219.75a6.53,6.53,0,0,1,.35,1.46c.23,1.1.48,2.34.77,3.72l-.46-.07c.4-.71.81-1.47,1.25-2.27.68-1.21,1.33-2.36,1.92-3.39l.24-.44.16.46c.41,1.16.62,2.13.81,2.8a4.69,4.69,0,0,1,.23,1.08c-.05,0-.24-.34-.49-1s-.54-1.62-1-2.71l.41,0L401,222.85c-.44.78-.87,1.54-1.26,2.25l-.33.59-.13-.66A21.33,21.33,0,0,1,398.67,219.75Z"/><path class="cls-9" d="M406.34,223.31l-2.9-.35c-.78.88-2.71,2.7-3.49,3.59v.08c.35,1.93.69,3.87,1,5.8a18.71,18.71,0,0,1,4.84.39l2.67-4.68Z"/><path class="cls-4" d="M411.29,332.35a29.73,29.73,0,0,1-2.34-2.27,74.17,74.17,0,0,0-5.84-5.21c-2.39-1.91-4.68-3.48-6.37-4.57a28.75,28.75,0,0,1-2.72-1.78s.31.09.82.33,1.22.63,2.1,1.14a53.53,53.53,0,0,1,6.5,4.47,54.31,54.31,0,0,1,5.78,5.37c.68.74,1.22,1.36,1.57,1.8S411.32,332.33,411.29,332.35Z"/><polygon class="cls-9" points="406.57 223.91 409.79 222.32 410.88 227.96 408.2 228.2 406.57 223.91"/><polygon class="cls-10" points="409.35 220.05 409.35 232.82 433.09 217.14 411 230 409.35 220.05"/><path class="cls-4" d="M436.43,215a11.05,11.05,0,0,1-1.38,1.05c-.92.63-2.26,1.52-4,2.54-3.39,2.09-8.25,4.64-13.5,7.65-2.22,1.29-4.31,2.58-6.19,3.86l-.31.21-.07-.37c-.72-3.9-1.35-7.28-1.82-9.83l.27.09L407,222.5a6.21,6.21,0,0,1-.94.79,7,7,0,0,1,.82-.91l2.4-2.44.21-.21.06.29c.51,2.54,1.19,5.91,2,9.8l-.38-.16c1.89-1.3,4-2.61,6.21-3.9,5.26-3,10.15-5.52,13.58-7.52,1.72-1,3.09-1.82,4-2.39A11.66,11.66,0,0,1,436.43,215Z"/><polygon class="cls-9" points="403.48 224.04 402.14 220.78 399.95 224.82 400.89 226.28 403.48 224.04"/><path class="cls-4" d="M407.12,223.57c.11.1-1.48,1.94-3.19,4.38s-2.9,4.56-3,4.49a17.56,17.56,0,0,1,2.61-4.79A17,17,0,0,1,407.12,223.57Z"/><path class="cls-4" d="M405.5,232.92a18.93,18.93,0,0,1-4.86-.82,5.21,5.21,0,0,1,2.49.06A5.12,5.12,0,0,1,405.5,232.92Z"/><path class="cls-5" d="M285.84,278.89h0l-15-42.45a1.64,1.64,0,0,1,1.21-2.09l34.7-9.06a1.72,1.72,0,0,1,2,1.14l15.79,47.83,49,32.17-2.35,2.4-12.53-3.05Z"/><path class="cls-4" d="M371.15,308.83s-.09,0-.26-.14l-.71-.45-2.72-1.78-9.94-6.62-32.68-22-2.59-1.75-.08,0,0-.08c-4.62-13.92-8.75-26.38-11.74-35.41l-3.47-10.65L306,227c-.1-.31-.17-.56-.23-.75a.91.91,0,0,1-.06-.27.85.85,0,0,1,.11.25l.27.74c.24.69.58,1.64,1,2.86.86,2.53,2.1,6.14,3.62,10.6l11.89,35.35-.1-.13,2.59,1.75,32.6,22.13,9.85,6.75,2.66,1.86.68.5A1.11,1.11,0,0,1,371.15,308.83Z"/><path class="cls-4" d="M291.83,278c0-.14,6.82-.58,15.24-1s15.26-.61,15.27-.46-6.82.58-15.25,1S291.84,278.13,291.83,278Z"/><path class="cls-7" d="M297.36,253.75c.61,1.93.27,3.75-.76,4.07s-2.34-1-3-2.9-.26-3.75.76-4.07S296.76,251.83,297.36,253.75Z"/><path class="cls-11" d="M340.12,268.89s-1.3.65-1.5-1.42c-.18-1.83,4.22-4.55,5.87-5.57s5.12-.31,6.89-.08c2.4.31,8,2.8,9.75,4.93s3,7.69,3.69,8.21,22.83,9.25,22.83,9.25l-5,17.56s-20.35-9-24-12.59-2.81-4.54-3.44-7.28-1.31-5.64-1.31-5.64l-1.92-.8-3.6,1a7.9,7.9,0,0,1-1.37,2.44,2.82,2.82,0,0,1-4.23-.05h0a2.19,2.19,0,0,1-2.72-1.43,4.34,4.34,0,0,1-.11-2.14s-1.64.33-1.65-1.72S340.12,268.89,340.12,268.89Z"/><path class="cls-12" d="M351.67,271.22c0,.08-.75.06-1.89.31a8.75,8.75,0,0,0-6.49,5.72c-.39,1.1-.46,1.84-.54,1.83a3.84,3.84,0,0,1,.19-1.94,8.26,8.26,0,0,1,6.78-6A4,4,0,0,1,351.67,271.22Z"/><path class="cls-12" d="M350,267.45c0,.09-.81,0-2,.24a9.11,9.11,0,0,0-4.18,2.39,21.21,21.21,0,0,0-3,3.94,8.59,8.59,0,0,1-1.15,1.72,7.62,7.62,0,0,1,.83-1.91,16.49,16.49,0,0,1,2.93-4.12,8.52,8.52,0,0,1,4.47-2.38A3.65,3.65,0,0,1,350,267.45Z"/><path class="cls-12" d="M349.68,263.33c0,.09-.69,0-1.76.19a9.62,9.62,0,0,0-3.82,1.72,22.25,22.25,0,0,0-3.12,2.91c-.75.82-1.23,1.32-1.29,1.27a5.78,5.78,0,0,1,1-1.5,16,16,0,0,1,3.09-3.11,8.5,8.5,0,0,1,4.08-1.65A3.28,3.28,0,0,1,349.68,263.33Z"/><path class="cls-7" d="M444.31,223.44c6.23,1.22,10.29,6.7,11.56,13.55,1.8,9.71-20.47,55.62-24.62,65.65-4.37,10.56-14.05,12.86-19.68,12.73s-45.1-18.64-45.1-18.64l5.79-20,35.07,10.42L421.22,248"/><path class="cls-4" d="M421.22,248s-.06.24-.21.69-.4,1.15-.7,2l-2.71,7.79c-2.39,6.78-5.84,16.56-10.09,28.64l-.06.17-.18-.05-35.08-10.37.3-.16c-1.85,6.4-3.78,13.1-5.77,20l-.14-.3c9.21,4.28,19.07,8.77,29.35,13.09,4.17,1.73,8.31,3.46,12.49,4.79l1.57.45c.52.14,1,.18,1.56.28a20.32,20.32,0,0,0,3.22-.18,21.3,21.3,0,0,0,6.11-1.73,19.15,19.15,0,0,0,9-8.26c1-1.77,1.7-3.68,2.53-5.51s1.64-3.65,2.44-5.43c6.48-14.28,12.23-27.19,16.35-38.31,2-5.55,3.78-10.66,4.49-15.29a12.31,12.31,0,0,0,.09-3.36,24.55,24.55,0,0,0-.77-3,18.88,18.88,0,0,0-2.4-4.91,13.62,13.62,0,0,0-5.74-4.81,12.11,12.11,0,0,0-1.87-.65l-.65-.19.66.14a10.18,10.18,0,0,1,1.9.6,13.64,13.64,0,0,1,5.87,4.79,19.3,19.3,0,0,1,2.47,5A22.79,22.79,0,0,1,456,237a12.05,12.05,0,0,1-.06,3.44c-.69,4.7-2.43,9.81-4.44,15.39-4.08,11.15-9.79,24.08-16.25,38.37l-2.43,5.43c-.83,1.83-1.54,3.73-2.55,5.56a19.61,19.61,0,0,1-9.18,8.48,21.65,21.65,0,0,1-6.25,1.78,22.67,22.67,0,0,1-3.3.19c-.56-.1-1.14-.16-1.68-.3l-1.6-.45c-4.22-1.35-8.35-3.07-12.53-4.81-10.29-4.33-20.15-8.82-29.36-13.11l-.2-.09.06-.21c2-6.92,3.95-13.62,5.8-20l.07-.23.23.07,35.05,10.45-.23.12c4.32-12.06,7.82-21.82,10.25-28.58,1.21-3.36,2.16-6,2.81-7.76l.74-2C421.12,248.24,421.22,248,421.22,248Z"/><path class="cls-4" d="M412.93,301.81c-.17,0-.7-3.49-2.27-7.55s-3.47-7.06-3.33-7.14a8.22,8.22,0,0,1,1.36,1.89,31.77,31.77,0,0,1,4,10.48A8.6,8.6,0,0,1,412.93,301.81Z"/><path class="cls-4" d="M441.88,223.53c0,.09-1.29.52-3.27,1.52a28.53,28.53,0,0,0-3.34,2,28.13,28.13,0,0,0-6.79,6.63,29.1,29.1,0,0,0-2.07,3.3c-1.05,2-1.5,3.27-1.59,3.23a3,3,0,0,1,.25-.94,17.66,17.66,0,0,1,1-2.46,24.54,24.54,0,0,1,2-3.41,28.56,28.56,0,0,1,3.14-3.69,28.13,28.13,0,0,1,3.77-3.06,24.39,24.39,0,0,1,3.45-1.92,18.05,18.05,0,0,1,2.48-1A3.29,3.29,0,0,1,441.88,223.53Z"/><path class="cls-4" d="M223.08,367.57l-19-23.69s73.32-60.39,80.25-64.71c5.25-3.26,15.92-7.6,26-4.21s27.2,15.21,33.5,19,61.17,37.82,67.1,46.13c0,0-11.94,21.6-19.75,25.22-6.13,2.84-23.78-1.4-34.09-7.67s-57.63-46.79-57.63-46.79Z"/><path class="cls-4" d="M230.14,395.33l25.6,18.4L305,333.43l49.76,22.67-33.46-55.9s-27,.32-31.22-.16c-5.44-.61-15.37,8-20.79,18.46C264.59,327.61,230.14,395.33,230.14,395.33Z"/><path class="cls-5" d="M338.66,349.48c-.1.1-11.34-11.36-25.09-25.6s-24.82-25.86-24.72-26,11.34,11.36,25.09,25.6S338.76,349.38,338.66,349.48Z"/><path class="cls-10" d="M244.52,351.67s22-41.21,32.43-43.95c0,0-15,20.36-20.05,34.77Z"/><path class="cls-5" d="M293.54,302.8a16.87,16.87,0,0,0-2.89-.56,14.88,14.88,0,0,0-7.74,1.65,25,25,0,0,0-8.73,7.92,126.6,126.6,0,0,0-7.83,12.39c-5,9.13-8.85,17.76-11.93,23.86-1.51,3.06-2.81,5.51-3.71,7.19-.45.8-.8,1.44-1.08,1.92a5.36,5.36,0,0,1-.4.66,3.81,3.81,0,0,1,.31-.71l1-2c.85-1.71,2.09-4.18,3.56-7.26,3-6.14,6.79-14.79,11.81-24a121.8,121.8,0,0,1,7.89-12.42c2.7-3.63,5.81-6.5,9-8a14.65,14.65,0,0,1,7.92-1.52A8.44,8.44,0,0,1,293.54,302.8Z"/><path class="cls-4" d="M242.7,380.42l-14,25.84s-31.27-3.69-34.05,1l50.81,26,21.09-40.73Z"/><path class="cls-7" d="M245.51,412.09c2.07,1.87-.69,5.17-2.84,3.35-2.31-2.07,1-5.43,3-3.18"/><path class="cls-5" d="M245.44,433.25l2-4.19L198,405.72s-2.77-.17-3.33,1.55Z"/><path class="cls-8" d="M228,405.58c-.12.26,1.06,1,1.87,2.43s.93,2.79,1.21,2.81C232.49,410,229.42,404.76,228,405.58Z"/><path class="cls-8" d="M221.53,405.06c-.18.22.68,1.19,1,2.67s0,2.71.23,2.83C224.38,410.22,223.14,404.67,221.53,405.06Z"/><path class="cls-8" d="M215.24,409.89c1.37.18,1.58-5.32.2-5.24C215.51,404.82,215.32,409.74,215.24,409.89Z"/><path class="cls-8" d="M231.5,399.83c.17,0,5,2.84,5.11,3C237.39,401.66,232.12,398.57,231.5,399.83Z"/><path class="cls-4" d="M223.63,334.35l-24,16.94s-26.38-17.18-31-14.19l34,45.81,36-28.38Z"/><path class="cls-7" d="M212.1,364c1,2.59-2.91,4.32-4,1.73-1.14-2.88,3.29-4.43,4.11-1.52"/><path class="cls-5" d="M202.65,382.91l3.62-2.88-34-42.85s-2.4-1.38-3.67-.08Z"/><path class="cls-8" d="M199.28,350.38c-.22.17.51,1.36.61,3s-.41,2.92-.17,3.06C201.37,356.3,200.93,350.27,199.28,350.38Z"/><path class="cls-8" d="M193.72,347.05c-.25.11.09,1.36-.3,2.82s-1.22,2.43-1,2.64C194,352.93,195.34,347.41,193.72,347.05Z"/><path class="cls-8" d="M185.94,348.59c1.15.76,3.77-4.07,2.51-4.61C188.43,344.15,186.08,348.48,185.94,348.59Z"/><path class="cls-10" d="M334.9,345.58s-28-21.33-34.7-29.55a80.51,80.51,0,0,1-10.11-16Z"/></g></svg>