<svg id="Layer_1" data-name="Layer 1" xmlns="http://www.w3.org/2000/svg" viewBox="0 0 568 446"><defs><style>.cls-1{fill:#020202;}.cls-2{fill:#f5ec47;}.cls-3{fill:#f6685d;}</style></defs><path class="cls-1" d="M431.11,240.58c6.84-6.84,18.39-26,26.39-11.75,6.12,10.92,15.8,20.07,22.47,30.77,2.49,4,7.43,10.5,4.74,15.38-2.2,4-6.54,4-10,1.71-11.41-7.41-12.24-26-22.31-34-4.05,13.9-2.36,30.18-4.73,44.55-2.51,15.21-5,30.34-9,45.25-3.3,12.24-7.63,29.12-21.39,33.4-13.56,4.22-27.77-7.2-37.4-15.34-5.49-4.64-11.11-9.25-16.48-14-5.18-4.55-11.6-10.43-18.82-11.39-13-1.74-19,22.94-21.62,32.37-4.29,15.29-8.41,30.59-13.49,45.65-3.89,11.52-10.37,25.7-24.66,24.51-15.06-1.27-27.47-15.21-36.52-26-9.91-11.86-19.47-27-24.38-41.68-.57-1.71-3.93-14.85,1.68-11.31.63.4,1.61,5.76,2.06,6.83a114.69,114.69,0,0,0,5.77,11.32,216.93,216.93,0,0,0,20.39,29.71c6.64,8.29,22.71,27,35.5,22.26,6.55-2.42,8.61-11.32,10.67-17.09,2.8-7.82,4.56-16,6.67-24,5-19.07,9.57-63.95,36.36-64.92,14.06-.5,27.59,12.83,37.51,21.3,7.55,6.44,26.61,26.63,36.71,16.1,5.19-5.41,6.84-15.35,8.46-22.38,2-8.61,4-17.21,5.75-25.87q2.81-13.71,5.39-27.46c1.63-8.72,5-18,5.65-26.78-6.19,3-16.19,19.8-24,17.63C407.3,262.18,428,243.71,431.11,240.58Z"/><path class="cls-2" d="M353.09,29.56s-50.43,0-98.21,14.82A331.69,331.69,0,0,0,79.33,174.46c-6.83,16.77-.8,35.31,12.81,43.46,10.46,6.27,24.21,5.71,35.37-1.22,7.3-9.87,65.56-86.65,146.15-111.68a269.37,269.37,0,0,1,127.52-7.67c16.4-1,29.58-13.55,31.33-29,1.57-13.89-6.34-27.63-19.63-33.66A340.71,340.71,0,0,0,353.09,29.56Z"/><path class="cls-3" d="M356.56,695.69c-158,0-286.12-128.11-286.12-286.13a285.4,285.4,0,0,1,21.1-108c12.62-18.29,7.18-42.54-9-52.56-13.41-8.29-32.5-5.81-45,7-2.32,4.83-5.14,11-8.12,18.18,0,0-6.46,15.6-11.39,31.7A353.94,353.94,0,0,0,2.56,409.56c0,195.51,158.49,354,354,354A352.74,352.74,0,0,0,598,668.44l-58.78-38.65A285,285,0,0,1,356.56,695.69Z"/><path class="cls-1" d="M740.56,378.56c0-153.53-97.75-284.23-234.4-333.27C489.57,43.14,473.81,52.82,468.5,68a35,35,0,0,0,12,39,308.84,308.84,0,0,1,58.21,29.39c46.22,29.83,72.18,64.15,79.38,74a286.14,286.14,0,0,1-48.86,388.36L628,637.44A353,353,0,0,0,740.56,378.56Z"/></svg>